{
.appVersion = "3087";
DisplayStrings = (
"bd/f_f/f_f_i/f_t",
"/rho",
"fþ",
"pq£0\012i/idotless/idotless_ogonek í/ibreve/icaron îï/idotaccent/idotbelow ì/ij/imacron/iogonek/iota-latin/istroke/itilde \012\012+/minus ×÷=/notequal ></greaterequal/lessequal ±/approxequal ~¬^",
"/aogonek",
"/Yusbig-cy/yusbig-cy/Qa-cy/qa-cy/KaiSymbol/kaiSymbol",
"k/KaiSymbol/ii-cy.loclBGR/kaiSymbol",
"/ii-cy.loclBGR"
);
classes = (
{
automatic = 1;

glyphs = (
{
glyphname = A;
lastChange = "2023-09-05 19:30:44 +0000";
layers = (
{
anchors = (
{
name = Bottom;
position = "{380, 0}";
},
{
name = Greek;
position = "{184, 558}";
},
{
name = Ogonek;
position = "{700, 0}";
},
{
name = Top;
position = "{380, 714}";
}
);
layerId = "FD4D3FDD-DE85-408F-A52A-FF600B1C6101";
paths = (
{
closed = 1;
nodes = (
"20 0 LINE",
"72 0 LINE",
"189 250 LINE",
"571 250 LINE",
"688 0 LINE",
"740 0 LINE",
"406 714 LINE",
"354 714 LINE"
);
},
{
closed = 1;
nodes = (
"380 658 LINE",
"549 298 LINE",
"211 298 LINE"
);
}
);
width = 760;
},
{
anchors = (
{
name = Bottom;
position = "{466, 0}";
},
{
name = Greek;
position = "{184, 558}";
},
{
name = Ogonek;
position = "{820, 0}";
},
{
name = Top;
position = "{466, 714}";
}
);
layerId = m002;
paths = (
{
closed = 1;
nodes = (
"20 0 LINE",
"232 0 LINE",
"282 108 LINE",
"630 108 LINE",
"680 0 LINE",
"892 0 LINE",
"562 714 LINE",
"350 714 LINE"
);
},
{
closed = 1;
nodes = (
"456 485 LINE",
"561 258 LINE",
"351 258 LINE"
);
}
);
width = 912;
}
);
leftKerningGroup = A;
rightKerningGroup = A;
unicode = 0041;
},
{
color = 10;
glyphname = Astroke;
lastChange = "2023-08-30 18:48:41 +0000";
layers = (
{
layerId = "FD4D3FDD-DE85-408F-A52A-FF600B1C6101";
paths = (
{
closed = 1;
nodes = (
"20 0 LINE",
"72 0 LINE",
"189 250 LINE",
"307 250 LINE",
"167 -53 LINE",
"217 -53 LINE",
"357 250 LINE",
"571 250 LINE",
"688 0 LINE",
"740 0 LINE",
"489 536 LINE",
"598 772 LINE",
"548 772 LINE",
"464 590 LINE",
"406 714 LINE",
"354 714 LINE"
);
},
{
closed = 1;
nodes = (
"380 658 LINE",
"438 534 LINE",
"329 298 LINE",
"211 298 LINE"
);
},
{
closed = 1;
nodes = (
"463 480 LINE",
"549 298 LINE",
"379 298 LINE"
);
}
);
width = 760;
},
{
layerId = m002;
paths = (
{
closed = 1;
nodes = (
"20 0 LINE",
"232 0 LINE",
"282 108 LINE",
"347 108 LINE",
"274 -53 LINE",
"324 -53 LINE",
"397 108 LINE",
"630 108 LINE",
"680 0 LINE",
"892 0 LINE",
"618 592 LINE",
"700 772 LINE",
"650 772 LINE",
"593 647 LINE",
"562 714 LINE",
"350 714 LINE"
);
},
{
closed = 1;
nodes = (
"456 485 LINE",
"488 416 LINE",
"416 258 LINE",
"351 258 LINE"
);
},
{
closed = 1;
nodes = (
"513 362 LINE",
"561 258 LINE",
"466 258 LINE"
);
}
);
width = 912;
}
);
leftKerningGroup = A;
leftMetricsKey = A;
rightKerningGroup = A;
rightMetricsKey = A;
unicode = 023A;
},
{
color = 10;
glyphname = AE;
lastChange = "2023-08-30 00:42:22 +0000";
layers = (
{
anchors = (
{
name = Top;
position = "{696, 714}";
}
);
layerId = "FD4D3FDD-DE85-408F-A52A-FF600B1C6101";
paths = (
{
closed = 1;
nodes = (
"20 0 LINE",
"77 0 LINE",
"236 250 LINE",
"479 250 LINE",
"479 0 LINE",
"1020 0 LINE",
"1020 48 LINE",
"529 48 LINE",
"529 344 LINE",
"999 344 LINE",
"999 392 LINE",
"529 392 LINE",
"529 666 LINE",
"1020 666 LINE",
"1020 714 LINE",
"474 714 LINE"
);
},
{
closed = 1;
nodes = (
"479 632 LINE",
"479 298 LINE",
"266 298 LINE"
);
}
);
width = 1060;
},
{
anchors = (
{
name = Top;
position = "{806, 714}";
}
);
layerId = m002;
paths = (
{
closed = 1;
nodes = (
"20 0 LINE",
"242 0 LINE",
"337 138 LINE",
"600 138 LINE",
"600 0 LINE",
"1256 0 LINE",
"1256 168 LINE",
"810 168 LINE",
"810 284 LINE",
"1235 284 LINE",
"1235 452 LINE",
"810 452 LINE",
"810 546 LINE",
"1256 546 LINE",
"1256 714 LINE",
"510 714 LINE"
);
},
{
closed = 1;
nodes = (
"600 522 LINE",
"600 288 LINE",
"440 288 LINE"
);
}
);
width = 1276;
}
);
leftKerningGroup = A;
leftMetricsKey = A;
rightKerningGroup = E;
rightMetricsKey = E;
unicode = 00C6;
},
{
glyphname = B;
lastChange = "2023-08-30 00:25:48 +0000";
layers = (
{
layerId = "FD4D3FDD-DE85-408F-A52A-FF600B1C6101";
paths = (
{
closed = 1;
nodes = (
"450 0 LINE SMOOTH",
"577 0 OFFCURVE",
"662 79 OFFCURVE",
"662 198 CURVE SMOOTH",
"662 293 OFFCURVE",
"602 364 OFFCURVE",
"511 374 CURVE",
"511 376 LINE",
"590 388 OFFCURVE",
"642 447 OFFCURVE",
"642 525 CURVE SMOOTH",
"642 638 OFFCURVE",
"556 714 OFFCURVE",
"427 714 CURVE SMOOTH",
"40 714 LINE",
"40 0 LINE"
);
},
{
closed = 1;
nodes = (
"90 351 LINE",
"438 351 LINE SMOOTH",
"542 351 OFFCURVE",
"612 289 OFFCURVE",
"612 196 CURVE SMOOTH",
"612 107 OFFCURVE",
"546 48 OFFCURVE",
"448 48 CURVE SMOOTH",
"90 48 LINE"
);
},
{
closed = 1;
nodes = (
"90 666 LINE",
"427 666 LINE SMOOTH",
"526 666 OFFCURVE",
"592 610 OFFCURVE",
"592 527 CURVE SMOOTH",
"592 450 OFFCURVE",
"530 398 OFFCURVE",
"438 398 CURVE SMOOTH",
"90 398 LINE"
);
}
);
width = 692;
},
{
layerId = m002;
paths = (
{
closed = 1;
nodes = (
"500 0 LINE SMOOTH",
"671 0 OFFCURVE",
"772 79 OFFCURVE",
"772 212 CURVE SMOOTH",
"772 295 OFFCURVE",
"727 355 OFFCURVE",
"651 374 CURVE",
"651 376 LINE",
"714 395 OFFCURVE",
"752 450 OFFCURVE",
"752 524 CURVE SMOOTH",
"752 643 OFFCURVE",
"652 714 OFFCURVE",
"482 714 CURVE SMOOTH",
"20 714 LINE",
"20 0 LINE"
);
},
{
closed = 1;
nodes = (
"230 294 LINE",
"478 294 LINE SMOOTH",
"525 294 OFFCURVE",
"552 269 OFFCURVE",
"552 228 CURVE SMOOTH",
"552 185 OFFCURVE",
"528 160 OFFCURVE",
"488 160 CURVE SMOOTH",
"230 160 LINE"
);
},
{
closed = 1;
nodes = (
"230 554 LINE",
"472 554 LINE SMOOTH",
"510 554 OFFCURVE",
"532 535 OFFCURVE",
"532 504 CURVE SMOOTH",
"532 473 OFFCURVE",
"512 454 OFFCURVE",
"478 454 CURVE SMOOTH",
"230 454 LINE"
);
}
);
width = 792;
}
);
leftKerningGroup = H;
leftMetricsKey = N;
rightKerningGroup = B;
unicode = 0042;
},
{
glyphname = C;
lastChange = "2023-08-30 00:25:48 +0000";
layers = (
{
anchors = (
{
name = Bottom;
position = "{415, 0}";
},
{
name = Top;
position = "{405, 726}";
}
);
layerId = "FD4D3FDD-DE85-408F-A52A-FF600B1C6101";
paths = (
{
closed = 1;
nodes = (
"692 216 LINE",
"680 107 OFFCURVE",
"568 35 OFFCURVE",
"411 35 CURVE SMOOTH",
"212 35 OFFCURVE",
"80 164 OFFCURVE",
"80 357 CURVE SMOOTH",
"80 550 OFFCURVE",
"210 678 OFFCURVE",
"405 678 CURVE SMOOTH",
"568 678 OFFCURVE",
"686 605 OFFCURVE",
"700 496 CURVE",
"750 496 LINE",
"736 634 OFFCURVE",
"598 726 OFFCURVE",
"405 726 CURVE SMOOTH",
"180 726 OFFCURVE",
"30 578 OFFCURVE",
"30 357 CURVE SMOOTH",
"30 135 OFFCURVE",
"182 -13 OFFCURVE",
"411 -13 CURVE SMOOTH",
"598 -13 OFFCURVE",
"730 79 OFFCURVE",
"742 216 CURVE"
);
}
);
width = 780;
},
{
anchors = (
{
name = Bottom;
position = "{440, 0}";
},
{
name = Top;
position = "{420, 726}";
}
);
layerId = m002;
paths = (
{
closed = 1;
nodes = (
"602 286 LINE",
"593 207 OFFCURVE",
"525 155 OFFCURVE",
"430 155 CURVE SMOOTH",
"310 155 OFFCURVE",
"230 236 OFFCURVE",
"230 357 CURVE SMOOTH",
"230 478 OFFCURVE",
"310 558 OFFCURVE",
"430 558 CURVE SMOOTH",
"527 558 OFFCURVE",
"599 505 OFFCURVE",
"610 426 CURVE",
"830 426 LINE",
"811 606 OFFCURVE",
"647 726 OFFCURVE",
"420 726 CURVE SMOOTH",
"174 726 OFFCURVE",
"10 578 OFFCURVE",
"10 357 CURVE SMOOTH",
"10 135 OFFCURVE",
"178 -13 OFFCURVE",
"430 -13 CURVE SMOOTH",
"648 -13 OFFCURVE",
"805 107 OFFCURVE",
"822 286 CURVE"
);
}
);
width = 840;
}
);
leftKerningGroup = O;
leftMetricsKey = O;
rightKerningGroup = O;
rightMetricsKey = O;
unicode = 0043;
},
{
color = 10;
glyphname = Cstroke;
lastChange = "2023-08-30 18:48:59 +0000";
layers = (
{
layerId = "FD4D3FDD-DE85-408F-A52A-FF600B1C6101";
paths = (
{
closed = 1;
nodes = (
"692 216 LINE",
"680 107 OFFCURVE",
"568 35 OFFCURVE",
"411 35 CURVE SMOOTH",
"362 35 OFFCURVE",
"316 43 OFFCURVE",
"276 58 CURVE",
"552 655 LINE",
"636 625 OFFCURVE",
"691 568 OFFCURVE",
"700 496 CURVE",
"750 496 LINE",
"741 590 OFFCURVE",
"674 662 OFFCURVE",
"572 699 CURVE",
"606 772 LINE",
"556 772 LINE",
"528 712 LINE",
"491 721 OFFCURVE",
"449 726 OFFCURVE",
"405 726 CURVE SMOOTH",
"180 726 OFFCURVE",
"30 578 OFFCURVE",
"30 357 CURVE SMOOTH",
"30 207 OFFCURVE",
"99 91 OFFCURVE",
"214 32 CURVE",
"175 -53 LINE",
"225 -53 LINE",
"256 13 LINE",
"302 -4 OFFCURVE",
"354 -13 OFFCURVE",
"411 -13 CURVE SMOOTH",
"598 -13 OFFCURVE",
"730 79 OFFCURVE",
"742 216 CURVE"
);
},
{
closed = 1;
nodes = (
"80 550 OFFCURVE",
"210 678 OFFCURVE",
"405 678 CURVE SMOOTH",
"442 678 OFFCURVE",
"476 674 OFFCURVE",
"508 667 CURVE",
"235 77 LINE",
"138 129 OFFCURVE",
"80 229 OFFCURVE",
"80 357 CURVE SMOOTH"
);
}
);
width = 780;
},
{
layerId = m002;
paths = (
{
closed = 1;
nodes = (
"602 286 LINE",
"593 207 OFFCURVE",
"525 155 OFFCURVE",
"430 155 CURVE SMOOTH",
"404 155 OFFCURVE",
"379 159 OFFCURVE",
"357 166 CURVE",
"526 537 LINE",
"572 515 OFFCURVE",
"603 476 OFFCURVE",
"610 426 CURVE",
"830 426 LINE",
"816 554 OFFCURVE",
"730 652 OFFCURVE",
"599 697 CURVE",
"633 772 LINE",
"583 772 LINE",
"555 710 LINE",
"513 721 OFFCURVE",
"468 726 OFFCURVE",
"420 726 CURVE SMOOTH",
"174 726 OFFCURVE",
"10 578 OFFCURVE",
"10 357 CURVE SMOOTH",
"10 197 OFFCURVE",
"97 75 OFFCURVE",
"240 20 CURVE",
"207 -53 LINE",
"257 -53 LINE",
"284 6 LINE",
"328 -7 OFFCURVE",
"377 -13 OFFCURVE",
"430 -13 CURVE SMOOTH",
"648 -13 OFFCURVE",
"805 107 OFFCURVE",
"822 286 CURVE"
);
},
{
closed = 1;
nodes = (
"230 478 OFFCURVE",
"310 558 OFFCURVE",
"430 558 CURVE SMOOTH",
"449 558 OFFCURVE",
"466 556 OFFCURVE",
"483 552 CURVE",
"316 186 LINE",
"262 220 OFFCURVE",
"230 280 OFFCURVE",
"230 357 CURVE SMOOTH"
);
}
);
width = 840;
}
);
leftKerningGroup = O;
leftMetricsKey = C;
rightKerningGroup = O;
rightMetricsKey = C;
unicode = 023B;
},
{
glyphname = D;
lastChange = "2023-08-30 00:25:48 +0000";
layers = (
{
anchors = (
{
name = Bottom;
position = "{318, 0}";
},
{
name = Top;
position = "{314, 714}";
}
);
layerId = "FD4D3FDD-DE85-408F-A52A-FF600B1C6101";
paths = (
{
closed = 1;
nodes = (
"364 0 LINE SMOOTH",
"568 0 OFFCURVE",
"704 143 OFFCURVE",
"704 357 CURVE SMOOTH",
"704 571 OFFCURVE",
"568 714 OFFCURVE",
"364 714 CURVE SMOOTH",
"40 714 LINE",
"40 0 LINE"
);
},
{
closed = 1;
nodes = (
"90 666 LINE",
"364 666 LINE SMOOTH",
"538 666 OFFCURVE",
"654 542 OFFCURVE",
"654 356 CURVE SMOOTH",
"654 171 OFFCURVE",
"538 48 OFFCURVE",
"364 48 CURVE SMOOTH",
"90 48 LINE"
);
}
);
width = 734;
},
{
anchors = (
{
name = Bottom;
position = "{358, 0}";
},
{
name = Top;
position = "{354, 714}";
}
);
layerId = m002;
paths = (
{
closed = 1;
nodes = (
"434 0 LINE SMOOTH",
"668 0 OFFCURVE",
"824 143 OFFCURVE",
"824 357 CURVE SMOOTH",
"824 571 OFFCURVE",
"668 714 OFFCURVE",
"434 714 CURVE SMOOTH",
"20 714 LINE",
"20 0 LINE"
);
},
{
closed = 1;
nodes = (
"230 546 LINE",
"434 546 LINE SMOOTH",
"536 546 OFFCURVE",
"604 470 OFFCURVE",
"604 356 CURVE SMOOTH",
"604 243 OFFCURVE",
"536 168 OFFCURVE",
"434 168 CURVE SMOOTH",
"230 168 LINE"
);
}
);
width = 834;
}
);
leftKerningGroup = H;
leftMetricsKey = N;
rightKerningGroup = O;
rightMetricsKey = O;
unicode = 0044;
},
{
color = 10;
glyphname = Eth;
lastChange = "2023-08-30 00:42:31 +0000";
layers = (
{
layerId = "FD4D3FDD-DE85-408F-A52A-FF600B1C6101";
paths = (
{
closed = 1;
nodes = (
"414 0 LINE SMOOTH",
"618 0 OFFCURVE",
"754 143 OFFCURVE",
"754 357 CURVE SMOOTH",
"754 571 OFFCURVE",
"618 714 OFFCURVE",
"414 714 CURVE SMOOTH",
"90 714 LINE",
"90 381 LINE",
"40 386 LINE",
"40 341 LINE",
"90 341 LINE",
"90 0 LINE"
);
},
{
closed = 1;
nodes = (
"140 341 LINE",
"241 341 LINE",
"241 383 LINE",
"140 383 LINE",
"140 666 LINE",
"414 666 LINE SMOOTH",
"588 666 OFFCURVE",
"704 542 OFFCURVE",
"704 356 CURVE SMOOTH",
"704 171 OFFCURVE",
"588 48 OFFCURVE",
"414 48 CURVE SMOOTH",
"140 48 LINE"
);
}
);
width = 784;
},
{
layerId = m002;
paths = (
{
closed = 1;
nodes = (
"481 0 LINE SMOOTH",
"715 0 OFFCURVE",
"871 143 OFFCURVE",
"871 357 CURVE SMOOTH",
"871 571 OFFCURVE",
"715 714 OFFCURVE",
"481 714 CURVE SMOOTH",
"67 714 LINE",
"67 417 LINE",
"20 422 LINE",
"20 299 LINE",
"67 299 LINE",
"67 0 LINE"
);
},
{
closed = 1;
nodes = (
"277 299 LINE",
"384 299 LINE",
"384 419 LINE",
"277 419 LINE",
"277 546 LINE",
"481 546 LINE SMOOTH",
"583 546 OFFCURVE",
"651 470 OFFCURVE",
"651 356 CURVE SMOOTH",
"651 243 OFFCURVE",
"583 168 OFFCURVE",
"481 168 CURVE SMOOTH",
"277 168 LINE"
);
}
);
width = 881;
}
);
leftKerningGroup = H;
leftMetricsKey = D;
rightKerningGroup = O;
rightMetricsKey = D;
unicode = 00D0;
},
{
glyphname = E;
lastChange = "2023-08-30 19:32:13 +0000";
layers = (
{
anchors = (
{
name = Bottom;
position = "{545, 0}";
},
{
name = Dot;
position = "{309, 0}";
},
{
name = Greek;
position = "{-106, 558}";
},
{
name = Top;
position = "{313, 714}";
}
);
layerId = "FD4D3FDD-DE85-408F-A52A-FF600B1C6101";
paths = (
{
closed = 1;
nodes = (
"90 392 LINE",
"90 666 LINE",
"581 666 LINE",
"581 714 LINE",
"40 714 LINE",
"40 0 LINE",
"581 0 LINE",
"581 48 LINE",
"90 48 LINE",
"90 344 LINE",
"560 344 LINE",
"560 392 LINE"
);
}
);
width = 621;
},
{
anchors = (
{
name = Bottom;
position = "{604, 0}";
},
{
name = Dot;
position = "{394, 0}";
},
{
name = Greek;
position = "{-171, 558}";
},
{
name = Top;
position = "{373, 714}";
}
);
layerId = m002;
paths = (
{
closed = 1;
nodes = (
"230 452 LINE",
"230 546 LINE",
"676 546 LINE",
"676 714 LINE",
"20 714 LINE",
"20 0 LINE",
"676 0 LINE",
"676 168 LINE",
"230 168 LINE",
"230 284 LINE",
"655 284 LINE",
"655 452 LINE"
);
}
);
width = 696;
}
);
leftKerningGroup = H;
leftMetricsKey = N;
rightKerningGroup = E;
unicode = 0045;
},
{
color = 10;
glyphname = Eopen;
lastChange = "2023-08-30 01:34:28 +0000";
layers = (
{
layerId = "FD4D3FDD-DE85-408F-A52A-FF600B1C6101";
paths = (
{
closed = 1;
nodes = (
"90 285 OFFCURVE",
"186 348 OFFCURVE",
"331 348 CURVE SMOOTH",
"418 348 LINE",
"418 396 LINE",
"331 396 LINE SMOOTH",
"200 396 OFFCURVE",
"113 454 OFFCURVE",
"113 540 CURVE SMOOTH",
"113 624 OFFCURVE",
"210 680 OFFCURVE",
"355 680 CURVE SMOOTH",
"427 680 OFFCURVE",
"494 672 OFFCURVE",
"521 659 CURVE",
"521 704 LINE",
"493 717 OFFCURVE",
"423 726 OFFCURVE",
"348 726 CURVE SMOOTH",
"177 726 OFFCURVE",
"63 652 OFFCURVE",
"63 540 CURVE SMOOTH",
"63 468 OFFCURVE",
"116 401 OFFCURVE",
"195 373 CURVE",
"195 371 LINE",
"102 354 OFFCURVE",
"40 282 OFFCURVE",
"40 190 CURVE SMOOTH",
"40 68 OFFCURVE",
"162 -13 OFFCURVE",
"345 -13 CURVE SMOOTH",
"427 -13 OFFCURVE",
"497 -4 OFFCURVE",
"518 9 CURVE",
"518 54 LINE",
"493 41 OFFCURVE",
"426 33 OFFCURVE",
"352 33 CURVE SMOOTH",
"195 33 OFFCURVE",
"90 96 OFFCURVE",
"90 190 CURVE SMOOTH"
);
}
);
width = 561;
},
{
layerId = m002;
paths = (
{
closed = 1;
nodes = (
"220 280 OFFCURVE",
"275 307 OFFCURVE",
"369 307 CURVE SMOOTH",
"449 307 LINE",
"449 437 LINE",
"366 437 LINE SMOOTH",
"289 437 OFFCURVE",
"243 457 OFFCURVE",
"243 490 CURVE SMOOTH",
"243 535 OFFCURVE",
"303 561 OFFCURVE",
"404 561 CURVE SMOOTH",
"452 561 OFFCURVE",
"499 550 OFFCURVE",
"532 531 CURVE",
"532 694 LINE",
"491 714 OFFCURVE",
"431 726 OFFCURVE",
"371 726 CURVE SMOOTH",
"165 726 OFFCURVE",
"43 648 OFFCURVE",
"43 517 CURVE SMOOTH",
"43 453 OFFCURVE",
"76 399 OFFCURVE",
"131 373 CURVE",
"131 371 LINE",
"61 346 OFFCURVE",
"20 287 OFFCURVE",
"20 213 CURVE SMOOTH",
"20 71 OFFCURVE",
"159 -13 OFFCURVE",
"394 -13 CURVE SMOOTH",
"448 -13 OFFCURVE",
"502 -5 OFFCURVE",
"542 9 CURVE",
"542 177 LINE",
"512 163 OFFCURVE",
"459 155 OFFCURVE",
"399 155 CURVE SMOOTH",
"286 155 OFFCURVE",
"220 185 OFFCURVE",
"220 235 CURVE SMOOTH"
);
}
);
width = 562;
}
);
leftKerningGroup = O;
leftMetricsKey = E;
rightKerningGroup = E;
rightMetricsKey = E;
unicode = 0190;
},
{
color = 10;
glyphname = Ezh;
lastChange = "2023-08-30 01:34:49 +0000";
layers = (
{
anchors = (
{
name = Top;
position = "{313, 714}";
}
);
layerId = "FD4D3FDD-DE85-408F-A52A-FF600B1C6101";
paths = (
{
closed = 1;
nodes = (
"52 666 LINE",
"531 666 LINE",
"305 469 LINE",
"305 421 LINE",
"340 421 LINE SMOOTH",
"482 421 OFFCURVE",
"576 344 OFFCURVE",
"576 229 CURVE SMOOTH",
"576 113 OFFCURVE",
"478 35 OFFCURVE",
"332 35 CURVE SMOOTH",
"181 35 OFFCURVE",
"80 103 OFFCURVE",
"80 206 CURVE",
"30 206 LINE",
"30 75 OFFCURVE",
"151 -13 OFFCURVE",
"332 -13 CURVE SMOOTH",
"508 -13 OFFCURVE",
"626 84 OFFCURVE",
"626 229 CURVE SMOOTH",
"626 365 OFFCURVE",
"524 459 OFFCURVE",
"367 468 CURVE",
"599 666 LINE",
"599 714 LINE",
"52 714 LINE"
);
}
);
width = 656;
},
{
anchors = (
{
name = Top;
position = "{353, 714}";
}
);
layerId = m002;
paths = (
{
closed = 1;
nodes = (
"32 564 LINE",
"482 564 LINE",
"325 479 LINE",
"325 329 LINE",
"372 329 LINE SMOOTH",
"460 329 OFFCURVE",
"518 293 OFFCURVE",
"518 238 CURVE SMOOTH",
"518 185 OFFCURVE",
"460 149 OFFCURVE",
"372 149 CURVE SMOOTH",
"280 149 OFFCURVE",
"218 180 OFFCURVE",
"218 226 CURVE",
"10 226 LINE",
"10 83 OFFCURVE",
"155 -13 OFFCURVE",
"372 -13 CURVE SMOOTH",
"584 -13 OFFCURVE",
"726 85 OFFCURVE",
"726 232 CURVE SMOOTH",
"726 336 OFFCURVE",
"656 416 OFFCURVE",
"540 454 CURVE",
"699 564 LINE",
"699 714 LINE",
"32 714 LINE"
);
}
);
width = 736;
}
);
leftKerningGroup = three;
leftMetricsKey = O;
rightKerningGroup = O;
rightMetricsKey = O;
unicode = 01B7;
},
{
glyphname = F;
lastChange = "2023-08-30 00:25:48 +0000";
layers = (
{
anchors = (
{
name = Bottom;
position = "{263, 0}";
},
{
name = Top;
position = "{305, 726}";
}
);
layerId = "FD4D3FDD-DE85-408F-A52A-FF600B1C6101";
paths = (
{
closed = 1;
nodes = (
"90 392 LINE",
"90 666 LINE",
"581 666 LINE",
"581 714 LINE",
"40 714 LINE",
"40 0 LINE",
"90 0 LINE",
"90 344 LINE",
"560 344 LINE",
"560 392 LINE"
);
}
);
width = 611;
},
{
anchors = (
{
name = Bottom;
position = "{363, 0}";
},
{
name = Top;
position = "{305, 714}";
}
);
layerId = m002;
paths = (
{
closed = 1;
nodes = (
"230 452 LINE",
"230 546 LINE",
"676 546 LINE",
"676 714 LINE",
"20 714 LINE",
"20 0 LINE",
"230 0 LINE",
"230 284 LINE",
"655 284 LINE",
"655 452 LINE"
);
}
);
width = 696;
}
);
leftKerningGroup = H;
leftMetricsKey = N;
rightKerningGroup = F;
unicode = 0046;
},
{
glyphname = G;
lastChange = "2023-08-30 00:25:48 +0000";
layers = (
{
anchors = (
{
name = Bottom;
position = "{420, 0}";
},
{
name = Top;
position = "{427, 726}";
}
);
layerId = "FD4D3FDD-DE85-408F-A52A-FF600B1C6101";
paths = (
{
closed = 1;
nodes = (
"422 327 LINE",
"422 279 LINE",
"696 279 LINE",
"696 124 LINE",
"648 70 OFFCURVE",
"541 35 OFFCURVE",
"420 35 CURVE SMOOTH",
"216 35 OFFCURVE",
"80 164 OFFCURVE",
"80 357 CURVE SMOOTH",
"80 550 OFFCURVE",
"219 678 OFFCURVE",
"427 678 CURVE SMOOTH",
"589 678 OFFCURVE",
"706 605 OFFCURVE",
"720 496 CURVE",
"770 496 LINE",
"756 634 OFFCURVE",
"619 726 OFFCURVE",
"427 726 CURVE SMOOTH",
"189 726 OFFCURVE",
"30 578 OFFCURVE",
"30 357 CURVE SMOOTH",
"30 135 OFFCURVE",
"186 -13 OFFCURVE",
"420 -13 CURVE SMOOTH",
"534 -13 OFFCURVE",
"644 15 OFFCURVE",
"694 57 CURVE",
"696 57 LINE",
"681 0 LINE",
"746 0 LINE",
"746 327 LINE"
);
}
);
width = 810;
},
{
anchors = (
{
name = Bottom;
position = "{421, 0}";
},
{
name = Top;
position = "{421, 726}";
}
);
layerId = m002;
paths = (
{
closed = 1;
nodes = (
"453 389 LINE",
"453 259 LINE",
"630 259 LINE",
"631 220 LINE",
"599 173 OFFCURVE",
"530 145 OFFCURVE",
"446 145 CURVE SMOOTH",
"310 145 OFFCURVE",
"230 224 OFFCURVE",
"230 357 CURVE SMOOTH",
"230 483 OFFCURVE",
"307 558 OFFCURVE",
"436 558 CURVE SMOOTH",
"536 558 OFFCURVE",
"599 524 OFFCURVE",
"606 466 CURVE",
"826 466 LINE",
"809 629 OFFCURVE",
"658 726 OFFCURVE",
"420 726 CURVE SMOOTH",
"162 726 OFFCURVE",
"10 589 OFFCURVE",
"10 357 CURVE SMOOTH",
"10 124 OFFCURVE",
"171 -13 OFFCURVE",
"444 -13 CURVE SMOOTH",
"521 -13 OFFCURVE",
"589 11 OFFCURVE",
"627 52 CURVE",
"634 52 LINE",
"604 0 LINE",
"812 0 LINE",
"812 389 LINE"
);
}
);
width = 846;
}
);
leftKerningGroup = O;
leftMetricsKey = O;
rightKerningGroup = G;
rightMetricsKey = N;
unicode = 0047;
},
{
color = 10;
glyphname = Glottalstop;
lastChange = "2023-08-30 18:49:41 +0000";
layers = (
{
layerId = "FD4D3FDD-DE85-408F-A52A-FF600B1C6101";
paths = (
{
closed = 1;
nodes = (
"303 0 LINE",
"303 315 OFFCURVE",
"576 285 OFFCURVE",
"576 521 CURVE SMOOTH",
"576 644 OFFCURVE",
"469 726 OFFCURVE",
"308 726 CURVE SMOOTH",
"141 726 OFFCURVE",
"30 644 OFFCURVE",
"30 520 CURVE",
"80 520 LINE",
"80 615 OFFCURVE",
"171 678 OFFCURVE",
"308 678 CURVE SMOOTH",
"439 678 OFFCURVE",
"526 615 OFFCURVE",
"526 521 CURVE SMOOTH",
"526 315 OFFCURVE",
"253 340 OFFCURVE",
"253 0 CURVE"
);
}
);
width = 606;
},
{
layerId = m002;
paths = (
{
closed = 1;
nodes = (
"392 0 LINE",
"392 258 OFFCURVE",
"687 216 OFFCURVE",
"687 475 CURVE SMOOTH",
"687 633 OFFCURVE",
"561 726 OFFCURVE",
"348 726 CURVE SMOOTH",
"136 726 OFFCURVE",
"10 629 OFFCURVE",
"10 465 CURVE",
"230 465 LINE",
"230 523 OFFCURVE",
"274 558 OFFCURVE",
"348 558 CURVE SMOOTH",
"422 558 OFFCURVE",
"466 527 OFFCURVE",
"466 475 CURVE SMOOTH",
"466 303 OFFCURVE",
"182 321 OFFCURVE",
"182 0 CURVE"
);
}
);
width = 697;
}
);
leftKerningGroup = O;
leftMetricsKey = O;
rightKerningGroup = P;
rightMetricsKey = P;
unicode = 0241;
},
{
color = 10;
glyphname = Gstroke;
lastChange = "2023-08-30 01:44:57 +0000";
layers = (
{
layerId = "FD4D3FDD-DE85-408F-A52A-FF600B1C6101";
paths = (
{
closed = 1;
nodes = (
"422 327 LINE",
"422 279 LINE",
"696 279 LINE",
"696 222 LINE",
"596 227 LINE",
"596 182 LINE",
"696 182 LINE",
"696 124 LINE",
"648 70 OFFCURVE",
"541 35 OFFCURVE",
"420 35 CURVE SMOOTH",
"216 35 OFFCURVE",
"80 164 OFFCURVE",
"80 357 CURVE SMOOTH",
"80 550 OFFCURVE",
"219 678 OFFCURVE",
"427 678 CURVE SMOOTH",
"589 678 OFFCURVE",
"706 605 OFFCURVE",
"720 496 CURVE",
"770 496 LINE",
"756 634 OFFCURVE",
"619 726 OFFCURVE",
"427 726 CURVE SMOOTH",
"189 726 OFFCURVE",
"30 578 OFFCURVE",
"30 357 CURVE SMOOTH",
"30 135 OFFCURVE",
"186 -13 OFFCURVE",
"420 -13 CURVE SMOOTH",
"534 -13 OFFCURVE",
"644 15 OFFCURVE",
"694 57 CURVE",
"696 57 LINE",
"681 0 LINE",
"746 0 LINE",
"746 182 LINE",
"796 182 LINE",
"796 224 LINE",
"746 224 LINE",
"746 327 LINE"
);
}
);
width = 836;
},
{
layerId = m002;
paths = (
{
closed = 1;
nodes = (
"453 389 LINE",
"453 259 LINE",
"630 259 LINE",
"631 244 LINE",
"531 249 LINE",
"531 176 LINE",
"604 176 LINE",
"604 171 LINE",
"566 152 OFFCURVE",
"508 139 OFFCURVE",
"459 139 CURVE SMOOTH",
"322 139 OFFCURVE",
"230 226 OFFCURVE",
"230 357 CURVE SMOOTH",
"230 483 OFFCURVE",
"307 558 OFFCURVE",
"436 558 CURVE SMOOTH",
"536 558 OFFCURVE",
"599 524 OFFCURVE",
"606 466 CURVE",
"826 466 LINE",
"809 629 OFFCURVE",
"658 726 OFFCURVE",
"420 726 CURVE SMOOTH",
"162 726 OFFCURVE",
"10 589 OFFCURVE",
"10 357 CURVE SMOOTH",
"10 124 OFFCURVE",
"171 -13 OFFCURVE",
"444 -13 CURVE SMOOTH",
"521 -13 OFFCURVE",
"589 11 OFFCURVE",
"627 52 CURVE",
"634 52 LINE",
"604 0 LINE",
"812 0 LINE",
"812 176 LINE",
"862 176 LINE",
"862 246 LINE",
"812 246 LINE",
"812 389 LINE"
);
}
);
width = 882;
}
);
leftKerningGroup = O;
leftMetricsKey = G;
rightKerningGroup = G;
rightMetricsKey = G;
unicode = 01E4;
},
{
glyphname = H;
lastChange = "2023-08-30 19:40:24 +0000";
layers = (
{
anchors = (
{
name = Bottom;
position = "{352, 0}";
},
{
name = Greek;
position = "{-106, 558}";
},
{
name = Top;
position = "{352, 714}";
}
);
layerId = "FD4D3FDD-DE85-408F-A52A-FF600B1C6101";
paths = (
{
closed = 1;
nodes = (
"614 397 LINE",
"90 397 LINE",
"90 714 LINE",
"40 714 LINE",
"40 0 LINE",
"90 0 LINE",
"90 349 LINE",
"614 349 LINE",
"614 0 LINE",
"664 0 LINE",
"664 714 LINE",
"614 714 LINE"
);
}
);
width = 704;
},
{
anchors = (
{
name = Bottom;
position = "{405, 0}";
},
{
name = Greek;
position = "{-171, 558}";
},
{
name = Top;
position = "{405, 714}";
}
);
layerId = m002;
paths = (
{
closed = 1;
nodes = (
"574 448 LINE",
"230 448 LINE",
"230 714 LINE",
"20 714 LINE",
"20 0 LINE",
"230 0 LINE",
"230 280 LINE",
"574 280 LINE",
"574 0 LINE",
"784 0 LINE",
"784 714 LINE",
"574 714 LINE"
);
}
);
width = 804;
}
);
leftKerningGroup = H;
leftMetricsKey = N;
rightKerningGroup = H;
rightMetricsKey = N;
unicode = 0048;
},
{
color = 10;
glyphname = Hbar;
lastChange = "2023-08-30 01:30:10 +0000";
layers = (
{
layerId = "FD4D3FDD-DE85-408F-A52A-FF600B1C6101";
paths = (
{
closed = 1;
nodes = (
"714 602 LINE",
"190 600 LINE",
"190 714 LINE",
"140 714 LINE",
"140 601 LINE",
"40 605 LINE",
"40 560 LINE",
"140 560 LINE",
"140 0 LINE",
"190 0 LINE",
"190 349 LINE",
"714 349 LINE",
"714 0 LINE",
"764 0 LINE",
"764 560 LINE",
"864 560 LINE",
"864 602 LINE",
"764 602 LINE",
"764 714 LINE",
"714 714 LINE"
);
},
{
closed = 1;
nodes = (
"190 560 LINE",
"714 560 LINE",
"714 397 LINE",
"190 397 LINE"
);
}
);
width = 904;
},
{
layerId = m002;
paths = (
{
closed = 1;
nodes = (
"664 638 LINE",
"320 637 LINE",
"320 714 LINE",
"110 714 LINE",
"110 638 LINE",
"20 641 LINE",
"20 518 LINE",
"110 518 LINE",
"110 0 LINE",
"320 0 LINE",
"320 280 LINE",
"664 280 LINE",
"664 0 LINE",
"874 0 LINE",
"874 518 LINE",
"974 518 LINE",
"974 638 LINE",
"874 638 LINE",
"874 714 LINE",
"664 714 LINE"
);
},
{
closed = 1;
nodes = (
"320 518 LINE",
"664 518 LINE",
"664 448 LINE",
"320 448 LINE"
);
}
);
width = 994;
}
);
leftKerningGroup = H;
leftMetricsKey = N;
rightKerningGroup = H;
rightMetricsKey = N;
unicode = 0126;
},
{
glyphname = I;
lastChange = "2023-08-30 19:40:31 +0000";
layers = (
{
anchors = (
{
name = Bottom;
position = "{65, 0}";
},
{
name = Greek;
position = "{-106, 558}";
},
{
name = Top;
position = "{65, 714}";
}
);
layerId = "FD4D3FDD-DE85-408F-A52A-FF600B1C6101";
paths = (
{
closed = 1;
nodes = (
"40 0 LINE",
"90 0 LINE",
"90 714 LINE",
"40 714 LINE"
);
}
);
width = 130;
},
{
anchors = (
{
name = Bottom;
position = "{125, 0}";
},
{
name = Greek;
position = "{-171, 558}";
},
{
name = Top;
position = "{125, 714}";
}
);
layerId = m002;
paths = (
{
closed = 1;
nodes = (
"20 0 LINE",
"230 0 LINE",
"230 714 LINE",
"20 714 LINE"
);
}
);
width = 250;
}
);
leftKerningGroup = H;
leftMetricsKey = N;
rightKerningGroup = H;
rightMetricsKey = N;
unicode = 0049;
},
{
color = 10;
glyphname = IJ;
lastChange = "2023-08-30 00:42:58 +0000";
layers = (
{
layerId = "FD4D3FDD-DE85-408F-A52A-FF600B1C6101";
paths = (
{
closed = 1;
nodes = (
"40 160 LINE",
"90 160 LINE",
"90 714 LINE",
"40 714 LINE"
);
},
{
closed = 1;
nodes = (
"78 -8 OFFCURVE",
"103 -13 OFFCURVE",
"126 -13 CURVE SMOOTH",
"243 -13 OFFCURVE",
"312 48 OFFCURVE",
"312 152 CURVE SMOOTH",
"312 714 LINE",
"262 714 LINE",
"262 152 LINE SMOOTH",
"262 78 OFFCURVE",
"212 34 OFFCURVE",
"127 34 CURVE SMOOTH",
"100 34 OFFCURVE",
"75 39 OFFCURVE",
"60 48 CURVE",
"60 0 LINE"
);
}
);
width = 352;
},
{
layerId = m002;
paths = (
{
closed = 1;
nodes = (
"20 240 LINE",
"190 240 LINE",
"190 714 LINE",
"20 714 LINE"
);
},
{
closed = 1;
nodes = (
"168 -8 OFFCURVE",
"191 -13 OFFCURVE",
"211 -13 CURVE SMOOTH",
"369 -13 OFFCURVE",
"462 67 OFFCURVE",
"462 202 CURVE SMOOTH",
"462 714 LINE",
"292 714 LINE",
"292 232 LINE SMOOTH",
"292 182 OFFCURVE",
"262 153 OFFCURVE",
"212 153 CURVE SMOOTH",
"189 153 OFFCURVE",
"166 159 OFFCURVE",
"150 168 CURVE",
"150 0 LINE"
);
}
);
width = 482;
}
);
leftKerningGroup = I;
leftMetricsKey = N;
rightKerningGroup = U;
rightMetricsKey = N;
unicode = 0132;
},
{
color = 10;
glyphname = Istroke;
lastChange = "2023-08-30 01:22:39 +0000";
layers = (
{
layerId = "FD4D3FDD-DE85-408F-A52A-FF600B1C6101";
paths = (
{
closed = 1;
nodes = (
"110 382 LINE",
"40 386 LINE",
"40 341 LINE",
"110 341 LINE",
"110 0 LINE",
"160 0 LINE",
"160 341 LINE",
"230 341 LINE",
"230 383 LINE",
"160 383 LINE",
"160 714 LINE",
"110 714 LINE"
);
}
);
width = 270;
},
{
layerId = m002;
paths = (
{
closed = 1;
nodes = (
"97 417 LINE",
"20 422 LINE",
"20 299 LINE",
"97 299 LINE",
"97 0 LINE",
"307 0 LINE",
"307 299 LINE",
"382 299 LINE",
"382 419 LINE",
"307 419 LINE",
"307 714 LINE",
"97 714 LINE"
);
}
);
width = 402;
}
);
leftKerningGroup = I;
leftMetricsKey = N;
rightKerningGroup = I;
rightMetricsKey = N;
unicode = 0197;
},
{
glyphname = J;
lastChange = "2023-08-30 00:25:48 +0000";
layers = (
{
anchors = (
{
name = Bottom;
position = "{164, 0}";
},
{
name = Top;
position = "{342, 714}";
}
);
layerId = "FD4D3FDD-DE85-408F-A52A-FF600B1C6101";
paths = (
{
closed = 1;
nodes = (
"367 714 LINE",
"317 714 LINE",
"317 212 LINE SMOOTH",
"317 100 OFFCURVE",
"241 34 OFFCURVE",
"112 34 CURVE SMOOTH",
"77 34 OFFCURVE",
"47 39 OFFCURVE",
"30 48 CURVE",
"30 0 LINE",
"48 -8 OFFCURVE",
"78 -13 OFFCURVE",
"111 -13 CURVE SMOOTH",
"272 -13 OFFCURVE",
"367 71 OFFCURVE",
"367 212 CURVE SMOOTH"
);
}
);
width = 407;
},
{
anchors = (
{
name = Bottom;
position = "{104, 0}";
},
{
name = Top;
position = "{336, 714}";
}
);
layerId = m002;
paths = (
{
closed = 1;
nodes = (
"447 714 LINE",
"237 714 LINE",
"237 297 LINE SMOOTH",
"237 217 OFFCURVE",
"179 163 OFFCURVE",
"92 163 CURVE SMOOTH",
"69 163 OFFCURVE",
"40 169 OFFCURVE",
"20 178 CURVE",
"20 0 LINE",
"38 -8 OFFCURVE",
"72 -13 OFFCURVE",
"107 -13 CURVE SMOOTH",
"311 -13 OFFCURVE",
"447 89 OFFCURVE",
"447 242 CURVE SMOOTH"
);
}
);
width = 467;
}
);
leftKerningGroup = J;
rightKerningGroup = U;
rightMetricsKey = N;
unicode = 004A;
},
{
glyphname = K;
lastChange = "2023-08-30 00:25:48 +0000";
layers = (
{
anchors = (
{
name = Bottom;
position = "{299, 0}";
},
{
name = Top;
position = "{303, 714}";
}
);
layerId = "FD4D3FDD-DE85-408F-A52A-FF600B1C6101";
paths = (
{
closed = 1;
nodes = (
"40 0 LINE",
"90 0 LINE",
"90 260 LINE",
"246 381 LINE",
"591 0 LINE",
"663 0 LINE",
"285 412 LINE",
"671 714 LINE",
"597 714 LINE",
"92 322 LINE",
"90 322 LINE",
"90 714 LINE",
"40 714 LINE"
);
}
);
width = 691;
},
{
anchors = (
{
name = Bottom;
position = "{386, 0}";
},
{
name = Top;
position = "{370, 714}";
}
);
layerId = m002;
paths = (
{
closed = 1;
nodes = (
"20 0 LINE",
"230 0 LINE",
"230 191 LINE",
"342 285 LINE",
"581 0 LINE",
"837 0 LINE",
"492 412 LINE",
"851 714 LINE",
"564 714 LINE",
"232 434 LINE",
"230 434 LINE",
"230 714 LINE",
"20 714 LINE"
);
}
);
width = 871;
}
);
leftKerningGroup = H;
leftMetricsKey = N;
rightKerningGroup = K;
rightMetricsKey = A;
unicode = 004B;
},
{
glyphname = L;
lastChange = "2023-08-30 00:25:48 +0000";
layers = (
{
anchors = (
{
name = Bottom;
position = "{327, 0}";
},
{
name = Caron;
position = "{235, 548}";
},
{
name = Top;
position = "{66, 714}";
}
);
layerId = "FD4D3FDD-DE85-408F-A52A-FF600B1C6101";
paths = (
{
closed = 1;
nodes = (
"90 48 LINE",
"90 714 LINE",
"40 714 LINE",
"40 0 LINE",
"568 0 LINE",
"568 48 LINE"
);
}
);
width = 588;
},
{
anchors = (
{
name = Bottom;
position = "{347, 0}";
},
{
name = Caron;
position = "{345, 548}";
},
{
name = Top;
position = "{126, 714}";
}
);
layerId = m002;
paths = (
{
closed = 1;
nodes = (
"230 168 LINE",
"230 714 LINE",
"20 714 LINE",
"20 0 LINE",
"658 0 LINE",
"658 168 LINE"
);
}
);
width = 678;
}
);
leftKerningGroup = H;
leftMetricsKey = N;
rightKerningGroup = L;
rightMetricsKey = A;
unicode = 004C;
},
{
color = 10;
glyphname = Lbar;
lastChange = "2023-08-30 18:50:03 +0000";
layers = (
{
layerId = "FD4D3FDD-DE85-408F-A52A-FF600B1C6101";
paths = (
{
closed = 1;
nodes = (
"140 48 LINE",
"140 341 LINE",
"241 341 LINE",
"241 383 LINE",
"140 383 LINE",
"140 714 LINE",
"90 714 LINE",
"90 381 LINE",
"40 386 LINE",
"40 341 LINE",
"90 341 LINE",
"90 0 LINE",
"618 0 LINE",
"618 48 LINE"
);
}
);
width = 638;
},
{
layerId = m002;
paths = (
{
closed = 1;
nodes = (
"277 168 LINE",
"277 299 LINE",
"382 299 LINE",
"382 419 LINE",
"277 419 LINE",
"277 714 LINE",
"67 714 LINE",
"67 417 LINE",
"20 422 LINE",
"20 299 LINE",
"67 299 LINE",
"67 0 LINE",
"705 0 LINE",
"705 168 LINE"
);
}
);
width = 725;
}
);
leftKerningGroup = H;
leftMetricsKey = L;
rightKerningGroup = L;
rightMetricsKey = L;
unicode = 023D;
},
{
color = 10;
glyphname = Lmiddletilde;
lastChange = "2023-08-30 18:50:03 +0000";
layers = (
{
layerId = "FD4D3FDD-DE85-408F-A52A-FF600B1C6101";
paths = (
{
closed = 1;
nodes = (
"214 48 LINE",
"214 339 LINE",
"226 335 OFFCURVE",
"238 333 OFFCURVE",
"252 333 CURVE SMOOTH",
"301 333 OFFCURVE",
"334 365 OFFCURVE",
"334 414 CURVE",
"286 414 LINE",
"286 391 OFFCURVE",
"272 376 OFFCURVE",
"252 376 CURVE SMOOTH",
"238 376 OFFCURVE",
"226 379 OFFCURVE",
"214 384 CURVE",
"214 714 LINE",
"164 714 LINE",
"164 405 LINE",
"151 410 OFFCURVE",
"137 413 OFFCURVE",
"122 413 CURVE SMOOTH",
"73 413 OFFCURVE",
"40 381 OFFCURVE",
"40 332 CURVE",
"88 332 LINE",
"88 355 OFFCURVE",
"102 370 OFFCURVE",
"122 370 CURVE SMOOTH",
"136 370 OFFCURVE",
"150 366 OFFCURVE",
"164 360 CURVE",
"164 0 LINE",
"692 0 LINE",
"692 48 LINE"
);
}
);
width = 712;
},
{
layerId = m002;
paths = (
{
closed = 1;
nodes = (
"365 168 LINE",
"365 308 LINE",
"373 311 OFFCURVE",
"379 308 OFFCURVE",
"391 308 CURVE SMOOTH",
"457 308 OFFCURVE",
"501 355 OFFCURVE",
"501 426 CURVE",
"396 426 LINE",
"396 414 OFFCURVE",
"387 406 OFFCURVE",
"373 406 CURVE SMOOTH",
"370 406 OFFCURVE",
"367 406 OFFCURVE",
"365 406 CURVE",
"365 714 LINE",
"155 714 LINE",
"155 429 LINE",
"147 428 OFFCURVE",
"143 429 OFFCURVE",
"132 430 CURVE SMOOTH",
"65 437 OFFCURVE",
"20 383 OFFCURVE",
"20 312 CURVE",
"125 312 LINE",
"125 325 OFFCURVE",
"134 333 OFFCURVE",
"148 333 CURVE SMOOTH",
"151 333 OFFCURVE",
"153 333 OFFCURVE",
"155 333 CURVE",
"155 0 LINE",
"793 0 LINE",
"793 168 LINE"
);
}
);
width = 813;
}
);
leftKerningGroup = H;
leftMetricsKey = L;
rightKerningGroup = L;
rightMetricsKey = L;
unicode = 2C62;
},
{
color = 10;
glyphname = Lslash;
lastChange = "2023-08-30 01:22:54 +0000";
layers = (
{
layerId = "FD4D3FDD-DE85-408F-A52A-FF600B1C6101";
paths = (
{
closed = 1;
nodes = (
"161 48 LINE",
"161 404 LINE",
"288 479 LINE",
"288 537 LINE",
"161 462 LINE",
"161 714 LINE",
"111 714 LINE",
"111 432 LINE",
"40 390 LINE",
"40 332 LINE",
"111 374 LINE",
"111 0 LINE",
"639 0 LINE",
"639 48 LINE"
);
}
);
width = 659;
},
{
layerId = m002;
paths = (
{
closed = 1;
nodes = (
"303 168 LINE",
"303 418 LINE",
"388 476 LINE",
"388 612 LINE",
"303 555 LINE",
"303 714 LINE",
"93 714 LINE",
"93 413.997 LINE",
"20 365 LINE",
"20 227 LINE",
"93 276 LINE",
"93 0 LINE",
"731 0 LINE",
"731 168 LINE"
);
}
);
width = 751;
}
);
leftKerningGroup = H;
leftMetricsKey = N;
rightKerningGroup = L;
rightMetricsKey = A;
unicode = 0141;
},
{
glyphname = M;
lastChange = "2023-08-30 00:25:48 +0000";
layers = (
{
anchors = (
{
name = Bottom;
position = "{430, 0}";
}
);
layerId = "FD4D3FDD-DE85-408F-A52A-FF600B1C6101";
paths = (
{
closed = 1;
nodes = (
"40 0 LINE",
"90 0 LINE",
"90 613 LINE",
"92 613 LINE",
"406 0 LINE",
"454 0 LINE",
"768 613 LINE",
"770 613 LINE",
"770 0 LINE",
"820 0 LINE",
"820 714 LINE",
"763 714 LINE",
"431 69 LINE",
"429 69 LINE",
"97 714 LINE",
"40 714 LINE"
);
}
);
width = 860;
},
{
anchors = (
{
name = Bottom;
position = "{474, 0}";
}
);
layerId = m002;
paths = (
{
closed = 1;
nodes = (
"20 0 LINE",
"230 0 LINE",
"230 323 LINE",
"232 323 LINE",
"410 0 LINE",
"538 0 LINE",
"716 323 LINE",
"718 323 LINE",
"718 0 LINE",
"928 0 LINE",
"928 714 LINE",
"711 714 LINE",
"475 259 LINE",
"473 259 LINE",
"237 714 LINE",
"20 714 LINE"
);
}
);
width = 948;
}
);
leftKerningGroup = H;
leftMetricsKey = N;
rightKerningGroup = H;
rightMetricsKey = N;
unicode = 004D;
},
{
glyphname = N;
lastChange = "2023-08-30 00:25:48 +0000";
layers = (
{
anchors = (
{
name = Bottom;
position = "{352, 0}";
},
{
name = Top;
position = "{352, 714}";
}
);
layerId = "FD4D3FDD-DE85-408F-A52A-FF600B1C6101";
paths = (
{
closed = 1;
nodes = (
"40 714 LINE",
"40 0 LINE",
"90 0 LINE",
"90 631 LINE",
"92 631 LINE",
"614 0 LINE",
"664 0 LINE",
"664 714 LINE",
"614 714 LINE",
"614 83 LINE",
"612 83 LINE",
"90 714 LINE"
);
}
);
width = 704;
},
{
anchors = (
{
name = Bottom;
position = "{381, 0}";
},
{
name = Top;
position = "{386, 714}";
}
);
layerId = m002;
paths = (
{
closed = 1;
nodes = (
"20 714 LINE",
"20 0 LINE",
"230 0 LINE",
"230 404 LINE",
"232 404 LINE",
"574 0 LINE",
"784 0 LINE",
"784 714 LINE",
"574 714 LINE",
"574 310 LINE",
"572 310 LINE",
"230 714 LINE"
);
}
);
width = 804;
}
);
leftKerningGroup = H;
rightKerningGroup = H;
unicode = 004E;
},
{
color = 10;
glyphname = Eng;
lastChange = "2023-08-30 01:32:49 +0000";
layers = (
{
layerId = "FD4D3FDD-DE85-408F-A52A-FF600B1C6101";
paths = (
{
closed = 1;
nodes = (
"40 714 LINE",
"40 0 LINE",
"90 0 LINE",
"90 631 LINE",
"92 631 LINE",
"614 0 LINE",
"614 -120 OFFCURVE",
"538 -186 OFFCURVE",
"409 -186 CURVE SMOOTH",
"374 -186 OFFCURVE",
"344 -181 OFFCURVE",
"327 -172 CURVE",
"327 -220 LINE",
"345 -228 OFFCURVE",
"375 -233 OFFCURVE",
"408 -233 CURVE SMOOTH",
"569 -233 OFFCURVE",
"664 -149 OFFCURVE",
"664 -8 CURVE SMOOTH",
"664 714 LINE",
"614 714 LINE",
"614 83 LINE",
"612 83 LINE",
"90 714 LINE"
);
}
);
width = 704;
},
{
layerId = m002;
paths = (
{
closed = 1;
nodes = (
"20 714 LINE",
"20 0 LINE",
"230 0 LINE",
"230 404 LINE",
"232 404 LINE",
"561 16 LINE",
"539 -29 OFFCURVE",
"491 -57 OFFCURVE",
"429 -57 CURVE SMOOTH",
"406 -57 OFFCURVE",
"377 -51 OFFCURVE",
"357 -42 CURVE",
"357 -220 LINE",
"375 -228 OFFCURVE",
"409 -233 OFFCURVE",
"444 -233 CURVE SMOOTH",
"638 -233 OFFCURVE",
"771 -141 OFFCURVE",
"783 0 CURVE",
"784 714 LINE",
"574 714 LINE",
"574 300 LINE",
"572 300 LINE",
"230 714 LINE"
);
}
);
width = 804;
}
);
leftKerningGroup = N;
leftMetricsKey = N;
rightKerningGroup = N;
rightMetricsKey = N;
unicode = 014A;
},
{
glyphname = O;
lastChange = "2023-08-30 19:47:59 +0000";
layers = (
{
anchors = (
{
name = Bottom;
position = "{417, 0}";
},
{
name = Greek;
position = "{-13, 558}";
},
{
name = Top;
position = "{416, 726}";
}
);
layerId = "FD4D3FDD-DE85-408F-A52A-FF600B1C6101";
paths = (
{
closed = 1;
nodes = (
"648 -13 OFFCURVE",
"803 135 OFFCURVE",
"803 356 CURVE SMOOTH",
"803 578 OFFCURVE",
"648 726 OFFCURVE",
"416 726 CURVE SMOOTH",
"184 726 OFFCURVE",
"30 578 OFFCURVE",
"30 356 CURVE SMOOTH",
"30 135 OFFCURVE",
"184 -13 OFFCURVE",
"416 -13 CURVE SMOOTH"
);
},
{
closed = 1;
nodes = (
"80 549 OFFCURVE",
"214 677 OFFCURVE",
"416 677 CURVE SMOOTH",
"618 677 OFFCURVE",
"753 549 OFFCURVE",
"753 356 CURVE SMOOTH",
"753 163 OFFCURVE",
"618 35 OFFCURVE",
"416 35 CURVE SMOOTH",
"214 35 OFFCURVE",
"80 163 OFFCURVE",
"80 356 CURVE SMOOTH"
);
}
);
width = 833;
},
{
anchors = (
{
name = Bottom;
position = "{429, 0}";
},
{
name = Greek;
position = "{-63, 558}";
},
{
name = Top;
position = "{429, 726}";
}
);
layerId = m002;
paths = (
{
closed = 1;
nodes = (
"691 -13 OFFCURVE",
"847 124 OFFCURVE",
"847 356 CURVE SMOOTH",
"847 589 OFFCURVE",
"691 726 OFFCURVE",
"428 726 CURVE SMOOTH",
"165 726 OFFCURVE",
"10 589 OFFCURVE",
"10 356 CURVE SMOOTH",
"10 124 OFFCURVE",
"165 -13 OFFCURVE",
"428 -13 CURVE SMOOTH"
);
},
{
closed = 1;
nodes = (
"230 483 OFFCURVE",
"304 558 OFFCURVE",
"428 558 CURVE SMOOTH",
"553 558 OFFCURVE",
"627 483 OFFCURVE",
"627 356 CURVE SMOOTH",
"627 230 OFFCURVE",
"553 155 OFFCURVE",
"428 155 CURVE SMOOTH",
"304 155 OFFCURVE",
"230 230 OFFCURVE",
"230 356 CURVE SMOOTH"
);
}
);
width = 857;
}
);
leftKerningGroup = O;
rightKerningGroup = O;
unicode = 004F;
},
{
color = 10;
glyphname = Oopen;
lastChange = "2023-08-30 01:34:35 +0000";
layers = (
{
layerId = "FD4D3FDD-DE85-408F-A52A-FF600B1C6101";
paths = (
{
closed = 1;
nodes = (
"30 607 LINE",
"80 650 OFFCURVE",
"176 678 OFFCURVE",
"271 678 CURVE SMOOTH",
"445 678 OFFCURVE",
"561 550 OFFCURVE",
"561 357 CURVE SMOOTH",
"561 164 OFFCURVE",
"443 35 OFFCURVE",
"265 35 CURVE SMOOTH",
"169 35 OFFCURVE",
"75 63 OFFCURVE",
"30 105 CURVE",
"30 49 LINE",
"72 12 OFFCURVE",
"166 -13 OFFCURVE",
"265 -13 CURVE SMOOTH",
"473 -13 OFFCURVE",
"611 135 OFFCURVE",
"611 357 CURVE SMOOTH",
"611 578 OFFCURVE",
"471 726 OFFCURVE",
"261 726 CURVE SMOOTH",
"172 726 OFFCURVE",
"80 702 OFFCURVE",
"30 666 CURVE"
);
}
);
width = 641;
},
{
layerId = m002;
paths = (
{
closed = 1;
nodes = (
"10 506 LINE",
"67 539 OFFCURVE",
"140 558 OFFCURVE",
"204 558 CURVE SMOOTH",
"330 558 OFFCURVE",
"405 483 OFFCURVE",
"405 357 CURVE SMOOTH",
"405 230 OFFCURVE",
"333 155 OFFCURVE",
"211 155 CURVE SMOOTH",
"133 155 OFFCURVE",
"58 174 OFFCURVE",
"10 206 CURVE",
"10 8 LINE",
"60 -5 OFFCURVE",
"134 -13 OFFCURVE",
"210 -13 CURVE SMOOTH",
"471 -13 OFFCURVE",
"625 124 OFFCURVE",
"625 357 CURVE SMOOTH",
"625 589 OFFCURVE",
"470 726 OFFCURVE",
"209 726 CURVE SMOOTH",
"144 726 OFFCURVE",
"70 717 OFFCURVE",
"10 703 CURVE"
);
}
);
width = 635;
}
);
leftKerningGroup = O;
leftMetricsKey = O;
rightKerningGroup = O;
rightMetricsKey = O;
unicode = 0186;
},
{
color = 10;
glyphname = Oslash;
lastChange = "2023-08-30 00:46:06 +0000";
layers = (
{
anchors = (
{
name = Top;
position = "{416, 726}";
}
);
layerId = "FD4D3FDD-DE85-408F-A52A-FF600B1C6101";
paths = (
{
closed = 1;
nodes = (
"648 -13 OFFCURVE",
"803 135 OFFCURVE",
"803 356 CURVE SMOOTH",
"803 524 OFFCURVE",
"714 649 OFFCURVE",
"571 701 CURVE",
"599 778 LINE",
"541 778 LINE",
"518 716 LINE",
"486 722 OFFCURVE",
"452 726 OFFCURVE",
"416 726 CURVE SMOOTH",
"184 726 OFFCURVE",
"30 578 OFFCURVE",
"30 356 CURVE SMOOTH",
"30 188 OFFCURVE",
"119 63 OFFCURVE",
"263 12 CURVE",
"235 -64 LINE",
"293 -64 LINE",
"315 -3 LINE",
"347 -10 OFFCURVE",
"380 -13 OFFCURVE",
"416 -13 CURVE SMOOTH"
);
},
{
closed = 1;
nodes = (
"80 549 OFFCURVE",
"214 677 OFFCURVE",
"416 677 CURVE SMOOTH",
"446 677 OFFCURVE",
"474 674 OFFCURVE",
"501 669 CURVE",
"279 58 LINE",
"156 103 OFFCURVE",
"80 211 OFFCURVE",
"80 356 CURVE SMOOTH"
);
},
{
closed = 1;
nodes = (
"554 654 LINE",
"677 609 OFFCURVE",
"753 501 OFFCURVE",
"753 356 CURVE SMOOTH",
"753 163 OFFCURVE",
"618 35 OFFCURVE",
"416 35 CURVE SMOOTH",
"386 35 OFFCURVE",
"358 38 OFFCURVE",
"332 43 CURVE"
);
}
);
width = 833;
},
{
anchors = (
{
name = Top;
position = "{429, 726}";
}
);
layerId = m002;
paths = (
{
closed = 1;
nodes = (
"691 -13 OFFCURVE",
"847 124 OFFCURVE",
"847 356 CURVE SMOOTH",
"847 518 OFFCURVE",
"772 633 OFFCURVE",
"638 689 CURVE",
"670 778 LINE",
"494 778 LINE",
"475 725 LINE",
"459 725 OFFCURVE",
"444 726 OFFCURVE",
"428 726 CURVE SMOOTH",
"165 726 OFFCURVE",
"10 589 OFFCURVE",
"10 356 CURVE SMOOTH",
"10 194 OFFCURVE",
"85 79 OFFCURVE",
"220 24 CURVE",
"188 -64 LINE",
"364 -64 LINE",
"383 -12 LINE",
"398 -13 OFFCURVE",
"413 -13 OFFCURVE",
"428 -13 CURVE SMOOTH"
);
},
{
closed = 1;
nodes = (
"230 477 OFFCURVE",
"309 558 OFFCURVE",
"412 558 CURVE SMOOTH",
"413 558 OFFCURVE",
"413 558 OFFCURVE",
"414 558 CURVE",
"286 205 LINE",
"250 240 OFFCURVE",
"230 291.009 OFFCURVE",
"230 356 CURVE SMOOTH"
);
},
{
closed = 1;
nodes = (
"572 507 LINE",
"608 473 OFFCURVE",
"627 421 OFFCURVE",
"627 356 CURVE SMOOTH",
"627 235 OFFCURVE",
"544 155 OFFCURVE",
"445 155 CURVE SMOOTH",
"445 155 OFFCURVE",
"444 155 OFFCURVE",
"444 155 CURVE"
);
}
);
width = 857;
}
);
leftKerningGroup = O;
leftMetricsKey = O;
rightKerningGroup = O;
rightMetricsKey = O;
unicode = 00D8;
},
{
color = 10;
glyphname = OE;
lastChange = "2023-08-30 00:46:15 +0000";
layers = (
{
layerId = "FD4D3FDD-DE85-408F-A52A-FF600B1C6101";
paths = (
{
closed = 1;
nodes = (
"614 392 LINE",
"614 666 LINE",
"1105 666 LINE",
"1105 714 LINE",
"370 714 LINE SMOOTH",
"166 714 OFFCURVE",
"30 571 OFFCURVE",
"30 357 CURVE SMOOTH",
"30 143 OFFCURVE",
"166 0 OFFCURVE",
"370 0 CURVE SMOOTH",
"1105 0 LINE",
"1105 48 LINE",
"614 48 LINE",
"614 344 LINE",
"1084 344 LINE",
"1084 392 LINE"
);
},
{
closed = 1;
nodes = (
"80 542 OFFCURVE",
"196 666 OFFCURVE",
"370 666 CURVE SMOOTH",
"564 666 LINE",
"564 48 LINE",
"370 48 LINE SMOOTH",
"196 48 OFFCURVE",
"80 171 OFFCURVE",
"80 356 CURVE SMOOTH"
);
}
);
width = 1145;
},
{
layerId = m002;
paths = (
{
closed = 1;
nodes = (
"734 452 LINE",
"734 546 LINE",
"1180 546 LINE",
"1180 714 LINE",
"405 714 LINE SMOOTH",
"168 714 OFFCURVE",
"10 571 OFFCURVE",
"10 357 CURVE SMOOTH",
"10 143 OFFCURVE",
"168 0 OFFCURVE",
"405 0 CURVE SMOOTH",
"1180 0 LINE",
"1180 168 LINE",
"734 168 LINE",
"734 284 LINE",
"1159 284 LINE",
"1159 452 LINE"
);
},
{
closed = 1;
nodes = (
"230 470 OFFCURVE",
"300 546 OFFCURVE",
"405 546 CURVE SMOOTH",
"524 546 LINE",
"524 168 LINE",
"405 168 LINE SMOOTH",
"300 168 OFFCURVE",
"230 244 OFFCURVE",
"230 357 CURVE SMOOTH"
);
}
);
width = 1200;
}
);
leftKerningGroup = O;
leftMetricsKey = O;
rightKerningGroup = E;
rightMetricsKey = E;
unicode = 0152;
},
{
glyphname = P;
lastChange = "2023-08-30 00:25:48 +0000";
layers = (
{
anchors = (
{
name = Bottom;
position = "{234, 0}";
},
{
name = Top;
position = "{260, 714}";
}
);
layerId = "FD4D3FDD-DE85-408F-A52A-FF600B1C6101";
paths = (
{
closed = 1;
nodes = (
"90 291 LINE",
"438 291 LINE SMOOTH",
"566 291 OFFCURVE",
"652 376 OFFCURVE",
"652 503 CURVE SMOOTH",
"652 630 OFFCURVE",
"562 714 OFFCURVE",
"427 714 CURVE SMOOTH",
"40 714 LINE",
"40 0 LINE",
"90 0 LINE"
);
},
{
closed = 1;
nodes = (
"90 666 LINE",
"427 666 LINE SMOOTH",
"532 666 OFFCURVE",
"602 601 OFFCURVE",
"602 503 CURVE SMOOTH",
"602 404 OFFCURVE",
"536 338 OFFCURVE",
"438 338 CURVE SMOOTH",
"90 338 LINE"
);
}
);
width = 682;
},
{
anchors = (
{
name = Bottom;
position = "{274, 0}";
},
{
name = Top;
position = "{310, 714}";
}
);
layerId = m002;
paths = (
{
closed = 1;
nodes = (
"230 221 LINE",
"458 221 LINE SMOOTH",
"634 221 OFFCURVE",
"752 320 OFFCURVE",
"752 468 CURVE SMOOTH",
"752 616 OFFCURVE",
"630 714 OFFCURVE",
"447 714 CURVE SMOOTH",
"20 714 LINE",
"20 0 LINE",
"230 0 LINE"
);
},
{
closed = 1;
nodes = (
"230 546 LINE",
"447 546 LINE SMOOTH",
"504 546 OFFCURVE",
"542 515 OFFCURVE",
"542 468 CURVE SMOOTH",
"542 421 OFFCURVE",
"508 389 OFFCURVE",
"458 389 CURVE SMOOTH",
"230 389 LINE"
);
}
);
width = 762;
}
);
leftKerningGroup = H;
leftMetricsKey = N;
rightKerningGroup = P;
unicode = 0050;
},
{
color = 10;
glyphname = Thorn;
lastChange = "2023-08-30 00:46:22 +0000";
layers = (
{
layerId = "FD4D3FDD-DE85-408F-A52A-FF600B1C6101";
paths = (
{
closed = 1;
nodes = (
"90 151 LINE",
"438 151 LINE SMOOTH",
"566 151 OFFCURVE",
"652 233 OFFCURVE",
"652 355 CURVE SMOOTH",
"652 486 OFFCURVE",
"562 574 OFFCURVE",
"427 574 CURVE SMOOTH",
"90 574 LINE",
"90 714 LINE",
"40 714 LINE",
"40 0 LINE",
"90 0 LINE"
);
},
{
closed = 1;
nodes = (
"90 526 LINE",
"427 526 LINE SMOOTH",
"532 526 OFFCURVE",
"602 458 OFFCURVE",
"602 357 CURVE SMOOTH",
"602 262 OFFCURVE",
"536 198 OFFCURVE",
"438 198 CURVE SMOOTH",
"90 198 LINE"
);
}
);
width = 682;
},
{
layerId = m002;
paths = (
{
closed = 1;
nodes = (
"230 111 LINE",
"458 111 LINE SMOOTH",
"634 111 OFFCURVE",
"752 210 OFFCURVE",
"752 358 CURVE SMOOTH",
"752 506 OFFCURVE",
"630 604 OFFCURVE",
"447 604 CURVE SMOOTH",
"230 604 LINE",
"230 714 LINE",
"20 714 LINE",
"20 0 LINE",
"230 0 LINE"
);
},
{
closed = 1;
nodes = (
"230 436 LINE",
"447 436 LINE SMOOTH",
"504 436 OFFCURVE",
"542 405 OFFCURVE",
"542 358 CURVE SMOOTH",
"542 311 OFFCURVE",
"508 279 OFFCURVE",
"458 279 CURVE SMOOTH",
"230 279 LINE"
);
}
);
width = 762;
}
);
leftKerningGroup = H;
leftMetricsKey = P;
rightKerningGroup = P;
rightMetricsKey = P;
unicode = 00DE;
},
{
glyphname = Q;
lastChange = "2023-08-30 00:25:48 +0000";
layers = (
{
layerId = "FD4D3FDD-DE85-408F-A52A-FF600B1C6101";
paths = (
{
closed = 1;
nodes = (
"474 -13 OFFCURVE",
"526 -4 OFFCURVE",
"573 13 CURVE",
"612 -54 LINE",
"655 -29 LINE",
"619 33 LINE",
"734 93 OFFCURVE",
"803 208 OFFCURVE",
"803 356 CURVE SMOOTH",
"803 578 OFFCURVE",
"648 726 OFFCURVE",
"416 726 CURVE SMOOTH",
"184 726 OFFCURVE",
"30 578 OFFCURVE",
"30 356 CURVE SMOOTH",
"30 135 OFFCURVE",
"184 -13 OFFCURVE",
"416 -13 CURVE SMOOTH"
);
},
{
closed = 1;
nodes = (
"80 549 OFFCURVE",
"214 677 OFFCURVE",
"416 677 CURVE SMOOTH",
"618 677 OFFCURVE",
"753 549 OFFCURVE",
"753 356 CURVE SMOOTH",
"753 228 OFFCURVE",
"693 128 OFFCURVE",
"594 76 CURVE",
"515 213 LINE",
"472 188 LINE",
"548 56 LINE",
"509 42 OFFCURVE",
"464 35 OFFCURVE",
"416 35 CURVE SMOOTH",
"214 35 OFFCURVE",
"80 163 OFFCURVE",
"80 356 CURVE SMOOTH"
);
}
);
width = 833;
},
{
layerId = m002;
paths = (
{
closed = 1;
nodes = (
"465 -13 OFFCURVE",
"500 -10 OFFCURVE",
"533 -5 CURVE",
"579 -84 LINE",
"709 -9 LINE",
"678 44 LINE",
"787 105 OFFCURVE",
"847 212.009 OFFCURVE",
"847 356 CURVE SMOOTH",
"847 589 OFFCURVE",
"691 726 OFFCURVE",
"428 726 CURVE SMOOTH",
"165 726 OFFCURVE",
"10 589 OFFCURVE",
"10 356 CURVE SMOOTH",
"10 124 OFFCURVE",
"165 -13 OFFCURVE",
"428 -13 CURVE SMOOTH"
);
},
{
closed = 1;
nodes = (
"230 483 OFFCURVE",
"304 558 OFFCURVE",
"428 558 CURVE SMOOTH",
"553 558 OFFCURVE",
"627 483 OFFCURVE",
"627 356 CURVE SMOOTH",
"627 297 OFFCURVE",
"611 248 OFFCURVE",
"580 214 CURVE",
"539 285 LINE",
"409 210 LINE",
"441 155 LINE",
"436 155 OFFCURVE",
"432 155 OFFCURVE",
"428 155 CURVE SMOOTH",
"304 155 OFFCURVE",
"230 230 OFFCURVE",
"230 356 CURVE SMOOTH"
);
}
);
width = 857;
}
);
leftKerningGroup = O;
leftMetricsKey = O;
rightKerningGroup = O;
rightMetricsKey = O;
unicode = 0051;
},
{
glyphname = R;
lastChange = "2023-08-30 00:25:48 +0000";
layers = (
{
anchors = (
{
name = Bottom;
position = "{335, 0}";
},
{
name = Top;
position = "{298, 714}";
}
);
layerId = "FD4D3FDD-DE85-408F-A52A-FF600B1C6101";
paths = (
{
closed = 1;
nodes = (
"90 291 LINE",
"456 291 LINE",
"625 0 LINE",
"682 0 LINE",
"510 298 LINE",
"603 320 OFFCURVE",
"662 394 OFFCURVE",
"662 495 CURVE SMOOTH",
"662 626 OFFCURVE",
"572 714 OFFCURVE",
"437 714 CURVE SMOOTH",
"40 714 LINE",
"40 0 LINE",
"90 0 LINE"
);
},
{
closed = 1;
nodes = (
"90 666 LINE",
"437 666 LINE SMOOTH",
"542 666 OFFCURVE",
"612 598 OFFCURVE",
"612 497 CURVE SMOOTH",
"612 402 OFFCURVE",
"546 338 OFFCURVE",
"448 338 CURVE SMOOTH",
"90 338 LINE"
);
}
);
width = 702;
},
{
anchors = (
{
name = Bottom;
position = "{375, 0}";
},
{
name = Top;
position = "{358, 714}";
}
);
layerId = m002;
paths = (
{
closed = 1;
nodes = (
"230 240 LINE",
"418 240 LINE",
"557 0 LINE",
"773 0 LINE",
"619 266 LINE",
"708 304 OFFCURVE",
"762 379 OFFCURVE",
"762 477 CURVE SMOOTH",
"762 619 OFFCURVE",
"644 714 OFFCURVE",
"467 714 CURVE SMOOTH",
"20 714 LINE",
"20 0 LINE",
"230 0 LINE"
);
},
{
closed = 1;
nodes = (
"230 546 LINE",
"467 546 LINE SMOOTH",
"518 546 OFFCURVE",
"552 518 OFFCURVE",
"552 477 CURVE SMOOTH",
"552 436 OFFCURVE",
"522 408 OFFCURVE",
"478 408 CURVE SMOOTH",
"230 408 LINE"
);
}
);
width = 793;
}
);
leftKerningGroup = H;
leftMetricsKey = N;
rightKerningGroup = R;
unicode = 0052;
},
{
glyphname = S;
lastChange = "2023-08-30 19:20:06 +0000";
layers = (
{
anchors = (
{
name = Bottom;
position = "{374, 0}";
},
{
name = Top;
position = "{362, 726}";
}
);
layerId = "FD4D3FDD-DE85-408F-A52A-FF600B1C6101";
paths = (
{
closed = 1;
nodes = (
"175 726 OFFCURVE",
"50 646 OFFCURVE",
"50 527 CURVE SMOOTH",
"50 262 OFFCURVE",
"641 404 OFFCURVE",
"641 189 CURVE SMOOTH",
"641 97 OFFCURVE",
"536 35 OFFCURVE",
"378 35 CURVE SMOOTH",
"193 35 OFFCURVE",
"70 113 OFFCURVE",
"70 231 CURVE",
"20 231 LINE",
"20 85 OFFCURVE",
"162 -13 OFFCURVE",
"374 -13 CURVE SMOOTH",
"564 -13 OFFCURVE",
"691 70 OFFCURVE",
"691 195 CURVE SMOOTH",
"691 454 OFFCURVE",
"100 323 OFFCURVE",
"100 531 CURVE SMOOTH",
"100 619 OFFCURVE",
"205 678 OFFCURVE",
"362 678 CURVE SMOOTH",
"523 678 OFFCURVE",
"630 608 OFFCURVE",
"630 504 CURVE",
"680 504 LINE",
"680 637 OFFCURVE",
"553 726 OFFCURVE",
"362 726 CURVE SMOOTH"
);
}
);
width = 711;
},
{
anchors = (
{
name = Bottom;
position = "{418, 0}";
},
{
name = Top;
position = "{407, 726}";
}
);
layerId = m002;
paths = (
{
closed = 1;
nodes = (
"183 726 OFFCURVE",
"50 644 OFFCURVE",
"50 506 CURVE SMOOTH",
"50 188 OFFCURVE",
"571 336 OFFCURVE",
"571 215 CURVE SMOOTH",
"571 177 OFFCURVE",
"515 155 OFFCURVE",
"419 155 CURVE SMOOTH",
"300 155 OFFCURVE",
"230 193 OFFCURVE",
"230 256 CURVE",
"20 256 LINE",
"20 87 OFFCURVE",
"168 -13 OFFCURVE",
"419 -13 CURVE SMOOTH",
"647 -13 OFFCURVE",
"781 72 OFFCURVE",
"781 215 CURVE SMOOTH",
"781 519 OFFCURVE",
"260 406 OFFCURVE",
"260 506 CURVE SMOOTH",
"260 539 OFFCURVE",
"315 558 OFFCURVE",
"407 558 CURVE SMOOTH",
"503 558 OFFCURVE",
"560 529 OFFCURVE",
"560 479 CURVE",
"770 479 LINE",
"770 634 OFFCURVE",
"635 726 OFFCURVE",
"407 726 CURVE SMOOTH"
);
}
);
width = 801;
}
);
leftKerningGroup = S;
rightKerningGroup = S;
unicode = 0053;
},
{
color = 10;
glyphname = Saltillo;
lastChange = "2023-08-30 01:31:05 +0000";
layers = (
{
layerId = "FD4D3FDD-DE85-408F-A52A-FF600B1C6101";
paths = (
{
closed = 1;
nodes = (
"40 409 LINE",
"45 196 LINE",
"85 196 LINE",
"90 409 LINE",
"90 731 LINE",
"40 731 LINE"
);
}
);
width = 130;
},
{
layerId = m002;
paths = (
{
closed = 1;
nodes = (
"20 409 LINE",
"25 196 LINE",
"185 196 LINE",
"190 409 LINE",
"190 731 LINE",
"20 731 LINE"
);
}
);
width = 210;
}
);
leftKerningGroup = H;
leftMetricsKey = N;
rightKerningGroup = H;
rightMetricsKey = N;
unicode = A78B;
},
{
color = 10;
glyphname = Germandbls;
lastChange = "2023-08-30 00:46:26 +0000";
layers = (
{
layerId = "FD4D3FDD-DE85-408F-A52A-FF600B1C6101";
paths = (
{
closed = 1;
nodes = (
"559 -13 OFFCURVE",
"651 79 OFFCURVE",
"651 217 CURVE SMOOTH",
"651 346 OFFCURVE",
"542 433 OFFCURVE",
"376 438 CURVE",
"585 666 LINE",
"585 714 LINE",
"40 714 LINE",
"40 0 LINE",
"90 0 LINE",
"90 666 LINE",
"521 666 LINE",
"320 446 LINE",
"320 398 LINE",
"340 398 LINE SMOOTH",
"497 398 OFFCURVE",
"601 326 OFFCURVE",
"601 217 CURVE SMOOTH",
"601 108 OFFCURVE",
"529 35 OFFCURVE",
"420 35 CURVE",
"420 -13 LINE"
);
}
);
width = 681;
},
{
layerId = m002;
paths = (
{
closed = 1;
nodes = (
"623 -13 OFFCURVE",
"751 79 OFFCURVE",
"751 217 CURVE SMOOTH",
"751 314 OFFCURVE",
"693 388 OFFCURVE",
"597 424 CURVE",
"695 546 LINE",
"695 714 LINE",
"20 714 LINE",
"20 0 LINE",
"230 0 LINE",
"230 546 LINE",
"487 546 LINE",
"380 416 LINE",
"380 278 LINE",
"430 278 LINE SMOOTH",
"491 278 OFFCURVE",
"531 254 OFFCURVE",
"531 217 CURVE SMOOTH",
"531 180 OFFCURVE",
"491 155 OFFCURVE",
"430 155 CURVE",
"430 -13 LINE"
);
}
);
width = 761;
}
);
leftKerningGroup = H;
leftMetricsKey = B;
rightKerningGroup = B;
rightMetricsKey = O;
unicode = 1E9E;
},
{
color = 10;
glyphname = Schwa;
lastChange = "2023-08-30 01:30:18 +0000";
layers = (
{
layerId = "FD4D3FDD-DE85-408F-A52A-FF600B1C6101";
paths = (
{
closed = 1;
nodes = (
"87 492 LINE",
"110 604 OFFCURVE",
"239 678 OFFCURVE",
"410 678 CURVE SMOOTH",
"609 678 OFFCURVE",
"741 552 OFFCURVE",
"741 356 CURVE",
"30 356 LINE",
"30 338 LINE SMOOTH",
"30 127 OFFCURVE",
"177 -13 OFFCURVE",
"398 -13 CURVE SMOOTH",
"634 -13 OFFCURVE",
"791 138 OFFCURVE",
"791 364 CURVE SMOOTH",
"791 581 OFFCURVE",
"639 726 OFFCURVE",
"412 726 CURVE SMOOTH",
"213 726 OFFCURVE",
"63 632 OFFCURVE",
"37 492 CURVE"
);
},
{
closed = 1;
nodes = (
"737 308 LINE",
"714 142 OFFCURVE",
"587 35 OFFCURVE",
"406 35 CURVE SMOOTH",
"210 35 OFFCURVE",
"80 144 OFFCURVE",
"80 308 CURVE"
);
}
);
width = 821;
},
{
layerId = m002;
paths = (
{
closed = 1;
nodes = (
"230 452 LINE",
"243 516 OFFCURVE",
"320 558 OFFCURVE",
"423 558 CURVE SMOOTH",
"533 558 OFFCURVE",
"611 499 OFFCURVE",
"630 408 CURVE",
"13 408 LINE",
"13 328 LINE SMOOTH",
"13 123 OFFCURVE",
"182 -13 OFFCURVE",
"436 -13 CURVE SMOOTH",
"681 -13 OFFCURVE",
"844 138 OFFCURVE",
"844 364 CURVE SMOOTH",
"844 581 OFFCURVE",
"676 726 OFFCURVE",
"425 726 CURVE SMOOTH",
"206 726 OFFCURVE",
"40 616 OFFCURVE",
"10 452 CURVE"
);
},
{
closed = 1;
nodes = (
"610 258 LINE",
"577 194 OFFCURVE",
"513 155 OFFCURVE",
"429 155 CURVE SMOOTH",
"322 155 OFFCURVE",
"248 195 OFFCURVE",
"234.998 258 CURVE"
);
}
);
width = 854;
}
);
leftKerningGroup = O;
leftMetricsKey = O;
rightKerningGroup = O;
rightMetricsKey = O;
unicode = 018F;
},
{
glyphname = T;
lastChange = "2023-09-05 19:22:27 +0000";
layers = (
{
anchors = (
{
name = Bottom;
position = "{350, 0}";
},
{
name = Top;
position = "{350, 714}";
}
);
layerId = "FD4D3FDD-DE85-408F-A52A-FF600B1C6101";
paths = (
{
closed = 1;
nodes = (
"20 714 LINE",
"20 666 LINE",
"325 666 LINE",
"325 0 LINE",
"375 0 LINE",
"375 666 LINE",
"679 666 LINE",
"679 714 LINE"
);
}
);
width = 699;
},
{
anchors = (
{
name = Bottom;
position = "{405, 0}";
},
{
name = Top;
position = "{405, 714}";
}
);
layerId = m002;
paths = (
{
closed = 1;
nodes = (
"10 714 LINE",
"10 546 LINE",
"300 546 LINE",
"300 0 LINE",
"510 0 LINE",
"510 546 LINE",
"799 546 LINE",
"799 714 LINE"
);
}
);
width = 809;
}
);
leftKerningGroup = T;
rightKerningGroup = T;
unicode = 0054;
},
{
color = 10;
glyphname = Tbar;
lastChange = "2023-08-30 01:45:06 +0000";
layers = (
{
layerId = "FD4D3FDD-DE85-408F-A52A-FF600B1C6101";
paths = (
{
closed = 1;
nodes = (
"20 714 LINE",
"20 666 LINE",
"325 666 LINE",
"325 412 LINE",
"130 417 LINE",
"130 372 LINE",
"325 372 LINE",
"325 0 LINE",
"375 0 LINE",
"375 372 LINE",
"569 372 LINE",
"569 414 LINE",
"375 414 LINE",
"375 666 LINE",
"679 666 LINE",
"679 714 LINE"
);
}
);
width = 699;
},
{
layerId = m002;
paths = (
{
closed = 1;
nodes = (
"10 714 LINE",
"10 546 LINE",
"300 546 LINE",
"300 402 LINE",
"141 407 LINE",
"141 284 LINE",
"300 284 LINE",
"300 0 LINE",
"510 0 LINE",
"510 284 LINE",
"669 284 LINE",
"669 404 LINE",
"510 404 LINE",
"510 546 LINE",
"799 546 LINE",
"799 714 LINE"
);
}
);
width = 809;
}
);
leftKerningGroup = T;
leftMetricsKey = T;
rightKerningGroup = T;
rightMetricsKey = T;
unicode = 0166;
},
{
color = 10;
glyphname = Tdiagonalstroke;
lastChange = "2023-08-30 18:50:33 +0000";
layers = (
{
layerId = "FD4D3FDD-DE85-408F-A52A-FF600B1C6101";
paths = (
{
closed = 1;
nodes = (
"561 714 LINE",
"588 772 LINE",
"538 772 LINE",
"511 714 LINE",
"20 714 LINE",
"20 666 LINE",
"325 666 LINE",
"325 311 LINE",
"157 -53 LINE",
"207 -53 LINE",
"325 203 LINE",
"325 0 LINE",
"375 0 LINE",
"375 311 LINE",
"539 666 LINE",
"679 666 LINE",
"679 714 LINE"
);
},
{
closed = 1;
nodes = (
"375 666 LINE",
"489 666 LINE",
"375 419 LINE"
);
}
);
width = 699;
},
{
layerId = m002;
paths = (
{
closed = 1;
nodes = (
"724 714 LINE",
"750 772 LINE",
"700 772 LINE",
"674 714 LINE",
"10 714 LINE",
"10 546 LINE",
"300 546 LINE",
"300 0 LINE",
"348 0 LINE",
"324 -53 LINE",
"374 -53 LINE",
"398 0 LINE",
"510 0 LINE",
"510 245 LINE",
"646.999 546 LINE",
"799 546 LINE",
"799 714 LINE"
);
},
{
closed = 1;
nodes = (
"510 546 LINE",
"596.999 546 LINE",
"510 355 LINE"
);
}
);
width = 809;
}
);
leftKerningGroup = T;
leftMetricsKey = T;
rightKerningGroup = T;
rightMetricsKey = T;
unicode = 023E;
},
{
glyphname = U;
lastChange = "2023-08-30 19:19:39 +0000";
layers = (
{
anchors = (
{
name = Bottom;
position = "{332, 0}";
},
{
name = Top;
position = "{332, 714}";
}
);
layerId = "FD4D3FDD-DE85-408F-A52A-FF600B1C6101";
paths = (
{
closed = 1;
nodes = (
"20 98 OFFCURVE",
"144 -13 OFFCURVE",
"331 -13 CURVE SMOOTH",
"519 -13 OFFCURVE",
"644 98 OFFCURVE",
"644 265 CURVE SMOOTH",
"644 714 LINE",
"594 714 LINE",
"594 275 LINE SMOOTH",
"594 131 OFFCURVE",
"489 35 OFFCURVE",
"331 35 CURVE SMOOTH",
"174 36 OFFCURVE",
"70 132 OFFCURVE",
"70 275 CURVE SMOOTH",
"70 714 LINE",
"20 714 LINE",
"20 265 LINE SMOOTH"
);
}
);
width = 664;
},
{
anchors = (
{
name = Bottom;
position = "{402, 0}";
},
{
name = Top;
position = "{402, 714}";
}
);
layerId = m002;
paths = (
{
closed = 1;
nodes = (
"20 114 OFFCURVE",
"172 -13 OFFCURVE",
"401 -13 CURVE SMOOTH",
"631 -13 OFFCURVE",
"784 114 OFFCURVE",
"784 305 CURVE SMOOTH",
"784 714 LINE",
"574 714 LINE",
"574 295 LINE SMOOTH",
"574 211 OFFCURVE",
"505 155 OFFCURVE",
"401 155 CURVE SMOOTH",
"298 156 OFFCURVE",
"230 212 OFFCURVE",
"230 295 CURVE SMOOTH",
"230 714 LINE",
"20 714 LINE",
"20 305 LINE SMOOTH"
);
}
);
width = 804;
}
);
leftKerningGroup = U;
rightKerningGroup = U;
unicode = 0055;
},
{
color = 10;
glyphname = "Upsilon-latin";
lastChange = "2023-08-30 01:32:58 +0000";
layers = (
{
layerId = "FD4D3FDD-DE85-408F-A52A-FF600B1C6101";
paths = (
{
closed = 1;
nodes = (
"600 -13 OFFCURVE",
"742 123 OFFCURVE",
"742 327 CURVE SMOOTH",
"742 483 OFFCURVE",
"650 612 OFFCURVE",
"505 666 CURVE",
"731 666 LINE",
"731 714 LINE",
"436 714 LINE",
"436 666 LINE",
"590 614 OFFCURVE",
"692 479 OFFCURVE",
"692 327 CURVE SMOOTH",
"692 152 OFFCURVE",
"570 35 OFFCURVE",
"386 35 CURVE SMOOTH",
"202 35 OFFCURVE",
"80 152 OFFCURVE",
"80 327 CURVE SMOOTH",
"80 479 OFFCURVE",
"182 614 OFFCURVE",
"336 666 CURVE",
"336 714 LINE",
"41 714 LINE",
"41 666 LINE",
"267 666 LINE",
"122 612 OFFCURVE",
"30 483 OFFCURVE",
"30 327 CURVE SMOOTH",
"30 123 OFFCURVE",
"172 -13 OFFCURVE",
"386 -13 CURVE SMOOTH"
);
}
);
width = 772;
},
{
layerId = m002;
paths = (
{
closed = 1;
nodes = (
"677 -13 OFFCURVE",
"827 99 OFFCURVE",
"827 289 CURVE SMOOTH",
"827 404 OFFCURVE",
"763 494 OFFCURVE",
"648 546 CURVE",
"836 546 LINE",
"836 714 LINE",
"473 714 LINE",
"473 546 LINE",
"557 514 OFFCURVE",
"607 446 OFFCURVE",
"607 362 CURVE SMOOTH",
"607 256 OFFCURVE",
"539 194 OFFCURVE",
"423 194 CURVE SMOOTH",
"307 194 OFFCURVE",
"239 256 OFFCURVE",
"239 362 CURVE SMOOTH",
"239 446 OFFCURVE",
"289 514 OFFCURVE",
"373 546 CURVE",
"373 714 LINE",
"10 714 LINE",
"10 546 LINE",
"198 546 LINE",
"83 494 OFFCURVE",
"19 404 OFFCURVE",
"19 289 CURVE SMOOTH",
"19 99 OFFCURVE",
"169 -13 OFFCURVE",
"423 -13 CURVE SMOOTH"
);
}
);
width = 846;
}
);
leftKerningGroup = O;
leftMetricsKey = O;
rightKerningGroup = O;
rightMetricsKey = O;
unicode = 01B1;
},
{
glyphname = V;
lastChange = "2023-09-05 19:32:17 +0000";
layers = (
{
anchors = (
{
name = Bottom;
position = "{377, 0}";
},
{
name = Top;
position = "{377, 714}";
}
);
layerId = "FD4D3FDD-DE85-408F-A52A-FF600B1C6101";
paths = (
{
closed = 1;
nodes = (
"377 98 LINE",
"375 98 LINE",
"73 714 LINE",
"20 714 LINE",
"359 0 LINE",
"393 0 LINE",
"733 714 LINE",
"680 714 LINE"
);
}
);
width = 753;
},
{
anchors = (
{
name = Bottom;
position = "{467, 0}";
},
{
name = Top;
position = "{467, 714}";
}
);
layerId = m002;
paths = (
{
closed = 1;
nodes = (
"467 250 LINE",
"465 250 LINE",
"233 714 LINE",
"20 714 LINE",
"379 0 LINE",
"553 0 LINE",
"913 714 LINE",
"700 714 LINE"
);
}
);
width = 933;
}
);
leftKerningGroup = V;
leftMetricsKey = A;
rightKerningGroup = V;
rightMetricsKey = A;
unicode = 0056;
},
{
color = 10;
glyphname = "Gamma-latin";
lastChange = "2023-08-30 01:32:53 +0000";
layers = (
{
layerId = "FD4D3FDD-DE85-408F-A52A-FF600B1C6101";
paths = (
{
closed = 1;
nodes = (
"393 -13 OFFCURVE",
"463 46 OFFCURVE",
"463 135 CURVE SMOOTH",
"463 187 OFFCURVE",
"443 233 OFFCURVE",
"396 295 CURVE SMOOTH",
"315 402 LINE",
"554 714 LINE",
"495 714 LINE",
"287 439 LINE",
"79 714 LINE",
"20 714 LINE",
"259 402 LINE",
"178 295 LINE SMOOTH",
"131 233 OFFCURVE",
"111 187 OFFCURVE",
"111 135 CURVE SMOOTH",
"111 46 OFFCURVE",
"181 -13 OFFCURVE",
"287 -13 CURVE SMOOTH"
);
},
{
closed = 1;
nodes = (
"161 182 OFFCURVE",
"181 227 OFFCURVE",
"231 292 CURVE SMOOTH",
"287 365 LINE",
"343 292 LINE SMOOTH",
"393 227 OFFCURVE",
"413 182 OFFCURVE",
"413 135 CURVE SMOOTH",
"413 75 OFFCURVE",
"363 35 OFFCURVE",
"287 35 CURVE SMOOTH",
"211 35 OFFCURVE",
"161 75 OFFCURVE",
"161 135 CURVE SMOOTH"
);
}
);
width = 574;
},
{
layerId = m002;
paths = (
{
closed = 1;
nodes = (
"517 -13 OFFCURVE",
"630 78 OFFCURVE",
"630 231 CURVE SMOOTH",
"630 275 OFFCURVE",
"608 324 OFFCURVE",
"572 364 CURVE SMOOTH",
"444 506 LINE",
"617 714 LINE",
"394 714 LINE",
"325 638 LINE",
"256 714 LINE",
"33 714 LINE",
"206 506 LINE",
"78 364 LINE SMOOTH",
"42 324 OFFCURVE",
"20 275 OFFCURVE",
"20 231 CURVE SMOOTH",
"20 78 OFFCURVE",
"133 -13 OFFCURVE",
"325 -13 CURVE SMOOTH"
);
},
{
closed = 1;
nodes = (
"230 238 OFFCURVE",
"243 265 OFFCURVE",
"266 292 CURVE SMOOTH",
"325 363 LINE",
"384 292 LINE SMOOTH",
"407 265 OFFCURVE",
"420 238 OFFCURVE",
"420 218 CURVE SMOOTH",
"420 178 OFFCURVE",
"385 155 OFFCURVE",
"325 155 CURVE SMOOTH",
"265 155 OFFCURVE",
"230 178 OFFCURVE",
"230 218 CURVE SMOOTH"
);
}
);
width = 650;
}
);
leftKerningGroup = V;
leftMetricsKey = V;
rightKerningGroup = V;
rightMetricsKey = V;
unicode = 0194;
},
{
glyphname = W;
lastChange = "2023-08-30 00:25:48 +0000";
layers = (
{
anchors = (
{
name = Bottom;
position = "{498, 0}";
},
{
name = Top;
position = "{499, 714}";
}
);
layerId = "FD4D3FDD-DE85-408F-A52A-FF600B1C6101";
paths = (
{
closed = 1;
nodes = (
"216 0 LINE",
"269 0 LINE",
"499 640 LINE",
"728 0 LINE",
"781 0 LINE",
"977 714 LINE",
"924 714 LINE",
"751 84 LINE",
"525 714 LINE",
"472 714 LINE",
"246 84 LINE",
"73 714 LINE",
"20 714 LINE"
);
}
);
width = 997;
},
{
anchors = (
{
name = Bottom;
position = "{603, 0}";
},
{
name = Top;
position = "{604, 714}";
}
);
layerId = m002;
paths = (
{
closed = 1;
nodes = (
"216 0 LINE",
"446 0 LINE",
"604 450 LINE",
"762 0 LINE",
"992 0 LINE",
"1188 714 LINE",
"968 714 LINE",
"849 280 LINE",
"696 714 LINE",
"511 714 LINE",
"359 280 LINE",
"240 714 LINE",
"20 714 LINE"
);
}
);
width = 1208;
}
);
leftKerningGroup = W;
leftMetricsKey = A;
rightKerningGroup = V;
rightMetricsKey = A;
unicode = 0057;
},
{
glyphname = X;
lastChange = "2023-08-30 00:25:48 +0000";
layers = (
{
anchors = (
{
name = Bottom;
position = "{332, 0}";
},
{
name = Top;
position = "{332, 714}";
}
);
layerId = "FD4D3FDD-DE85-408F-A52A-FF600B1C6101";
paths = (
{
closed = 1;
nodes = (
"373 358 LINE",
"660 714 LINE",
"596 714 LINE",
"341 397 LINE",
"84 714 LINE",
"20 714 LINE",
"308 357 LINE",
"20 0 LINE",
"84 0 LINE",
"340 317 LINE",
"596 0 LINE",
"663 0 LINE"
);
}
);
width = 683;
},
{
anchors = (
{
name = Bottom;
position = "{429, 0}";
},
{
name = Top;
position = "{429, 714}";
}
);
layerId = m002;
paths = (
{
closed = 1;
nodes = (
"572 357 LINE",
"835 714 LINE",
"546 714 LINE",
"428 553 LINE",
"309 714 LINE",
"20 714 LINE",
"283 357 LINE",
"20 0 LINE",
"309 0 LINE",
"428 161 LINE",
"546 0 LINE",
"835 0 LINE"
);
}
);
width = 855;
}
);
leftKerningGroup = X;
leftMetricsKey = A;
rightKerningGroup = X;
rightMetricsKey = A;
unicode = 0058;
},
{
glyphname = Y;
lastChange = "2023-08-30 19:30:56 +0000";
layers = (
{
anchors = (
{
name = Bottom;
position = "{344, 0}";
},
{
name = Top;
position = "{344, 714}";
}
);
layerId = "FD4D3FDD-DE85-408F-A52A-FF600B1C6101";
paths = (
{
closed = 1;
nodes = (
"319 0 LINE",
"369 0 LINE",
"369 273 LINE",
"667 714 LINE",
"609 714 LINE",
"345 326 LINE",
"343 326 LINE",
"78 714 LINE",
"20 714 LINE",
"319 273 LINE"
);
}
);
width = 687;
},
{
anchors = (
{
name = Bottom;
position = "{434, 0}";
},
{
name = Top;
position = "{434, 714}";
}
);
layerId = m002;
paths = (
{
closed = 1;
nodes = (
"329 0 LINE",
"539 0 LINE",
"539 273 LINE",
"848 714 LINE",
"622 714 LINE",
"435 442 LINE",
"433 442 LINE",
"246 714 LINE",
"20 714 LINE",
"329 273 LINE"
);
}
);
width = 868;
}
);
leftKerningGroup = V;
leftMetricsKey = A;
rightKerningGroup = V;
rightMetricsKey = A;
unicode = 0059;
},
{
glyphname = Z;
lastChange = "2023-08-30 00:25:48 +0000";
layers = (
{
anchors = (
{
name = Bottom;
position = "{336, 0}";
},
{
name = Top;
position = "{350, 714}";
}
);
layerId = "FD4D3FDD-DE85-408F-A52A-FF600B1C6101";
paths = (
{
closed = 1;
nodes = (
"21 714 LINE",
"21 664 LINE",
"566 664 LINE",
"10 50 LINE",
"10 0 LINE",
"639 0 LINE",
"639 50 LINE",
"82 50 LINE",
"638 664 LINE",
"638 714 LINE"
);
}
);
width = 649;
},
{
anchors = (
{
name = Bottom;
position = "{386, 0}";
},
{
name = Top;
position = "{410, 714}";
}
);
layerId = m002;
paths = (
{
closed = 1;
nodes = (
"31 714 LINE",
"31 546 LINE",
"489 546 LINE",
"20 168 LINE",
"20 0 LINE",
"749 0 LINE",
"749 168 LINE",
"279 168 LINE",
"748 546 LINE",
"748 714 LINE"
);
}
);
width = 769;
}
);
leftKerningGroup = Z;
rightKerningGroup = Z;
unicode = 005A;
},
{
color = 10;
glyphname = Ismall;
lastChange = "2023-08-30 02:02:39 +0000";
layers = (
{
layerId = "FD4D3FDD-DE85-408F-A52A-FF600B1C6101";
paths = (
{
closed = 1;
nodes = (
"40 520 LINE",
"40 478 LINE",
"204 478 LINE",
"204 42 LINE",
"40 42 LINE",
"40 0 LINE",
"415 0 LINE",
"415 42 LINE",
"252 42 LINE",
"252 478 LINE",
"415 478 LINE",
"415 520 LINE"
);
}
);
width = 455;
},
{
layerId = m002;
paths = (
{
closed = 1;
nodes = (
"20 520 LINE",
"20 370 LINE",
"179 370 LINE",
"179 150 LINE",
"20 150 LINE",
"20 0 LINE",
"495 0 LINE",
"495 150 LINE",
"337 150 LINE",
"337 370 LINE",
"495 370 LINE",
"495 520 LINE"
);
}
);
width = 515;
}
);
leftKerningGroup = i;
leftMetricsKey = I;
rightKerningGroup = i;
rightMetricsKey = I;
unicode = 026A;
},
{
glyphname = a;
lastChange = "2023-09-05 19:28:53 +0000";
layers = (
{
anchors = (
{
name = Bottom;
position = "{231, 0}";
},
{
name = Ogonek;
position = "{462, 0}";
},
{
name = Top;
position = "{276, 532}";
}
);
background = {
paths = (
{
closed = 1;
nodes = (
"510 297 LINE",
"390 297 LINE SMOOTH",
"246 297 OFFCURVE",
"161 236 OFFCURVE",
"161 132 CURVE SMOOTH",
"161 45 OFFCURVE",
"229 -13 OFFCURVE",
"331 -13 CURVE SMOOTH",
"415 -13 OFFCURVE",
"482 25 OFFCURVE",
"510 88 CURVE",
"512 88 LINE",
"520 0 LINE",
"558 0 LINE",
"558 364 LINE SMOOTH",
"558 470 OFFCURVE",
"494 532 OFFCURVE",
"385 532 CURVE SMOOTH",
"264 532 OFFCURVE",
"192 476 OFFCURVE",
"192 382 CURVE",
"240 382 LINE",
"240 450 OFFCURVE",
"293 490 OFFCURVE",
"383 490 CURVE SMOOTH",
"463 490 OFFCURVE",
"510 446 OFFCURVE",
"510 372 CURVE SMOOTH"
);
},
{
closed = 1;
nodes = (
"213 214 OFFCURVE",
"275 257 OFFCURVE",
"395 257 CURVE SMOOTH",
"509 257 LINE",
"509 212 LINE SMOOTH",
"509 96 OFFCURVE",
"443 28 OFFCURVE",
"331 28 CURVE SMOOTH",
"260 28 OFFCURVE",
"213 69 OFFCURVE",
"213 131 CURVE SMOOTH"
);
},
{
closed = 1;
nodes = (
"490 90 LINE",
"490 45 OFFCURVE",
"503 25 QCURVE SMOOTH",
"519 0 OFFCURVE",
"564 0 QCURVE SMOOTH",
"586 0 OFFCURVE",
"605 4 QCURVE",
"605 57 LINE",
"595 53 OFFCURVE",
"585 53 QCURVE SMOOTH",
"548 53 OFFCURVE",
"548 91 QCURVE"
);
}
);
};
layerId = "FD4D3FDD-DE85-408F-A52A-FF600B1C6101";
paths = (
{
closed = 1;
nodes = (
"313 -13 OFFCURVE",
"406 23 OFFCURVE",
"447 91 CURVE",
"449 91 LINE",
"434 0 LINE",
"497 0 LINE",
"497 380 LINE SMOOTH",
"497 471 OFFCURVE",
"409 532 OFFCURVE",
"278 532 CURVE SMOOTH",
"137 532 OFFCURVE",
"43 472 OFFCURVE",
"43 382 CURVE",
"91 382 LINE",
"91 447 OFFCURVE",
"166 490 OFFCURVE",
"278 490 CURVE SMOOTH",
"381 490 OFFCURVE",
"449 448 OFFCURVE",
"449 384 CURVE SMOOTH",
"449 324 OFFCURVE",
"357 305 OFFCURVE",
"282 289 CURVE SMOOTH",
"147 260 OFFCURVE",
"30 239 OFFCURVE",
"30 127 CURVE SMOOTH",
"30 43 OFFCURVE",
"108 -13 OFFCURVE",
"229 -13 CURVE SMOOTH"
);
},
{
closed = 1;
nodes = (
"78 210 OFFCURVE",
"176 221 OFFCURVE",
"279 244 CURVE SMOOTH",
"339 257 OFFCURVE",
"423 277 OFFCURVE",
"448 305 CURVE",
"448 232 LINE SMOOTH",
"448 110 OFFCURVE",
"351 29 OFFCURVE",
"232 29 CURVE SMOOTH",
"138 29 OFFCURVE",
"78 68 OFFCURVE",
"78 126 CURVE SMOOTH"
);
}
);
width = 537;
},
{
anchors = (
{
name = Bottom;
position = "{253, 0}";
},
{
name = Ogonek;
position = "{545, 0}";
},
{
name = Top;
position = "{338, 532}";
}
);
background = {
paths = (
{
closed = 1;
nodes = (
"454 297 LINE",
"334 297 LINE SMOOTH",
"190 297 OFFCURVE",
"105 236 OFFCURVE",
"105 132 CURVE SMOOTH",
"105 45 OFFCURVE",
"173 -13 OFFCURVE",
"275 -13 CURVE SMOOTH",
"359 -13 OFFCURVE",
"426 25 OFFCURVE",
"454 88 CURVE",
"456 88 LINE",
"464 0 LINE",
"502 0 LINE",
"502 364 LINE SMOOTH",
"502 470 OFFCURVE",
"438 532 OFFCURVE",
"329 532 CURVE SMOOTH",
"208 532 OFFCURVE",
"136 476 OFFCURVE",
"136 382 CURVE",
"184 382 LINE",
"184 450 OFFCURVE",
"237 490 OFFCURVE",
"327 490 CURVE SMOOTH",
"407 490 OFFCURVE",
"454 446 OFFCURVE",
"454 372 CURVE SMOOTH"
);
},
{
closed = 1;
nodes = (
"157 214 OFFCURVE",
"219 257 OFFCURVE",
"339 257 CURVE SMOOTH",
"453 257 LINE",
"453 212 LINE SMOOTH",
"453 96 OFFCURVE",
"387 28 OFFCURVE",
"275 28 CURVE SMOOTH",
"204 28 OFFCURVE",
"157 69 OFFCURVE",
"157 131 CURVE SMOOTH"
);
},
{
closed = 1;
nodes = (
"434 90 LINE",
"434 45 OFFCURVE",
"447 25 QCURVE SMOOTH",
"463 0 OFFCURVE",
"508 0 QCURVE SMOOTH",
"530 0 OFFCURVE",
"549 4 QCURVE",
"549 57 LINE",
"539 53 OFFCURVE",
"529 53 QCURVE SMOOTH",
"492 53 OFFCURVE",
"492 91 QCURVE"
);
}
);
};
layerId = m002;
paths = (
{
closed = 1;
nodes = (
"320 -13 OFFCURVE",
"394 8 OFFCURVE",
"427 40 CURVE",
"431 40 LINE",
"411 0 LINE",
"617 0 LINE",
"617 354 LINE SMOOTH",
"617 466 OFFCURVE",
"509 532 OFFCURVE",
"335 532 CURVE SMOOTH",
"137 532 OFFCURVE",
"23 460 OFFCURVE",
"23 337 CURVE",
"221 337 LINE",
"221 373 OFFCURVE",
"247 395 OFFCURVE",
"346 395 CURVE SMOOTH",
"382 395 OFFCURVE",
"419 382 OFFCURVE",
"419 360 CURVE SMOOTH",
"419 326 OFFCURVE",
"302 314 OFFCURVE",
"220 304 CURVE SMOOTH",
"70 285 OFFCURVE",
"10 235 OFFCURVE",
"10 141 CURVE SMOOTH",
"10 49 OFFCURVE",
"104 -13 OFFCURVE",
"254 -13 CURVE SMOOTH"
);
},
{
closed = 1;
nodes = (
"208 177 OFFCURVE",
"210 195 OFFCURVE",
"294 206 CURVE SMOOTH",
"341 212 OFFCURVE",
"399 224 OFFCURVE",
"419 240 CURVE",
"419 209 LINE SMOOTH",
"419 159 OFFCURVE",
"360 125 OFFCURVE",
"280 125 CURVE SMOOTH",
"240 125 OFFCURVE",
"208 140 OFFCURVE",
"208 162 CURVE SMOOTH"
);
}
);
width = 637;
}
);
leftKerningGroup = a;
leftMetricsKey = o;
rightKerningGroup = a;
rightMetricsKey = n;
unicode = 0061;
},
{
color = 10;
glyphname = astroke;
lastChange = "2023-08-30 18:50:50 +0000";
layers = (
{
layerId = "FD4D3FDD-DE85-408F-A52A-FF600B1C6101";
paths = (
{
closed = 1;
nodes = (
"313 -13 OFFCURVE",
"406 23 OFFCURVE",
"447 91 CURVE",
"449 91 LINE",
"434 0 LINE",
"497 0 LINE",
"497 380 LINE SMOOTH",
"497 435 OFFCURVE",
"464 480 OFFCURVE",
"409.01 505.99 CURVE",
"428 558 LINE",
"387 558 LINE",
"373 520 LINE",
"345 528 OFFCURVE",
"313.007 532 OFFCURVE",
"278 532 CURVE SMOOTH",
"137 532 OFFCURVE",
"43 472 OFFCURVE",
"43 382 CURVE",
"91 382 LINE",
"91 447 OFFCURVE",
"166 490 OFFCURVE",
"278 490 CURVE SMOOTH",
"308 490 OFFCURVE",
"335 486 OFFCURVE",
"358 480 CURVE",
"289 291 LINE",
"286 290 OFFCURVE",
"286 290 OFFCURVE",
"282 289 CURVE SMOOTH",
"147 260 OFFCURVE",
"30 239 OFFCURVE",
"30 127 CURVE SMOOTH",
"30 55 OFFCURVE",
"87 4 OFFCURVE",
"180 -10 CURVE",
"165 -50 LINE",
"206 -50 LINE",
"220 -13 LINE",
"229 -13 LINE SMOOTH"
);
},
{
closed = 1;
nodes = (
"78 208 OFFCURVE",
"171 220 OFFCURVE",
"272 242 CURVE",
"195 31 LINE",
"122 40 OFFCURVE",
"78 76 OFFCURVE",
"78 126 CURVE SMOOTH"
);
},
{
closed = 1;
nodes = (
"316 252 LINE",
"370 265 OFFCURVE",
"428 282 OFFCURVE",
"448 305 CURVE",
"448 232 LINE SMOOTH",
"448 111 OFFCURVE",
"353 30 OFFCURVE",
"235 29 CURVE"
);
},
{
closed = 1;
nodes = (
"394 466 LINE",
"429 447 OFFCURVE",
"449 419 OFFCURVE",
"449 384 CURVE SMOOTH",
"449 338 OFFCURVE",
"394 316 OFFCURVE",
"334 301 CURVE"
);
}
);
width = 537;
},
{
layerId = m002;
paths = (
{
closed = 1;
nodes = (
"320 -13 OFFCURVE",
"394 8 OFFCURVE",
"427 40 CURVE",
"431 40 LINE",
"411 0 LINE",
"617 0 LINE",
"617 354 LINE SMOOTH",
"617 440 OFFCURVE",
"554 498 OFFCURVE",
"447 521 CURVE",
"460 558 LINE",
"409 558 LINE",
"398 529 LINE",
"378 531 OFFCURVE",
"357 532 OFFCURVE",
"335 532 CURVE SMOOTH",
"137 532 OFFCURVE",
"23 460 OFFCURVE",
"23 337 CURVE",
"221 337 LINE",
"221 373 OFFCURVE",
"245 395 OFFCURVE",
"344 395 CURVE SMOOTH",
"346 395 OFFCURVE",
"348 395 OFFCURVE",
"349 395 CURVE",
"321 318 LINE",
"288 312 OFFCURVE",
"251 308 OFFCURVE",
"220 304 CURVE SMOOTH",
"70 285 OFFCURVE",
"10 235 OFFCURVE",
"10 141 CURVE SMOOTH",
"10 60 OFFCURVE",
"82 3 OFFCURVE",
"202 -10 CURVE",
"187 -50 LINE",
"238 -50 LINE",
"252 -13 LINE",
"254 -13 LINE SMOOTH"
);
},
{
closed = 1;
nodes = (
"208 176 OFFCURVE",
"210 193 OFFCURVE",
"280 204 CURVE",
"252 128 LINE",
"226 133 OFFCURVE",
"208 145 OFFCURVE",
"208 162 CURVE SMOOTH"
);
},
{
closed = 1;
nodes = (
"334 212 LINE",
"370 219 OFFCURVE",
"404 228 OFFCURVE",
"419 240 CURVE",
"419 209 LINE SMOOTH",
"419 164 OFFCURVE",
"371 132 OFFCURVE",
"302 126 CURVE"
);
},
{
closed = 1;
nodes = (
"397 385 LINE",
"410 379 OFFCURVE",
"419 371 OFFCURVE",
"419 360 CURVE SMOOTH",
"419 347 OFFCURVE",
"402 337 OFFCURVE",
"377 330 CURVE"
);
}
);
width = 637;
}
);
leftKerningGroup = a;
leftMetricsKey = a;
rightKerningGroup = a;
rightMetricsKey = a;
unicode = 2C65;
},
{
color = 10;
glyphname = ae;
lastChange = "2023-08-30 01:12:40 +0000";
layers = (
{
anchors = (
{
name = Top;
position = "{500, 532}";
}
);
layerId = "FD4D3FDD-DE85-408F-A52A-FF600B1C6101";
paths = (
{
closed = 1;
nodes = (
"313 -13 OFFCURVE",
"406 23 OFFCURVE",
"447 91 CURVE",
"449 91 LINE",
"434 0 LINE",
"497 0 LINE",
"497 126 LINE",
"543 39 OFFCURVE",
"636 -13 OFFCURVE",
"757 -13 CURVE SMOOTH",
"902 -13 OFFCURVE",
"1012 56 OFFCURVE",
"1031 159 CURVE",
"983 159 LINE",
"967 81 OFFCURVE",
"877 29 OFFCURVE",
"758 29 CURVE SMOOTH",
"613 29 OFFCURVE",
"516 120 OFFCURVE",
"513 256 CURVE",
"1036 256 LINE",
"1036 298 LINE SMOOTH",
"1036 438 OFFCURVE",
"922 532 OFFCURVE",
"750 532 CURVE SMOOTH",
"632 532 OFFCURVE",
"541 481 OFFCURVE",
"496 396 CURVE",
"487 478 OFFCURVE",
"401 532 OFFCURVE",
"277 532 CURVE SMOOTH",
"137 532 OFFCURVE",
"43 472 OFFCURVE",
"43 382 CURVE",
"91 382 LINE",
"91 447 OFFCURVE",
"165 490 OFFCURVE",
"277 490 CURVE SMOOTH",
"380 490 OFFCURVE",
"449 448 OFFCURVE",
"449 384 CURVE SMOOTH",
"449 324 OFFCURVE",
"357 305 OFFCURVE",
"282 289 CURVE SMOOTH",
"147 260 OFFCURVE",
"30 239 OFFCURVE",
"30 127 CURVE SMOOTH",
"30 43 OFFCURVE",
"108 -13 OFFCURVE",
"229 -13 CURVE SMOOTH"
);
},
{
closed = 1;
nodes = (
"78 210 OFFCURVE",
"176 221 OFFCURVE",
"279 244 CURVE SMOOTH",
"339 257 OFFCURVE",
"423 277 OFFCURVE",
"448 305 CURVE",
"448 232 LINE SMOOTH",
"448 110 OFFCURVE",
"351 29 OFFCURVE",
"232 29 CURVE SMOOTH",
"138 29 OFFCURVE",
"78 68 OFFCURVE",
"78 126 CURVE SMOOTH"
);
},
{
closed = 1;
nodes = (
"532 414 OFFCURVE",
"622 490 OFFCURVE",
"751 490 CURVE SMOOTH",
"893 490 OFFCURVE",
"988 413 OFFCURVE",
"988 298 CURVE",
"516 298 LINE"
);
}
);
width = 1066;
},
{
anchors = (
{
name = Top;
position = "{605, 532}";
}
);
layerId = m002;
paths = (
{
closed = 1;
nodes = (
"320 -13 OFFCURVE",
"394 8 OFFCURVE",
"427 40 CURVE",
"431 40 LINE",
"411 0 LINE",
"617 0 LINE",
"617 76 LINE",
"677 19 OFFCURVE",
"773 -13 OFFCURVE",
"898 -13 CURVE SMOOTH",
"1083 -13 OFFCURVE",
"1207 57 OFFCURVE",
"1231 175 CURVE",
"1033 175 LINE",
"1025 143 OFFCURVE",
"976 124 OFFCURVE",
"901 124 CURVE SMOOTH",
"827 124 OFFCURVE",
"779 157 OFFCURVE",
"763 214 CURVE",
"1226 214 LINE",
"1226 263 LINE SMOOTH",
"1226 432 OFFCURVE",
"1102 532 OFFCURVE",
"893 532 CURVE SMOOTH",
"759 532 OFFCURVE",
"658 494 OFFCURVE",
"600 425 CURVE",
"563 493 OFFCURVE",
"468 532 OFFCURVE",
"335 532 CURVE SMOOTH",
"137 532 OFFCURVE",
"23 460 OFFCURVE",
"23 337 CURVE",
"221 337 LINE",
"221 373 OFFCURVE",
"247 395 OFFCURVE",
"346 395 CURVE SMOOTH",
"382 395 OFFCURVE",
"419 382 OFFCURVE",
"419 360 CURVE SMOOTH",
"419 326 OFFCURVE",
"302 314 OFFCURVE",
"220 304 CURVE SMOOTH",
"70 285 OFFCURVE",
"10 235 OFFCURVE",
"10 141 CURVE SMOOTH",
"10 49 OFFCURVE",
"104 -13 OFFCURVE",
"254 -13 CURVE SMOOTH"
);
},
{
closed = 1;
nodes = (
"208 177 OFFCURVE",
"210 195 OFFCURVE",
"294 206 CURVE SMOOTH",
"341 212 OFFCURVE",
"399 224 OFFCURVE",
"419 240 CURVE",
"419 209 LINE SMOOTH",
"419 159 OFFCURVE",
"360 125 OFFCURVE",
"280 125 CURVE SMOOTH",
"240 125 OFFCURVE",
"208 140 OFFCURVE",
"208 162 CURVE SMOOTH"
);
},
{
closed = 1;
nodes = (
"783 366 OFFCURVE",
"828 395 OFFCURVE",
"893 395 CURVE SMOOTH",
"959 395 OFFCURVE",
"1002 366 OFFCURVE",
"1014 315 CURVE",
"766 314 LINE"
);
}
);
width = 1241;
}
);
leftKerningGroup = a;
leftMetricsKey = a;
rightKerningGroup = o;
rightMetricsKey = e;
unicode = 00E6;
},
{
glyphname = b;
lastChange = "2023-08-30 00:27:53 +0000";
layers = (
{
anchors = (
{
name = Top;
position = "{334, 532}";
}
);
layerId = "FD4D3FDD-DE85-408F-A52A-FF600B1C6101";
paths = (
{
closed = 1;
nodes = (
"500 -13 OFFCURVE",
"618 97 OFFCURVE",
"618 261 CURVE SMOOTH",
"618 424 OFFCURVE",
"506 532 OFFCURVE",
"338 532 CURVE SMOOTH",
"230 532 OFFCURVE",
"129 484 OFFCURVE",
"85 412 CURVE",
"83 412 LINE",
"88 520 LINE",
"88 736 LINE",
"40 736 LINE",
"40 0 LINE",
"103 0 LINE",
"88 98 LINE",
"90 98 LINE",
"136 31 OFFCURVE",
"229 -13 OFFCURVE",
"323 -13 CURVE SMOOTH"
);
},
{
closed = 1;
nodes = (
"88 398 OFFCURVE",
"186 490 OFFCURVE",
"332 490 CURVE SMOOTH",
"475 490 OFFCURVE",
"570 398 OFFCURVE",
"570 261 CURVE SMOOTH",
"570 122 OFFCURVE",
"471 29 OFFCURVE",
"323 29 CURVE SMOOTH",
"182 29 OFFCURVE",
"88 122 OFFCURVE",
"88 261 CURVE SMOOTH"
);
}
);
width = 648;
},
{
anchors = (
{
name = Top;
position = "{376, 532}";
}
);
layerId = m002;
paths = (
{
closed = 1;
nodes = (
"586 -13 OFFCURVE",
"702 89 OFFCURVE",
"702 261 CURVE SMOOTH",
"702 431 OFFCURVE",
"584 532 OFFCURVE",
"385 532 CURVE SMOOTH",
"316 532 OFFCURVE",
"253 519 OFFCURVE",
"215 497 CURVE",
"213 497 LINE",
"218 549 LINE",
"218 736 LINE",
"20 736 LINE",
"20 0 LINE",
"226 0 LINE",
"206 37 LINE",
"210 37 LINE",
"240 6 OFFCURVE",
"307 -13 OFFCURVE",
"389 -13 CURVE SMOOTH"
);
},
{
closed = 1;
nodes = (
"218 348 OFFCURVE",
"269 400 OFFCURVE",
"356 400 CURVE SMOOTH",
"443 400 OFFCURVE",
"494 348 OFFCURVE",
"494 261 CURVE SMOOTH",
"494 173 OFFCURVE",
"443 121 OFFCURVE",
"356 121 CURVE SMOOTH",
"269 121 OFFCURVE",
"218 173 OFFCURVE",
"218 261 CURVE SMOOTH"
);
}
);
width = 712;
}
);
leftKerningGroup = n;
leftMetricsKey = n;
rightKerningGroup = o;
rightMetricsKey = o;
unicode = 0062;
},
{
glyphname = c;
lastChange = "2023-08-30 00:27:53 +0000";
layers = (
{
anchors = (
{
name = Bottom;
position = "{316, 0}";
},
{
name = Top;
position = "{316, 532}";
}
);
layerId = "FD4D3FDD-DE85-408F-A52A-FF600B1C6101";
paths = (
{
closed = 1;
nodes = (
"526 155 LINE",
"516 79 OFFCURVE",
"432 29 OFFCURVE",
"316 29 CURVE SMOOTH",
"173 29 OFFCURVE",
"78 121 OFFCURVE",
"78 259 CURVE SMOOTH",
"78 398 OFFCURVE",
"173 490 OFFCURVE",
"316 490 CURVE SMOOTH",
"436 490 OFFCURVE",
"523 438 OFFCURVE",
"534 361 CURVE",
"582 361 LINE",
"571 464 OFFCURVE",
"465 532 OFFCURVE",
"316 532 CURVE SMOOTH",
"144 532 OFFCURVE",
"30 423 OFFCURVE",
"30 259 CURVE SMOOTH",
"30 96 OFFCURVE",
"144 -13 OFFCURVE",
"316 -13 CURVE SMOOTH",
"461 -13 OFFCURVE",
"564 54 OFFCURVE",
"574 155 CURVE"
);
}
);
width = 612;
},
{
anchors = (
{
name = Bottom;
position = "{350, 0}";
},
{
name = Top;
position = "{353, 532}";
}
);
layerId = m002;
paths = (
{
closed = 1;
nodes = (
"472 210 LINE",
"466 167 OFFCURVE",
"419 139 OFFCURVE",
"354 139 CURVE SMOOTH",
"272 139 OFFCURVE",
"218 187 OFFCURVE",
"218 259 CURVE SMOOTH",
"218 332 OFFCURVE",
"273 380 OFFCURVE",
"356 380 CURVE SMOOTH",
"424 380 OFFCURVE",
"474 350 OFFCURVE",
"480 306 CURVE",
"688 306 LINE",
"673 442 OFFCURVE",
"539 532 OFFCURVE",
"354 532 CURVE SMOOTH",
"148 532 OFFCURVE",
"10 423 OFFCURVE",
"10 259 CURVE SMOOTH",
"10 96 OFFCURVE",
"146 -13 OFFCURVE",
"349 -13 CURVE SMOOTH",
"534 -13 OFFCURVE",
"666 76 OFFCURVE",
"680 210 CURVE"
);
}
);
width = 698;
}
);
leftKerningGroup = o;
leftMetricsKey = o;
rightKerningGroup = c;
rightMetricsKey = o;
unicode = 0063;
},
{
color = 10;
glyphname = "chi-latin";
lastChange = "2023-08-30 02:02:49 +0000";
layers = (
{
layerId = "FD4D3FDD-DE85-408F-A52A-FF600B1C6101";
paths = (
{
closed = 1;
nodes = (
"392 152 LINE",
"631 520 LINE",
"576 520 LINE",
"365 195 LINE",
"237 394 LINE SMOOTH",
"183 479 OFFCURVE",
"143 532 OFFCURVE",
"68 532 CURVE SMOOTH",
"52 532 OFFCURVE",
"34 529 OFFCURVE",
"20 524 CURVE",
"20 476 LINE",
"31 482 OFFCURVE",
"53 485 OFFCURVE",
"72 485 CURVE SMOOTH",
"120 485 OFFCURVE",
"147 448 OFFCURVE",
"182 394 CURVE SMOOTH",
"337 152 LINE",
"97 -217 LINE",
"152 -217 LINE",
"364 109 LINE",
"495 -95 LINE SMOOTH",
"549 -179 OFFCURVE",
"584 -233 OFFCURVE",
"659 -233 CURVE SMOOTH",
"675 -233 OFFCURVE",
"693 -230 OFFCURVE",
"707 -225 CURVE",
"707 -177 LINE",
"696 -183 OFFCURVE",
"674 -186 OFFCURVE",
"655 -186 CURVE SMOOTH",
"607 -186 OFFCURVE",
"585 -149 OFFCURVE",
"550 -95 CURVE SMOOTH"
);
}
);
width = 727;
},
{
layerId = m002;
paths = (
{
closed = 1;
nodes = (
"512 158 LINE",
"777 520 LINE",
"551 520 LINE",
"385 294 LINE",
"320 363 LINE SMOOTH",
"221 469 OFFCURVE",
"130 532 OFFCURVE",
"76 532 CURVE SMOOTH",
"53 532 OFFCURVE",
"29 528 OFFCURVE",
"11 521 CURVE",
"10 361 LINE",
"16 364 OFFCURVE",
"27 365 OFFCURVE",
"41 365 CURVE SMOOTH",
"58 365 OFFCURVE",
"89 343 OFFCURVE",
"125 305 CURVE SMOOTH",
"276 144 LINE",
"12 -217 LINE",
"238 -217 LINE",
"403 9 LINE",
"472 -64 LINE SMOOTH",
"571 -170 OFFCURVE",
"663 -233 OFFCURVE",
"720 -233 CURVE SMOOTH",
"745 -233 OFFCURVE",
"767 -229 OFFCURVE",
"781 -222 CURVE",
"781 -62 LINE",
"777 -65 OFFCURVE",
"766 -66 OFFCURVE",
"751 -66 CURVE SMOOTH",
"734 -66 OFFCURVE",
"703 -44 OFFCURVE",
"667 -6 CURVE SMOOTH"
);
}
);
width = 791;
}
);
leftKerningGroup = x;
leftMetricsKey = x;
rightKerningGroup = x;
rightMetricsKey = x;
unicode = AB53;
},
{
color = 10;
glyphname = cstroke;
lastChange = "2023-08-30 18:51:03 +0000";
layers = (
{
layerId = "FD4D3FDD-DE85-408F-A52A-FF600B1C6101";
paths = (
{
closed = 1;
nodes = (
"526 155 LINE",
"516 79 OFFCURVE",
"432 29 OFFCURVE",
"316 29 CURVE SMOOTH",
"295 29 OFFCURVE",
"276 31 OFFCURVE",
"257 35 CURVE",
"418 475 LINE",
"483 455 OFFCURVE",
"526 414 OFFCURVE",
"534 361 CURVE",
"582 361 LINE",
"574 434 OFFCURVE",
"518 490 OFFCURVE",
"433 516 CURVE",
"448 558 LINE",
"407 558 LINE",
"395 525 LINE",
"370 530 OFFCURVE",
"344 532 OFFCURVE",
"316 532 CURVE SMOOTH",
"144 532 OFFCURVE",
"30 423 OFFCURVE",
"30 259 CURVE SMOOTH",
"30 134 OFFCURVE",
"97 41 OFFCURVE",
"205 4 CURVE",
"185 -50 LINE",
"226 -50 LINE",
"242 -6 LINE",
"265 -11 OFFCURVE",
"290 -13 OFFCURVE",
"316 -13 CURVE SMOOTH",
"461 -13 OFFCURVE",
"564 54 OFFCURVE",
"574 155 CURVE"
);
},
{
closed = 1;
nodes = (
"78 398 OFFCURVE",
"173 490 OFFCURVE",
"316 490 CURVE SMOOTH",
"339 490 OFFCURVE",
"360 488 OFFCURVE",
"380 485 CURVE",
"220 45 LINE",
"132 77 OFFCURVE",
"78 155 OFFCURVE",
"78 259 CURVE SMOOTH"
);
}
);
width = 612;
},
{
layerId = m002;
paths = (
{
closed = 1;
nodes = (
"472 210 LINE",
"466 167 OFFCURVE",
"419 139 OFFCURVE",
"354 139 CURVE SMOOTH",
"348 139 OFFCURVE",
"343 139 OFFCURVE",
"337 140 CURVE",
"421 369 LINE",
"454 357 OFFCURVE",
"476 334 OFFCURVE",
"480 306 CURVE",
"688 306 LINE",
"677 410 OFFCURVE",
"595 487 OFFCURVE",
"475 518 CURVE",
"490 558 LINE",
"439 558 LINE",
"428 527 LINE",
"404 530 OFFCURVE",
"380 532 OFFCURVE",
"354 532 CURVE SMOOTH",
"148 532 OFFCURVE",
"10 423 OFFCURVE",
"10 259 CURVE SMOOTH",
"10 129 OFFCURVE",
"97 33 OFFCURVE",
"235 0 CURVE",
"217 -50 LINE",
"268 -50 LINE",
"283 -9 LINE",
"304 -12 OFFCURVE",
"326 -13 OFFCURVE",
"349 -13 CURVE SMOOTH",
"534 -13 OFFCURVE",
"666 76 OFFCURVE",
"680 210 CURVE"
);
},
{
closed = 1;
nodes = (
"218 332 OFFCURVE",
"273 380 OFFCURVE",
"356 380 CURVE SMOOTH",
"362 380 OFFCURVE",
"368 380 OFFCURVE",
"374 379 CURVE",
"290 151 LINE",
"245 169 OFFCURVE",
"218 208 OFFCURVE",
"218 259 CURVE SMOOTH"
);
}
);
width = 698;
}
);
leftKerningGroup = o;
leftMetricsKey = c;
rightKerningGroup = c;
rightMetricsKey = c;
unicode = 023C;
},
{
glyphname = d;
lastChange = "2023-09-06 01:29:20 +0000";
layers = (
{
anchors = (
{
name = Bottom;
position = "{336, 0}";
},
{
name = Top;
position = "{324, 532}";
},
{
name = Top_EC;
position = "{666, 532}";
}
);
layerId = "FD4D3FDD-DE85-408F-A52A-FF600B1C6101";
paths = (
{
closed = 1;
nodes = (
"419 -13 OFFCURVE",
"512 31 OFFCURVE",
"558 98 CURVE",
"560 98 LINE",
"545 0 LINE",
"608 0 LINE",
"608 736 LINE",
"560 736 LINE",
"560 520 LINE",
"565 412 LINE",
"563 412 LINE",
"519 484 OFFCURVE",
"418 532 OFFCURVE",
"310 532 CURVE SMOOTH",
"142 532 OFFCURVE",
"30 424 OFFCURVE",
"30 261 CURVE SMOOTH",
"30 97 OFFCURVE",
"148 -13 OFFCURVE",
"325 -13 CURVE SMOOTH"
);
},
{
closed = 1;
nodes = (
"78 398 OFFCURVE",
"173 490 OFFCURVE",
"316 490 CURVE SMOOTH",
"462 490 OFFCURVE",
"560 398 OFFCURVE",
"560 261 CURVE SMOOTH",
"560 122 OFFCURVE",
"466 29 OFFCURVE",
"325 29 CURVE SMOOTH",
"177 29 OFFCURVE",
"78 122 OFFCURVE",
"78 261 CURVE SMOOTH"
);
}
);
width = 648;
},
{
anchors = (
{
name = Bottom;
position = "{381, 0}";
},
{
name = Top;
position = "{356, 532}";
},
{
name = Top_EC;
position = "{786, 500}";
}
);
layerId = m002;
paths = (
{
closed = 1;
nodes = (
"405 -13 OFFCURVE",
"472 6 OFFCURVE",
"502 37 CURVE",
"506 37 LINE",
"486 0 LINE",
"692 0 LINE",
"692 736 LINE",
"494 736 LINE",
"494 549 LINE",
"499 497 LINE",
"497 497 LINE",
"459 519 OFFCURVE",
"396 532 OFFCURVE",
"327 532 CURVE SMOOTH",
"128 532 OFFCURVE",
"10 431 OFFCURVE",
"10 261 CURVE SMOOTH",
"10 89 OFFCURVE",
"126 -13 OFFCURVE",
"323 -13 CURVE SMOOTH"
);
},
{
closed = 1;
nodes = (
"218 348 OFFCURVE",
"269 400 OFFCURVE",
"356 400 CURVE SMOOTH",
"443 400 OFFCURVE",
"494 348 OFFCURVE",
"494 261 CURVE SMOOTH",
"494 173 OFFCURVE",
"443 121 OFFCURVE",
"356 121 CURVE SMOOTH",
"269 121 OFFCURVE",
"218 173 OFFCURVE",
"218 261 CURVE SMOOTH"
);
}
);
width = 712;
}
);
leftKerningGroup = o;
leftMetricsKey = o;
rightKerningGroup = n;
rightMetricsKey = n;
unicode = 0064;
},
{
color = 10;
glyphname = eth;
lastChange = "2023-08-30 01:13:04 +0000";
layers = (
{
layerId = "FD4D3FDD-DE85-408F-A52A-FF600B1C6101";
paths = (
{
closed = 1;
nodes = (
"474 -12 OFFCURVE",
"588 109 OFFCURVE",
"588 291 CURVE SMOOTH",
"588 430 OFFCURVE",
"519 560 OFFCURVE",
"405 649 CURVE",
"472 704 LINE",
"449 731 LINE",
"376 670 LINE",
"340 695 OFFCURVE",
"299 715 OFFCURVE",
"256 731 CURVE",
"228 695 LINE",
"267 682 OFFCURVE",
"305 663 OFFCURVE",
"340 640 CURVE",
"274 585 LINE",
"296 559 LINE",
"369 619 LINE",
"428 573 OFFCURVE",
"476 515 OFFCURVE",
"501 454 CURVE",
"499 453 LINE",
"457 500 OFFCURVE",
"379 532 OFFCURVE",
"304 532 CURVE SMOOTH",
"140 532 OFFCURVE",
"30 422 OFFCURVE",
"30 258 CURVE SMOOTH",
"30 96 OFFCURVE",
"140 -12 OFFCURVE",
"304 -12 CURVE SMOOTH"
);
},
{
closed = 1;
nodes = (
"78 398 OFFCURVE",
"168 490 OFFCURVE",
"304 490 CURVE SMOOTH",
"441 490 OFFCURVE",
"532 398 OFFCURVE",
"532 260 CURVE SMOOTH",
"532 122 OFFCURVE",
"441 30 OFFCURVE",
"304 30 CURVE SMOOTH",
"168 30 OFFCURVE",
"78 122 OFFCURVE",
"78 260 CURVE SMOOTH"
);
}
);
width = 618;
},
{
layerId = m002;
paths = (
{
closed = 1;
nodes = (
"518 -12 OFFCURVE",
"648 109 OFFCURVE",
"648 291 CURVE SMOOTH",
"648 437 OFFCURVE",
"568 575 OFFCURVE",
"437 668 CURVE",
"488 710 LINE",
"429 777 LINE",
"356 717 LINE",
"329 730 OFFCURVE",
"301 742 OFFCURVE",
"271 752 CURVE",
"190 647 LINE",
"209 640 OFFCURVE",
"228 633 OFFCURVE",
"246 625 CURVE",
"217 601 LINE",
"275 535 LINE",
"329 579 LINE",
"359 561 OFFCURVE",
"385 540 OFFCURVE",
"407 519 CURVE",
"405 517 LINE",
"381 527 OFFCURVE",
"352 532 OFFCURVE",
"324 532 CURVE SMOOTH",
"136 532 OFFCURVE",
"10 422 OFFCURVE",
"10 258 CURVE SMOOTH",
"10 96 OFFCURVE",
"136 -12 OFFCURVE",
"324 -12 CURVE SMOOTH"
);
},
{
closed = 1;
nodes = (
"178 338 OFFCURVE",
"236 390 OFFCURVE",
"324 390 CURVE SMOOTH",
"413 390 OFFCURVE",
"472 338 OFFCURVE",
"472 260 CURVE SMOOTH",
"472 182 OFFCURVE",
"413 130 OFFCURVE",
"324 130 CURVE SMOOTH",
"236 130 OFFCURVE",
"178 182 OFFCURVE",
"178 260 CURVE SMOOTH"
);
}
);
width = 658;
}
);
leftKerningGroup = o;
leftMetricsKey = d;
rightKerningGroup = o;
rightMetricsKey = o;
unicode = 00F0;
},
{
color = 10;
glyphname = dcroat;
lastChange = "2023-08-30 01:24:11 +0000";
layers = (
{
layerId = "FD4D3FDD-DE85-408F-A52A-FF600B1C6101";
paths = (
{
closed = 1;
nodes = (
"419 -13 OFFCURVE",
"512 31 OFFCURVE",
"558 98 CURVE",
"560 98 LINE",
"545 0 LINE",
"608 0 LINE",
"608 619 LINE",
"701 619 LINE",
"701 664 LINE",
"608 659 LINE",
"608 736 LINE",
"560 736 LINE",
"560 661 LINE",
"426 661 LINE",
"426 619 LINE",
"560 619 LINE",
"560 520 LINE",
"565 412 LINE",
"563 412 LINE",
"519 484 OFFCURVE",
"418 532 OFFCURVE",
"310 532 CURVE SMOOTH",
"142 532 OFFCURVE",
"30 424 OFFCURVE",
"30 261 CURVE SMOOTH",
"30 97 OFFCURVE",
"148 -13 OFFCURVE",
"325 -13 CURVE SMOOTH"
);
},
{
closed = 1;
nodes = (
"78 398 OFFCURVE",
"173 490 OFFCURVE",
"316 490 CURVE SMOOTH",
"462 490 OFFCURVE",
"560 398 OFFCURVE",
"560 261 CURVE SMOOTH",
"560 122 OFFCURVE",
"466 29 OFFCURVE",
"325 29 CURVE SMOOTH",
"177 29 OFFCURVE",
"78 122 OFFCURVE",
"78 261 CURVE SMOOTH"
);
}
);
width = 741;
},
{
layerId = m002;
paths = (
{
closed = 1;
nodes = (
"401 -13 OFFCURVE",
"473 7 OFFCURVE",
"502 37 CURVE",
"506 37 LINE",
"486 0 LINE",
"692 0 LINE",
"692 587 LINE",
"765 587 LINE",
"765 690 LINE",
"692 685 LINE",
"692 736 LINE",
"494 736 LINE",
"494 687 LINE",
"420 687 LINE",
"420 587 LINE",
"494 587 LINE",
"494 549 LINE",
"499 487 LINE",
"497 487 LINE",
"460 514 OFFCURVE",
"395 532 OFFCURVE",
"334 532 CURVE SMOOTH",
"140 532 OFFCURVE",
"10 424 OFFCURVE",
"10 261 CURVE SMOOTH",
"10 97 OFFCURVE",
"135 -13 OFFCURVE",
"323 -13 CURVE SMOOTH"
);
},
{
closed = 1;
nodes = (
"218 344 OFFCURVE",
"273 400 OFFCURVE",
"356 400 CURVE SMOOTH",
"439 400 OFFCURVE",
"494 344 OFFCURVE",
"494 261 CURVE SMOOTH",
"494 177 OFFCURVE",
"439 121 OFFCURVE",
"356 121 CURVE SMOOTH",
"273 121 OFFCURVE",
"218 177 OFFCURVE",
"218 261 CURVE SMOOTH"
);
}
);
width = 785;
}
);
leftKerningGroup = o;
leftMetricsKey = o;
rightKerningGroup = dcroat;
rightMetricsKey = n;
unicode = 0111;
},
{
glyphname = e;
lastChange = "2023-09-01 23:38:34 +0000";
layers = (
{
anchors = (
{
name = Bottom;
position = "{323, 0}";
},
{
name = Top;
position = "{315, 532}";
}
);
layerId = "FD4D3FDD-DE85-408F-A52A-FF600B1C6101";
paths = (
{
closed = 1;
nodes = (
"548 159 LINE",
"532 81 OFFCURVE",
"442 29 OFFCURVE",
"323 29 CURVE SMOOTH",
"178 29 OFFCURVE",
"81 120 OFFCURVE",
"78 256 CURVE",
"601 256 LINE",
"601 298 LINE SMOOTH",
"601 438 OFFCURVE",
"487 532 OFFCURVE",
"315 532 CURVE SMOOTH",
"144 532 OFFCURVE",
"30 424 OFFCURVE",
"30 263 CURVE SMOOTH",
"30 97 OFFCURVE",
"147 -13 OFFCURVE",
"322 -13 CURVE SMOOTH",
"467 -13 OFFCURVE",
"577 56 OFFCURVE",
"596 159 CURVE"
);
},
{
closed = 1;
nodes = (
"97 414 OFFCURVE",
"187 490 OFFCURVE",
"316 490 CURVE SMOOTH",
"458 490 OFFCURVE",
"553 413 OFFCURVE",
"553 298 CURVE",
"81 298 LINE"
);
}
);
width = 631;
},
{
anchors = (
{
name = Bottom;
position = "{366, 0}";
},
{
name = Top;
position = "{358, 532}";
}
);
layerId = m002;
paths = (
{
closed = 1;
nodes = (
"499 175 LINE",
"491 143 OFFCURVE",
"442 124 OFFCURVE",
"367 124 CURVE SMOOTH",
"293 124 OFFCURVE",
"245 157 OFFCURVE",
"229 214 CURVE",
"692 214 LINE",
"692 263 LINE SMOOTH",
"692 432 OFFCURVE",
"568 532 OFFCURVE",
"359 532 CURVE SMOOTH",
"140 532 OFFCURVE",
"10 431 OFFCURVE",
"10 259 CURVE SMOOTH",
"10 88 OFFCURVE",
"141 -13 OFFCURVE",
"364 -13 CURVE SMOOTH",
"549 -13 OFFCURVE",
"673 57 OFFCURVE",
"697 175 CURVE"
);
},
{
closed = 1;
nodes = (
"249 366 OFFCURVE",
"294 395 OFFCURVE",
"359 395 CURVE SMOOTH",
"425 395 OFFCURVE",
"468 366 OFFCURVE",
"480 315 CURVE",
"232 314 LINE"
);
}
);
width = 707;
}
);
leftKerningGroup = o;
leftMetricsKey = o;
rightKerningGroup = o;
rightMetricsKey = o;
unicode = 0065;
},
{
color = 10;
glyphname = eopen;
lastChange = "2023-08-30 01:35:03 +0000";
layers = (
{
layerId = "FD4D3FDD-DE85-408F-A52A-FF600B1C6101";
paths = (
{
closed = 1;
nodes = (
"78 209 OFFCURVE",
"126 250 OFFCURVE",
"208 250 CURVE SMOOTH",
"283 250 LINE",
"283 292 LINE",
"208 292 LINE SMOOTH",
"137 292 OFFCURVE",
"95 328 OFFCURVE",
"95 388 CURVE SMOOTH",
"95 452 OFFCURVE",
"152 490 OFFCURVE",
"248 490 CURVE SMOOTH",
"349 490 OFFCURVE",
"408 451 OFFCURVE",
"408 386 CURVE",
"456 386 LINE",
"456 478 OFFCURVE",
"379 532 OFFCURVE",
"248 532 CURVE SMOOTH",
"122 532 OFFCURVE",
"47 479 OFFCURVE",
"47 388 CURVE SMOOTH",
"47 330 OFFCURVE",
"74 287 OFFCURVE",
"119 272 CURVE",
"119 270 LINE",
"63 259 OFFCURVE",
"30 211 OFFCURVE",
"30 140 CURVE SMOOTH",
"30 44 OFFCURVE",
"110 -13 OFFCURVE",
"246 -13 CURVE SMOOTH",
"382 -13 OFFCURVE",
"462 43 OFFCURVE",
"462 138 CURVE",
"414 138 LINE",
"414 69 OFFCURVE",
"352 29 OFFCURVE",
"246 29 CURVE SMOOTH",
"140 29 OFFCURVE",
"78 70 OFFCURVE",
"78 140 CURVE SMOOTH"
);
}
);
width = 492;
},
{
layerId = m002;
paths = (
{
closed = 1;
nodes = (
"219 207 OFFCURVE",
"235 220 OFFCURVE",
"261 220 CURVE SMOOTH",
"326 220 LINE",
"326 316 LINE",
"261 316 LINE SMOOTH",
"246 316 OFFCURVE",
"237 326 OFFCURVE",
"237 342 CURVE SMOOTH",
"237 363 OFFCURVE",
"264 375 OFFCURVE",
"311 375 CURVE SMOOTH",
"359 375 OFFCURVE",
"388 359 OFFCURVE",
"388 331 CURVE",
"596 331 LINE",
"596 457 OFFCURVE",
"490 532 OFFCURVE",
"311 532 CURVE SMOOTH",
"134 532 OFFCURVE",
"29 470 OFFCURVE",
"29 364 CURVE SMOOTH",
"29 319 OFFCURVE",
"48 285 OFFCURVE",
"79 272 CURVE",
"79 270 LINE",
"36 256 OFFCURVE",
"10 218 OFFCURVE",
"10 169 CURVE SMOOTH",
"10 55 OFFCURVE",
"119 -13 OFFCURVE",
"304 -13 CURVE SMOOTH",
"497 -13 OFFCURVE",
"611 65 OFFCURVE",
"611 196 CURVE",
"403 196 LINE",
"403 163 OFFCURVE",
"366 144 OFFCURVE",
"304 144 CURVE SMOOTH",
"251 144 OFFCURVE",
"219 160 OFFCURVE",
"219 186 CURVE SMOOTH"
);
}
);
width = 621;
}
);
leftKerningGroup = o;
leftMetricsKey = o;
rightKerningGroup = o;
rightMetricsKey = o;
unicode = 025B;
},
{
color = 10;
glyphname = schwa;
lastChange = "2023-08-30 01:30:31 +0000";
layers = (
{
layerId = "FD4D3FDD-DE85-408F-A52A-FF600B1C6101";
paths = (
{
closed = 1;
nodes = (
"83 360 LINE",
"99 438 OFFCURVE",
"189 490 OFFCURVE",
"308 490 CURVE SMOOTH",
"453 490 OFFCURVE",
"550 399 OFFCURVE",
"553 263 CURVE",
"30 263 LINE",
"30 221 LINE SMOOTH",
"30 81 OFFCURVE",
"144 -13 OFFCURVE",
"316 -13 CURVE SMOOTH",
"487 -13 OFFCURVE",
"601 95 OFFCURVE",
"601 256 CURVE SMOOTH",
"601 422 OFFCURVE",
"484 532 OFFCURVE",
"309 532 CURVE SMOOTH",
"164 532 OFFCURVE",
"54 463 OFFCURVE",
"35 360 CURVE"
);
},
{
closed = 1;
nodes = (
"550 221 LINE",
"534 105 OFFCURVE",
"444 29 OFFCURVE",
"315 29 CURVE SMOOTH",
"173 29 OFFCURVE",
"78 106 OFFCURVE",
"78 221 CURVE"
);
}
);
width = 631;
},
{
layerId = m002;
paths = (
{
closed = 1;
nodes = (
"208 344 LINE",
"216 376 OFFCURVE",
"265 395 OFFCURVE",
"340 395 CURVE SMOOTH",
"414 395 OFFCURVE",
"462 362 OFFCURVE",
"478 305 CURVE",
"15 305 LINE",
"15 256 LINE SMOOTH",
"15 87 OFFCURVE",
"139 -13 OFFCURVE",
"348 -13 CURVE SMOOTH",
"567 -13 OFFCURVE",
"697 88 OFFCURVE",
"697 260 CURVE SMOOTH",
"697 431 OFFCURVE",
"566 532 OFFCURVE",
"343 532 CURVE SMOOTH",
"158 532 OFFCURVE",
"34 462 OFFCURVE",
"10 344 CURVE"
);
},
{
closed = 1;
nodes = (
"475 205 LINE",
"458 153 OFFCURVE",
"413 124 OFFCURVE",
"348 124 CURVE SMOOTH",
"282 124 OFFCURVE",
"239 153 OFFCURVE",
"227 204 CURVE"
);
}
);
width = 707;
}
);
leftKerningGroup = o;
leftMetricsKey = e;
rightKerningGroup = o;
rightMetricsKey = e;
unicode = 0259;
},
{
color = 10;
glyphname = ezh;
lastChange = "2023-08-30 01:35:03 +0000";
layers = (
{
anchors = (
{
name = Top;
position = "{300, 520}";
}
);
layerId = "FD4D3FDD-DE85-408F-A52A-FF600B1C6101";
paths = (
{
closed = 1;
nodes = (
"52 478 LINE",
"479 478 LINE",
"275 275 LINE",
"275 233 LINE",
"310 233 LINE SMOOTH",
"435 233 OFFCURVE",
"518 161 OFFCURVE",
"518 52 CURVE SMOOTH",
"518 -58 OFFCURVE",
"432 -132 OFFCURVE",
"302 -132 CURVE SMOOTH",
"168 -132 OFFCURVE",
"78 -61 OFFCURVE",
"78 45 CURVE",
"30 45 LINE",
"30 -86 OFFCURVE",
"139 -174 OFFCURVE",
"302 -174 CURVE SMOOTH",
"460 -174 OFFCURVE",
"566 -84 OFFCURVE",
"566 52 CURVE SMOOTH",
"566 179 OFFCURVE",
"475 265 OFFCURVE",
"334 274 CURVE",
"539 478 LINE",
"539 520 LINE",
"52 520 LINE"
);
}
);
width = 596;
},
{
anchors = (
{
name = Top;
position = "{332, 520}";
}
);
layerId = m002;
paths = (
{
closed = 1;
nodes = (
"32 370 LINE",
"372 370 LINE",
"285 285 LINE",
"285 135 LINE",
"332 135 LINE SMOOTH",
"399 135 OFFCURVE",
"438 108 OFFCURVE",
"438 61 CURVE SMOOTH",
"438 15 OFFCURVE",
"399 -12 OFFCURVE",
"332 -12 CURVE SMOOTH",
"260 -12 OFFCURVE",
"218 17 OFFCURVE",
"218 65 CURVE",
"10 65 LINE",
"10 -85 OFFCURVE",
"130 -174 OFFCURVE",
"332 -174 CURVE SMOOTH",
"529 -174 OFFCURVE",
"646 -89 OFFCURVE",
"646 55 CURVE SMOOTH",
"646 153 OFFCURVE",
"592 224 OFFCURVE",
"497 259 CURVE",
"619 370 LINE",
"619 520 LINE",
"32 520 LINE"
);
}
);
width = 656;
}
);
leftKerningGroup = o;
leftMetricsKey = o;
rightKerningGroup = o;
rightMetricsKey = o;
unicode = 0292;
},
{
glyphname = f;
lastChange = "2023-08-30 00:27:53 +0000";
layers = (
{
layerId = "FD4D3FDD-DE85-408F-A52A-FF600B1C6101";
paths = (
{
closed = 1;
nodes = (
"133 518 LINE",
"40 523 LINE",
"40 478 LINE",
"133 478 LINE",
"133 0 LINE",
"181 0 LINE",
"181 478 LINE",
"325 478 LINE",
"325 520 LINE",
"181 520 LINE",
"181 565 LINE SMOOTH",
"181 647 OFFCURVE",
"231 695 OFFCURVE",
"315 695 CURVE SMOOTH",
"337 695 OFFCURVE",
"360 690 OFFCURVE",
"379 681 CURVE",
"379 723 LINE",
"361 731 OFFCURVE",
"336 736 OFFCURVE",
"312 736 CURVE SMOOTH",
"199 736 OFFCURVE",
"133 671 OFFCURVE",
"133 562 CURVE SMOOTH"
);
}
);
width = 389;
},
{
layerId = m002;
paths = (
{
closed = 1;
nodes = (
"93 518 LINE",
"20 523 LINE",
"20 370 LINE",
"93 370 LINE",
"93 0 LINE",
"291 0 LINE",
"291 370 LINE",
"425 370 LINE",
"425 520 LINE",
"291 520 LINE",
"291 535 LINE SMOOTH",
"291 560 OFFCURVE",
"319 577 OFFCURVE",
"360 577 CURVE SMOOTH",
"384 577 OFFCURVE",
"416 571 OFFCURVE",
"439 563 CURVE",
"439 723 LINE",
"422 731 OFFCURVE",
"385 736 OFFCURVE",
"345 736 CURVE SMOOTH",
"194 736 OFFCURVE",
"93 664 OFFCURVE",
"93 557 CURVE SMOOTH"
);
}
);
width = 449;
}
);
leftKerningGroup = f;
leftMetricsKey = n;
rightKerningGroup = f;
unicode = 0066;
},
{
glyphname = g;
lastChange = "2023-08-30 00:27:53 +0000";
layers = (
{
anchors = (
{
name = Top;
position = "{325, 531}";
}
);
layerId = "FD4D3FDD-DE85-408F-A52A-FF600B1C6101";
paths = (
{
closed = 1;
nodes = (
"608 520 LINE",
"545 520 LINE",
"565 412 LINE",
"563 412 LINE",
"522 484 OFFCURVE",
"426 532 OFFCURVE",
"325 532 CURVE SMOOTH",
"148 532 OFFCURVE",
"30 423 OFFCURVE",
"30 260 CURVE SMOOTH",
"30 96 OFFCURVE",
"150 -13 OFFCURVE",
"331 -13 CURVE SMOOTH",
"420 -13 OFFCURVE",
"513 31 OFFCURVE",
"563 98 CURVE",
"565 98 LINE",
"560 -22 LINE SMOOTH",
"556 -123 OFFCURVE",
"464 -191 OFFCURVE",
"329 -191 CURVE SMOOTH",
"205 -191 OFFCURVE",
"111 -139 OFFCURVE",
"95 -61 CURVE",
"47 -61 LINE",
"66 -164 OFFCURVE",
"178 -233 OFFCURVE",
"328 -233 CURVE SMOOTH",
"496 -233 OFFCURVE",
"608 -144 OFFCURVE",
"608 -11 CURVE SMOOTH"
);
},
{
closed = 1;
nodes = (
"78 398 OFFCURVE",
"177 490 OFFCURVE",
"326 490 CURVE SMOOTH",
"466 490 OFFCURVE",
"559 398 OFFCURVE",
"559 260 CURVE SMOOTH",
"559 121 OFFCURVE",
"466 29 OFFCURVE",
"326 29 CURVE SMOOTH",
"177 29 OFFCURVE",
"78 121 OFFCURVE",
"78 260 CURVE SMOOTH"
);
}
);
width = 648;
},
{
anchors = (
{
name = Top;
position = "{383, 532}";
}
);
layerId = m002;
paths = (
{
closed = 1;
nodes = (
"692 520 LINE",
"486 520 LINE",
"506 490 LINE",
"502 490 LINE",
"470 516 OFFCURVE",
"412 532 OFFCURVE",
"346 532 CURVE SMOOTH",
"135 532 OFFCURVE",
"10 431 OFFCURVE",
"10 260 CURVE SMOOTH",
"10 88 OFFCURVE",
"129 -13 OFFCURVE",
"331 -13 CURVE SMOOTH",
"416 -13 OFFCURVE",
"481 7 OFFCURVE",
"507 42 CURVE",
"509 42 LINE",
"509 -10 LINE SMOOTH",
"509 -64 OFFCURVE",
"458 -96 OFFCURVE",
"373 -96 CURVE SMOOTH",
"282 -96 OFFCURVE",
"229 -67 OFFCURVE",
"229 -19 CURVE",
"31 -19 LINE",
"31 -154 OFFCURVE",
"156 -233 OFFCURVE",
"368 -233 CURVE SMOOTH",
"572 -233 OFFCURVE",
"692 -151 OFFCURVE",
"692 -13 CURVE SMOOTH"
);
},
{
closed = 1;
nodes = (
"218 335 OFFCURVE",
"272 379 OFFCURVE",
"363 379 CURVE SMOOTH",
"445 379 OFFCURVE",
"493 335 OFFCURVE",
"493 260 CURVE SMOOTH",
"493 184 OFFCURVE",
"445 139 OFFCURVE",
"363 139 CURVE SMOOTH",
"272 139 OFFCURVE",
"218 184 OFFCURVE",
"218 260 CURVE SMOOTH"
);
}
);
width = 712;
}
);
leftKerningGroup = o;
leftMetricsKey = o;
rightKerningGroup = g;
rightMetricsKey = n;
unicode = 0067;
},
{
color = 10;
glyphname = "gamma-latin";
lastChange = "2023-08-30 01:33:05 +0000";
layers = (
{
layerId = "FD4D3FDD-DE85-408F-A52A-FF600B1C6101";
paths = (
{
closed = 1;
nodes = (
"381 -217 OFFCURVE",
"451 -162 OFFCURVE",
"451 -79 CURVE SMOOTH",
"451 -24 OFFCURVE",
"422 34 OFFCURVE",
"381 91 CURVE SMOOTH",
"301 202 LINE",
"530 520 LINE",
"479 520 LINE",
"275 238 LINE",
"71 520 LINE",
"20 520 LINE",
"249 202 LINE",
"169 91 LINE SMOOTH",
"128 34 OFFCURVE",
"99 -24 OFFCURVE",
"99 -79 CURVE SMOOTH",
"99 -162 OFFCURVE",
"169 -217 OFFCURVE",
"275 -217 CURVE SMOOTH"
);
},
{
closed = 1;
nodes = (
"147 -20 OFFCURVE",
"173 26 OFFCURVE",
"218 88 CURVE SMOOTH",
"275 167 LINE",
"332 88 LINE SMOOTH",
"377 26 OFFCURVE",
"403 -20 OFFCURVE",
"403 -77 CURVE SMOOTH",
"403 -135 OFFCURVE",
"352 -175 OFFCURVE",
"275 -175 CURVE SMOOTH",
"198 -175 OFFCURVE",
"147 -135 OFFCURVE",
"147 -77 CURVE SMOOTH"
);
}
);
width = 550;
},
{
layerId = m002;
paths = (
{
closed = 1;
nodes = (
"503 -217 OFFCURVE",
"616 -132 OFFCURVE",
"616 13 CURVE SMOOTH",
"616 63 OFFCURVE",
"597 115 OFFCURVE",
"565 153 CURVE SMOOTH",
"430 317 LINE",
"585 520 LINE",
"364 520 LINE",
"313 458 LINE",
"262 520 LINE",
"41 520 LINE",
"196 317 LINE",
"61 153 LINE SMOOTH",
"29 115 OFFCURVE",
"10 63 OFFCURVE",
"10 13 CURVE SMOOTH",
"10 -132 OFFCURVE",
"123 -217 OFFCURVE",
"313 -217 CURVE SMOOTH"
);
},
{
closed = 1;
nodes = (
"218 29 OFFCURVE",
"231 58 OFFCURVE",
"254 88 CURVE SMOOTH",
"313 165.003 LINE",
"372 88 LINE SMOOTH",
"395 58 OFFCURVE",
"408 29 OFFCURVE",
"408 9 CURVE SMOOTH",
"408 -27 OFFCURVE",
"373 -49 OFFCURVE",
"313 -49 CURVE SMOOTH",
"253 -49 OFFCURVE",
"218 -27 OFFCURVE",
"218 9 CURVE SMOOTH"
);
}
);
width = 626;
}
);
leftKerningGroup = v;
leftMetricsKey = v;
rightKerningGroup = v;
rightMetricsKey = v;
unicode = 0263;
},
{
color = 10;
glyphname = glottalstop;
lastChange = "2023-08-30 01:35:17 +0000";
layers = (
{
layerId = "FD4D3FDD-DE85-408F-A52A-FF600B1C6101";
paths = (
{
closed = 1;
nodes = (
"283 0 LINE",
"283 315 OFFCURVE",
"556 285 OFFCURVE",
"556 521 CURVE SMOOTH",
"556 650 OFFCURVE",
"460 726 OFFCURVE",
"298 726 CURVE SMOOTH",
"130 726 OFFCURVE",
"30 649 OFFCURVE",
"30 520 CURVE",
"78 520 LINE",
"78 623 OFFCURVE",
"160 684 OFFCURVE",
"298 684 CURVE SMOOTH",
"430 684 OFFCURVE",
"508 623 OFFCURVE",
"508 521 CURVE SMOOTH",
"508 315 OFFCURVE",
"235 340 OFFCURVE",
"235 0 CURVE"
);
}
);
width = 586;
},
{
layerId = m002;
paths = (
{
closed = 1;
nodes = (
"377 0 LINE",
"377 258 OFFCURVE",
"682 216 OFFCURVE",
"682 475 CURVE SMOOTH",
"682 633 OFFCURVE",
"557 726 OFFCURVE",
"346 726 CURVE SMOOTH",
"135 726 OFFCURVE",
"10 629 OFFCURVE",
"10 465 CURVE",
"218 465 LINE",
"218 530 OFFCURVE",
"266 568 OFFCURVE",
"346 568 CURVE SMOOTH",
"426 568 OFFCURVE",
"474 533 OFFCURVE",
"474 475 CURVE SMOOTH",
"474 303 OFFCURVE",
"179 321 OFFCURVE",
"179 0 CURVE"
);
}
);
width = 692;
}
);
leftKerningGroup = o;
leftMetricsKey = o;
rightKerningGroup = p;
rightMetricsKey = o;
unicode = 0294;
},
{
color = 10;
glyphname = glottalstopreversed;
lastChange = "2023-08-30 01:35:22 +0000";
layers = (
{
layerId = "FD4D3FDD-DE85-408F-A52A-FF600B1C6101";
paths = (
{
closed = 1;
nodes = (
"351 0 LINE",
"351 340 OFFCURVE",
"78 315 OFFCURVE",
"78 521 CURVE SMOOTH",
"78 623 OFFCURVE",
"156 684 OFFCURVE",
"288 684 CURVE SMOOTH",
"426 684 OFFCURVE",
"508 623 OFFCURVE",
"508 520 CURVE",
"556 520 LINE",
"556 649 OFFCURVE",
"456 726 OFFCURVE",
"288 726 CURVE SMOOTH",
"126 726 OFFCURVE",
"30 650 OFFCURVE",
"30 521 CURVE SMOOTH",
"30 285 OFFCURVE",
"303 315 OFFCURVE",
"303 0 CURVE"
);
}
);
width = 586;
},
{
layerId = m002;
paths = (
{
closed = 1;
nodes = (
"513 0 LINE",
"513 321 OFFCURVE",
"218 303 OFFCURVE",
"218 475 CURVE SMOOTH",
"218 533 OFFCURVE",
"266 568 OFFCURVE",
"346 568 CURVE SMOOTH",
"426 568 OFFCURVE",
"474 530 OFFCURVE",
"474 465 CURVE",
"682 465 LINE",
"682 629 OFFCURVE",
"557 726 OFFCURVE",
"346 726 CURVE SMOOTH",
"135 726 OFFCURVE",
"10 633 OFFCURVE",
"10 475 CURVE SMOOTH",
"10 216 OFFCURVE",
"315 258 OFFCURVE",
"315 0 CURVE"
);
}
);
width = 692;
}
);
leftKerningGroup = o;
leftMetricsKey = o;
rightKerningGroup = o;
rightMetricsKey = c;
unicode = 0295;
},
{
color = 10;
glyphname = gstroke;
lastChange = "2023-08-30 01:45:22 +0000";
layers = (
{
layerId = "FD4D3FDD-DE85-408F-A52A-FF600B1C6101";
paths = (
{
closed = 1;
nodes = (
"608 238 LINE",
"684 238 LINE",
"684 280 LINE",
"608 280 LINE",
"608 520 LINE",
"545 520 LINE",
"565 412 LINE",
"563 412 LINE",
"522 484 OFFCURVE",
"426 532 OFFCURVE",
"325 532 CURVE SMOOTH",
"148 532 OFFCURVE",
"30 423 OFFCURVE",
"30 260 CURVE SMOOTH",
"30 96 OFFCURVE",
"150 -13 OFFCURVE",
"331 -13 CURVE SMOOTH",
"420 -13 OFFCURVE",
"513 31 OFFCURVE",
"563 98 CURVE",
"565 98 LINE",
"560 -22 LINE SMOOTH",
"556 -123 OFFCURVE",
"464 -191 OFFCURVE",
"329 -191 CURVE SMOOTH",
"205 -191 OFFCURVE",
"111 -139 OFFCURVE",
"95 -61 CURVE",
"47 -61 LINE",
"66 -164 OFFCURVE",
"178 -233 OFFCURVE",
"328 -233 CURVE SMOOTH",
"496 -233 OFFCURVE",
"608 -144 OFFCURVE",
"608 -11 CURVE SMOOTH"
);
},
{
closed = 1;
nodes = (
"78 398 OFFCURVE",
"177 490 OFFCURVE",
"326 490 CURVE SMOOTH",
"460 490 OFFCURVE",
"551 406 OFFCURVE",
"558 278 CURVE",
"484 283 LINE",
"484 238 LINE",
"558 238 LINE",
"549 111 OFFCURVE",
"458 29 OFFCURVE",
"326 29 CURVE SMOOTH",
"177 29 OFFCURVE",
"78 121 OFFCURVE",
"78 260 CURVE SMOOTH"
);
}
);
width = 724;
},
{
layerId = m002;
paths = (
{
closed = 1;
nodes = (
"692 199 LINE",
"762 199 LINE",
"762 319 LINE",
"692 319 LINE",
"692 520 LINE",
"486 520 LINE",
"506 490 LINE",
"502 490 LINE",
"470 516 OFFCURVE",
"412 532 OFFCURVE",
"346 532 CURVE SMOOTH",
"135 532 OFFCURVE",
"10 431 OFFCURVE",
"10 260 CURVE SMOOTH",
"10 88 OFFCURVE",
"129 -13 OFFCURVE",
"331 -13 CURVE SMOOTH",
"416 -13 OFFCURVE",
"481 7 OFFCURVE",
"507 42 CURVE",
"509 42 LINE",
"509 -10 LINE SMOOTH",
"509 -64 OFFCURVE",
"458 -96 OFFCURVE",
"373 -96 CURVE SMOOTH",
"282 -96 OFFCURVE",
"229 -67 OFFCURVE",
"229 -19 CURVE",
"31 -19 LINE",
"31 -154 OFFCURVE",
"156 -233 OFFCURVE",
"368 -233 CURVE SMOOTH",
"572 -233 OFFCURVE",
"692 -151 OFFCURVE",
"692 -13 CURVE SMOOTH"
);
},
{
closed = 1;
nodes = (
"218 335 OFFCURVE",
"272 379 OFFCURVE",
"363 379 CURVE SMOOTH",
"421 379 OFFCURVE",
"462 357 OFFCURVE",
"481 317 CURVE",
"398 322 LINE",
"398 199 LINE",
"480 199 LINE",
"460 161 OFFCURVE",
"420 139 OFFCURVE",
"363 139 CURVE SMOOTH",
"272 139 OFFCURVE",
"218 184 OFFCURVE",
"218 260 CURVE SMOOTH"
);
}
);
width = 782;
}
);
leftKerningGroup = o;
leftMetricsKey = g;
rightKerningGroup = g;
rightMetricsKey = g;
unicode = 01E5;
},
{
glyphname = h;
lastChange = "2023-09-01 23:20:13 +0000";
layers = (
{
anchors = (
{
name = Bottom;
position = "{285, 0}";
},
{
name = Top;
position = "{64, 736}";
}
);
layerId = "FD4D3FDD-DE85-408F-A52A-FF600B1C6101";
paths = (
{
closed = 1;
nodes = (
"88 285 LINE SMOOTH",
"88 414 OFFCURVE",
"165 490 OFFCURVE",
"295 490 CURVE SMOOTH",
"412 490 OFFCURVE",
"481 430 OFFCURVE",
"481 328 CURVE SMOOTH",
"481 0 LINE",
"529 0 LINE",
"529 333 LINE SMOOTH",
"529 458 OFFCURVE",
"444 532 OFFCURVE",
"300 532 CURVE SMOOTH",
"192 532 OFFCURVE",
"112 493 OFFCURVE",
"85 427 CURVE",
"83 427 LINE",
"93 520 LINE",
"93 736 LINE",
"40 736 LINE",
"40 0 LINE",
"88 0 LINE"
);
}
);
width = 569;
},
{
anchors = (
{
name = Bottom;
position = "{342, 0}";
},
{
name = Top;
position = "{115, 736}";
}
);
layerId = m002;
paths = (
{
closed = 1;
nodes = (
"218 268 LINE SMOOTH",
"218 329 OFFCURVE",
"268 370 OFFCURVE",
"342 370 CURVE SMOOTH",
"416 370 OFFCURVE",
"465 329 OFFCURVE",
"465 268 CURVE SMOOTH",
"465 0 LINE",
"663 0 LINE",
"663 333 LINE SMOOTH",
"663 452 OFFCURVE",
"557 532 OFFCURVE",
"398 532 CURVE SMOOTH",
"305 532 OFFCURVE",
"227 510 OFFCURVE",
"202 477 CURVE",
"198 477 LINE",
"218 520 LINE",
"218 736 LINE",
"20 736 LINE",
"20 0 LINE",
"218 0 LINE"
);
}
);
width = 683;
}
);
leftKerningGroup = h;
leftMetricsKey = n;
rightKerningGroup = n;
rightMetricsKey = n;
unicode = 0068;
},
{
color = 10;
glyphname = hbar;
lastChange = "2023-09-05 19:35:31 +0000";
layers = (
{
layerId = "FD4D3FDD-DE85-408F-A52A-FF600B1C6101";
paths = (
{
closed = 1;
nodes = (
"181 285 LINE SMOOTH",
"181 414 OFFCURVE",
"258 490 OFFCURVE",
"388 490 CURVE SMOOTH",
"505 490 OFFCURVE",
"574 430 OFFCURVE",
"574 328 CURVE SMOOTH",
"574 0 LINE",
"622 0 LINE",
"622 333 LINE SMOOTH",
"622 458 OFFCURVE",
"537 532 OFFCURVE",
"393 532 CURVE SMOOTH",
"285 532 OFFCURVE",
"205 493 OFFCURVE",
"178 427 CURVE",
"176 427 LINE",
"186 520 LINE",
"186 619 LINE",
"315 619 LINE",
"315 661 LINE",
"186 661 LINE",
"186 736 LINE",
"133 736 LINE",
"133 659 LINE",
"40 664 LINE",
"40 619 LINE",
"133 619 LINE",
"133 0 LINE",
"181 0 LINE"
);
}
);
width = 662;
},
{
layerId = m002;
paths = (
{
closed = 1;
nodes = (
"294 268 LINE SMOOTH",
"294 329 OFFCURVE",
"344 370 OFFCURVE",
"418 370 CURVE SMOOTH",
"492 370 OFFCURVE",
"541 329 OFFCURVE",
"541 268 CURVE SMOOTH",
"541 0 LINE",
"739 0 LINE",
"739 333 LINE SMOOTH",
"739 452 OFFCURVE",
"633 532 OFFCURVE",
"474 532 CURVE SMOOTH",
"381 532 OFFCURVE",
"303 510 OFFCURVE",
"278 477 CURVE",
"274 477 LINE",
"294 520 LINE",
"294 587 LINE",
"365 587 LINE",
"365 687 LINE",
"294 687 LINE",
"294 736 LINE",
"96 736 LINE",
"96 685 LINE",
"20 690 LINE",
"20 587 LINE",
"96 587 LINE",
"96 0 LINE",
"294 0 LINE"
);
}
);
width = 759;
}
);
leftKerningGroup = hbar;
leftMetricsKey = n;
rightKerningGroup = n;
rightMetricsKey = n;
unicode = 0127;
},
{
color = 10;
glyphname = idotless;
lastChange = "2023-08-30 01:30:46 +0000";
layers = (
{
anchors = (
{
name = Bottom;
position = "{64, 0}";
},
{
name = Top;
position = "{64, 520}";
}
);
layerId = "FD4D3FDD-DE85-408F-A52A-FF600B1C6101";
paths = (
{
closed = 1;
nodes = (
"40 520 LINE",
"40 0 LINE",
"88 0 LINE",
"88 520 LINE"
);
}
);
width = 128;
},
{
anchors = (
{
name = Bottom;
position = "{119, 0}";
},
{
name = Top;
position = "{119, 520}";
}
);
layerId = m002;
paths = (
{
closed = 1;
nodes = (
"20 520 LINE",
"20 0 LINE",
"218 0 LINE",
"218 520 LINE"
);
}
);
width = 238;
}
);
leftKerningGroup = i;
leftMetricsKey = n;
rightKerningGroup = i;
rightMetricsKey = n;
unicode = 0131;
},
{
color = 10;
glyphname = ij;
lastChange = "2023-09-06 16:03:44 +0000";
layers = (
{
layerId = "FD4D3FDD-DE85-408F-A52A-FF600B1C6101";
paths = (
{
closed = 1;
nodes = (
"60 -171 OFFCURVE",
"169 -233 OFFCURVE",
"312 -233 CURVE SMOOTH",
"477 -233 OFFCURVE",
"587 -144 OFFCURVE",
"587 -11 CURVE SMOOTH",
"587 520 LINE",
"539 520 LINE",
"539 185 LINE SMOOTH",
"539 91 OFFCURVE",
"449 29 OFFCURVE",
"313 29 CURVE SMOOTH",
"190 29 OFFCURVE",
"108 89 OFFCURVE",
"108 179 CURVE SMOOTH",
"108 520 LINE",
"60 520 LINE",
"60 167 LINE SMOOTH",
"60 59 OFFCURVE",
"161 -13 OFFCURVE",
"313 -13 CURVE SMOOTH",
"422 -13 OFFCURVE",
"511 23 OFFCURVE",
"537 78 CURVE",
"539 78 LINE",
"539 -22 LINE SMOOTH",
"539 -123 OFFCURVE",
"450 -191 OFFCURVE",
"316 -191 CURVE SMOOTH",
"194 -191 OFFCURVE",
"103 -146 OFFCURVE",
"88 -79 CURVE",
"40 -79 LINE"
);
},
{
closed = 1;
nodes = (
"587 567 LINE",
"587 649 LINE",
"539 649 LINE",
"539 567 LINE"
);
},
{
closed = 1;
nodes = (
"108 567 LINE",
"108 649 LINE",
"60 649 LINE",
"60 567 LINE"
);
}
);
width = 627;
},
{
layerId = m002;
paths = (
{
closed = 1;
nodes = (
"20 -155 OFFCURVE",
"151 -233 OFFCURVE",
"347 -233 CURVE SMOOTH",
"553 -233 OFFCURVE",
"691 -141 OFFCURVE",
"691 -3 CURVE SMOOTH",
"691 520 LINE",
"493 520 LINE",
"493 248 LINE SMOOTH",
"493 189 OFFCURVE",
"442 150 OFFCURVE",
"365 150 CURVE SMOOTH",
"289 150 OFFCURVE",
"239 189 OFFCURVE",
"239 248 CURVE SMOOTH",
"239 520 LINE",
"41 520 LINE",
"41 180 LINE SMOOTH",
"41 65 OFFCURVE",
"149 -12 OFFCURVE",
"310 -12 CURVE SMOOTH",
"396 -12 OFFCURVE",
"470 6 OFFCURVE",
"496 33 CURVE",
"499 33 LINE",
"496 -10 LINE SMOOTH",
"492 -62 OFFCURVE",
"434 -96 OFFCURVE",
"352 -96 CURVE SMOOTH",
"272 -96 OFFCURVE",
"218 -73 OFFCURVE",
"218 -39 CURVE",
"20 -39 LINE"
);
},
{
closed = 1;
nodes = (
"239 567 LINE",
"239 717 LINE",
"41 717 LINE",
"41 567 LINE"
);
},
{
closed = 1;
nodes = (
"691 567 LINE",
"691 717 LINE",
"493 717 LINE",
"493 567 LINE"
);
}
);
width = 711;
}
);
leftKerningGroup = ij;
leftMetricsKey = u;
rightKerningGroup = ij;
unicode = 0133;
},
{
color = 10;
glyphname = "iota-latin";
lastChange = "2023-08-31 02:44:25 +0000";
layers = (
{
layerId = "FD4D3FDD-DE85-408F-A52A-FF600B1C6101";
paths = (
{
closed = 1;
nodes = (
"40 27 OFFCURVE",
"79 -11 OFFCURVE",
"144 -11 CURVE SMOOTH",
"160 -11 OFFCURVE",
"176 -7 OFFCURVE",
"189 -1 CURVE",
"189 41 LINE",
"179 34 OFFCURVE",
"162 30 OFFCURVE",
"143 30 CURVE SMOOTH",
"108 30 OFFCURVE",
"88 53 OFFCURVE",
"88 91 CURVE SMOOTH",
"88 520 LINE",
"40 520 LINE",
"40 91 LINE SMOOTH"
);
}
);
width = 229;
},
{
layerId = m002;
paths = (
{
closed = 1;
nodes = (
"20 55 OFFCURVE",
"105 -13 OFFCURVE",
"250 -13 CURVE SMOOTH",
"276 -13 OFFCURVE",
"303 -8 OFFCURVE",
"321 0 CURVE",
"321 160 LINE",
"303 151 OFFCURVE",
"280 146 OFFCURVE",
"259 146 CURVE SMOOTH",
"233 146 OFFCURVE",
"218 163 OFFCURVE",
"218 191 CURVE SMOOTH",
"218 520 LINE",
"20 520 LINE",
"20 171 LINE SMOOTH"
);
}
);
width = 341;
}
);
leftKerningGroup = iota;
leftMetricsKey = i;
rightKerningGroup = iota;
rightMetricsKey = i;
unicode = 0269;
},
{
color = 10;
glyphname = istroke;
lastChange = "2023-09-06 15:59:03 +0000";
layers = (
{
components = (
{
name = idotless;
transform = "{1, 0, 0, 1, 76, 0}";
},
{
name = dotaccentcomb;
transform = "{1, 0, 0, 1, 86, 0}";
}
);
layerId = "FD4D3FDD-DE85-408F-A52A-FF600B1C6101";
paths = (
{
closed = 1;
nodes = (
"240 251 LINE",
"240 293 LINE",
"161 293 LINE",
"119 291 LINE",
"40 296 LINE",
"40 251 LINE"
);
}
);
width = 280;
},
{
components = (
{
name = idotless;
transform = "{1, 0, 0, 1, 83, 0}";
},
{
name = dotaccentcomb;
transform = "{1, 0, 0, 1, 83, 0}";
}
);
layerId = m002;
paths = (
{
closed = 1;
nodes = (
"384 209 LINE",
"384 329 LINE",
"296 329 LINE",
"108 327 LINE",
"20 332 LINE",
"20 209 LINE"
);
}
);
width = 404;
}
);
leftKerningGroup = i;
leftMetricsKey = i;
rightKerningGroup = i;
rightMetricsKey = i;
unicode = 0268;
},
{
color = 10;
glyphname = jdotless;
lastChange = "2023-08-30 01:17:28 +0000";
layers = (
{
anchors = (
{
name = Top;
position = "{202, 520}";
}
);
hints = (
{
horizontal = 1;
place = "{520, 0}";
type = Stem;
}
);
layerId = "FD4D3FDD-DE85-408F-A52A-FF600B1C6101";
paths = (
{
closed = 1;
nodes = (
"226 520 LINE",
"178 520 LINE",
"178 -70 LINE SMOOTH",
"178 -147 OFFCURVE",
"134 -192 OFFCURVE",
"59 -192 CURVE SMOOTH",
"40 -192 OFFCURVE",
"22 -191 OFFCURVE",
"10 -188 CURVE",
"10 -230 LINE",
"25 -232 OFFCURVE",
"43 -233 OFFCURVE",
"58 -233 CURVE SMOOTH",
"164 -233 OFFCURVE",
"226 -172 OFFCURVE",
"226 -70 CURVE SMOOTH"
);
}
);
width = 266;
},
{
anchors = (
{
name = Top;
position = "{192, 520}";
}
);
hints = (
{
horizontal = 1;
place = "{520, 0}";
type = Stem;
}
);
layerId = m002;
paths = (
{
closed = 1;
nodes = (
"291 520 LINE",
"93 520 LINE",
"93 -12 LINE SMOOTH",
"93 -51 OFFCURVE",
"77 -74 OFFCURVE",
"49 -74 CURVE SMOOTH",
"31 -74 OFFCURVE",
"13 -73 OFFCURVE",
"0 -70 CURVE",
"0 -230 LINE",
"11 -232 OFFCURVE",
"29 -233 OFFCURVE",
"48 -233 CURVE SMOOTH",
"201 -233 OFFCURVE",
"291 -150 OFFCURVE",
"291 -10 CURVE SMOOTH"
);
}
);
width = 311;
}
);
leftKerningGroup = j;
rightKerningGroup = j;
rightMetricsKey = n;
unicode = 0237;
},
{
glyphname = k;
lastChange = "2023-08-30 00:27:53 +0000";
layers = (
{
anchors = (
{
name = Bottom;
position = "{266, 0}";
},
{
name = Top;
position = "{232, 520}";
}
);
layerId = "FD4D3FDD-DE85-408F-A52A-FF600B1C6101";
paths = (
{
closed = 1;
nodes = (
"40 0 LINE",
"88 0 LINE",
"88 185 LINE",
"204 277 LINE",
"454 0 LINE",
"522 0 LINE",
"243 308 LINE",
"510 520 LINE",
"437 520 LINE",
"90 251 LINE",
"88 251 LINE",
"88 736 LINE",
"40 736 LINE"
);
}
);
width = 542;
},
{
anchors = (
{
name = Bottom;
position = "{310, 0}";
},
{
name = Top;
position = "{272, 520}";
}
);
layerId = m002;
paths = (
{
closed = 1;
nodes = (
"20 0 LINE",
"218 0 LINE",
"218 146 LINE",
"289 207 LINE",
"445 0 LINE",
"659 0 LINE",
"425 323 LINE",
"656 520 LINE",
"400 520 LINE",
"220 380 LINE",
"218 380 LINE",
"218 736 LINE",
"20 736 LINE"
);
}
);
width = 669;
}
);
leftKerningGroup = n;
leftMetricsKey = n;
rightKerningGroup = k;
unicode = 006B;
},
{
color = 10;
glyphname = kgreenlandic;
lastChange = "2023-08-30 18:52:02 +0000";
layers = (
{
layerId = "FD4D3FDD-DE85-408F-A52A-FF600B1C6101";
paths = (
{
closed = 1;
nodes = (
"40 0 LINE",
"88 0 LINE",
"88 272 LINE",
"90 272 LINE",
"410 0 LINE",
"488 0 LINE",
"156 280 LINE",
"492 520 LINE",
"415 520 LINE",
"91 289 LINE",
"88 289 LINE",
"88 520 LINE",
"40 520 LINE"
);
}
);
width = 512;
},
{
layerId = m002;
paths = (
{
closed = 1;
nodes = (
"20 0 LINE",
"218 0 LINE",
"218 218 LINE",
"221 218 LINE",
"459 0 LINE",
"694 0 LINE",
"391 278 LINE",
"699 520 LINE",
"459 520 LINE",
"220 334 LINE",
"218 334 LINE",
"218 520 LINE",
"20 520 LINE"
);
}
);
width = 709;
}
);
leftKerningGroup = n;
leftMetricsKey = k;
rightKerningGroup = k;
rightMetricsKey = k;
unicode = 0138;
},
{
glyphname = l;
lastChange = "2023-09-05 19:43:33 +0000";
layers = (
{
anchors = (
{
name = Bottom;
position = "{64, 0}";
},
{
name = Caron;
position = "{166, 560}";
},
{
name = Top;
position = "{64, 736}";
},
{
name = Top_EC;
position = "{155, 570}";
}
);
layerId = "FD4D3FDD-DE85-408F-A52A-FF600B1C6101";
paths = (
{
closed = 1;
nodes = (
"40 0 LINE",
"88 0 LINE",
"88 736 LINE",
"40 736 LINE"
);
}
);
width = 128;
},
{
anchors = (
{
name = Bottom;
position = "{119, 0}";
},
{
name = Caron;
position = "{336, 560}";
},
{
name = Top;
position = "{119, 736}";
},
{
name = Top_EC;
position = "{336, 570}";
}
);
layerId = m002;
paths = (
{
closed = 1;
nodes = (
"20 0 LINE",
"218 0 LINE",
"218 736 LINE",
"20 736 LINE"
);
}
);
width = 238;
}
);
leftKerningGroup = l;
leftMetricsKey = n;
rightKerningGroup = l;
rightMetricsKey = n;
unicode = 006C;
},
{
color = 10;
glyphname = lambdastroke;
lastChange = "2023-08-30 18:52:32 +0000";
layers = (
{
layerId = "FD4D3FDD-DE85-408F-A52A-FF600B1C6101";
paths = (
{
closed = 1;
nodes = (
"297 446 LINE",
"299 446 LINE",
"445 125 LINE SMOOTH",
"486 34 OFFCURVE",
"534 -13 OFFCURVE",
"609 -13 CURVE SMOOTH",
"625 -13 OFFCURVE",
"643 -10 OFFCURVE",
"657 -5 CURVE",
"657 43 LINE",
"646 37 OFFCURVE",
"624 34 OFFCURVE",
"605 34 CURVE SMOOTH",
"557 34 OFFCURVE",
"522 66 OFFCURVE",
"495 125 CURVE SMOOTH",
"320 511 LINE",
"449 536 LINE",
"455 576 LINE",
"304 546 LINE",
"284 590 LINE SMOOTH",
"241 684 OFFCURVE",
"195 728 OFFCURVE",
"120 728 CURVE SMOOTH",
"104 728 OFFCURVE",
"86 725 OFFCURVE",
"72 720 CURVE",
"72 672 LINE",
"83 678 OFFCURVE",
"105 681 OFFCURVE",
"124 681 CURVE SMOOTH",
"172 681 OFFCURVE",
"207 649 OFFCURVE",
"234 590 CURVE SMOOTH",
"256 542 LINE",
"141 519 LINE",
"135 476 LINE",
"274 503 LINE",
"274 501 LINE",
"20 0 LINE",
"70 0 LINE"
);
}
);
width = 677;
},
{
layerId = m002;
paths = (
{
closed = 1;
nodes = (
"346 261 LINE",
"349 261 LINE",
"409 146 LINE SMOOTH",
"461 46 OFFCURVE",
"557 -13 OFFCURVE",
"666 -13 CURVE SMOOTH",
"691 -13 OFFCURVE",
"715 -10 OFFCURVE",
"731 -5 CURVE",
"731 155 LINE",
"719 149 OFFCURVE",
"691 146 OFFCURVE",
"655 146 CURVE SMOOTH",
"628 146 OFFCURVE",
"606 159 OFFCURVE",
"594 182 CURVE SMOOTH",
"409 537 LINE",
"504 555 LINE",
"510 595 LINE",
"391 571 LINE",
"390 573 LINE SMOOTH",
"341 671 OFFCURVE",
"243 727 OFFCURVE",
"136 727 CURVE SMOOTH",
"111 727 OFFCURVE",
"87 724 OFFCURVE",
"71 719 CURVE",
"101 559 LINE",
"113 565 OFFCURVE",
"131 568 OFFCURVE",
"147 568 CURVE SMOOTH",
"168 568 OFFCURVE",
"190 557 OFFCURVE",
"202 541 CURVE SMOOTH",
"205 537 LINE",
"102 519 LINE",
"96 476 LINE",
"223 501 LINE",
"245 459 LINE",
"20 0 LINE",
"218 0 LINE"
);
}
);
width = 751;
}
);
leftKerningGroup = A;
leftMetricsKey = A;
rightKerningGroup = A;
rightMetricsKey = A;
unicode = 019B;
},
{
color = 10;
glyphname = lbar;
lastChange = "2023-08-30 18:56:09 +0000";
layers = (
{
layerId = "FD4D3FDD-DE85-408F-A52A-FF600B1C6101";
paths = (
{
closed = 1;
nodes = (
"116 381 LINE",
"40 386 LINE",
"40 341 LINE",
"116 341 LINE",
"116 0 LINE",
"164 0 LINE",
"164 341 LINE",
"240 341 LINE",
"240 383 LINE",
"164 383 LINE",
"164 736 LINE",
"116 736 LINE"
);
}
);
width = 280;
},
{
layerId = m002;
paths = (
{
closed = 1;
nodes = (
"103 417 LINE",
"20 422 LINE",
"20 299 LINE",
"103 299 LINE",
"103 0 LINE",
"301 0 LINE",
"301 299 LINE",
"384 299 LINE",
"384 419 LINE",
"301 419 LINE",
"301 736 LINE",
"103 736 LINE"
);
}
);
width = 404;
}
);
leftKerningGroup = l;
leftMetricsKey = l;
rightKerningGroup = l;
rightMetricsKey = l;
unicode = 019A;
},
{
color = 10;
glyphname = lbelt;
lastChange = "2023-08-30 18:56:09 +0000";
layers = (
{
layerId = "FD4D3FDD-DE85-408F-A52A-FF600B1C6101";
paths = (
{
closed = 1;
nodes = (
"141 487 LINE",
"133 490 OFFCURVE",
"124 491 OFFCURVE",
"115 491 CURVE SMOOTH",
"70 491 OFFCURVE",
"40 463 OFFCURVE",
"40 421 CURVE SMOOTH",
"40 373 OFFCURVE",
"73 341 OFFCURVE",
"123 341 CURVE SMOOTH",
"141 341 LINE",
"141 0 LINE",
"189 0 LINE",
"189 341 LINE",
"269 341 LINE",
"269 383 LINE",
"189 383 LINE",
"189 736 LINE",
"141 736 LINE"
);
},
{
closed = 1;
nodes = (
"88 438 OFFCURVE",
"99 449 OFFCURVE",
"115 449 CURVE SMOOTH",
"131 449 OFFCURVE",
"141 438 OFFCURVE",
"141 421 CURVE SMOOTH",
"141 383 LINE",
"131 383 LINE SMOOTH",
"105 383 OFFCURVE",
"88 398 OFFCURVE",
"88 421 CURVE SMOOTH"
);
}
);
width = 309;
},
{
layerId = m002;
paths = (
{
closed = 1;
nodes = (
"125 489 LINE",
"119 490 OFFCURVE",
"112 491 OFFCURVE",
"105 491 CURVE SMOOTH",
"52 491 OFFCURVE",
"20 461 OFFCURVE",
"20 410 CURVE SMOOTH",
"20 355 OFFCURVE",
"55 323 OFFCURVE",
"114 323 CURVE SMOOTH",
"125 323 LINE",
"125 0 LINE",
"323 0 LINE",
"323 323 LINE",
"423 323 LINE",
"423 383 LINE",
"323 383 LINE",
"323 736 LINE",
"125 736 LINE"
);
},
{
closed = 1;
nodes = (
"80 432 OFFCURVE",
"89 441 OFFCURVE",
"103 441 CURVE SMOOTH",
"117 441 OFFCURVE",
"125 434 OFFCURVE",
"125 421 CURVE SMOOTH",
"125 383 LINE",
"115 383 LINE SMOOTH",
"93 383 OFFCURVE",
"80 396 OFFCURVE",
"80 418 CURVE SMOOTH"
);
}
);
width = 443;
}
);
leftKerningGroup = l;
leftMetricsKey = l;
rightKerningGroup = l;
rightMetricsKey = l;
unicode = 026C;
},
{
color = 10;
glyphname = lmiddletilde;
lastChange = "2023-08-30 18:56:09 +0000";
layers = (
{
layerId = "FD4D3FDD-DE85-408F-A52A-FF600B1C6101";
paths = (
{
closed = 1;
nodes = (
"213 0 LINE",
"213 324 LINE",
"225 321 OFFCURVE",
"238 318 OFFCURVE",
"252 318 CURVE SMOOTH",
"301 318 OFFCURVE",
"334 350 OFFCURVE",
"334 399 CURVE",
"286 399 LINE",
"286 376 OFFCURVE",
"272 361 OFFCURVE",
"252 361 CURVE SMOOTH",
"238 361 OFFCURVE",
"225 364 OFFCURVE",
"213 369 CURVE",
"213 736 LINE",
"165 736 LINE",
"165 390 LINE",
"152 394 OFFCURVE",
"138 398 OFFCURVE",
"122 398 CURVE SMOOTH",
"73 398 OFFCURVE",
"40 366 OFFCURVE",
"40 317 CURVE",
"88 317 LINE",
"88 340 OFFCURVE",
"102 355 OFFCURVE",
"122 355 CURVE SMOOTH",
"137 355 OFFCURVE",
"151 350 OFFCURVE",
"165 344 CURVE",
"165 0 LINE"
);
}
);
width = 374;
},
{
layerId = m002;
paths = (
{
closed = 1;
nodes = (
"361 0 LINE",
"361 345 LINE",
"375 344 OFFCURVE",
"385 343 OFFCURVE",
"392 343 CURVE SMOOTH",
"462 343 OFFCURVE",
"504 383 OFFCURVE",
"504 451 CURVE",
"399 451 LINE",
"399 438 OFFCURVE",
"391 431 OFFCURVE",
"377 431 CURVE SMOOTH",
"371 431 OFFCURVE",
"366 431 OFFCURVE",
"361 432 CURVE",
"361 736 LINE",
"163 736 LINE",
"163 453 LINE",
"152 454 OFFCURVE",
"143 455 OFFCURVE",
"134 455 CURVE SMOOTH",
"62 455 OFFCURVE",
"20 415 OFFCURVE",
"20 347 CURVE",
"125 347 LINE",
"125 360 OFFCURVE",
"133 368 OFFCURVE",
"147 368 CURVE SMOOTH",
"151 368 OFFCURVE",
"157 368 OFFCURVE",
"163 367 CURVE",
"163 0 LINE"
);
}
);
width = 524;
}
);
leftKerningGroup = l;
leftMetricsKey = l;
rightKerningGroup = l;
rightMetricsKey = l;
unicode = 026B;
},
{
color = 10;
glyphname = lslash;
lastChange = "2023-08-30 18:56:09 +0000";
layers = (
{
layerId = "FD4D3FDD-DE85-408F-A52A-FF600B1C6101";
paths = (
{
closed = 1;
nodes = (
"140 415 LINE",
"40 356 LINE",
"40 298 LINE",
"140 357 LINE",
"140 0 LINE",
"188 0 LINE",
"188 386 LINE",
"288 445 LINE",
"288 503 LINE",
"188 444 LINE",
"188 736 LINE",
"140 736 LINE"
);
}
);
width = 328;
},
{
layerId = m002;
paths = (
{
closed = 1;
nodes = (
"120 412 LINE",
"20 345 LINE",
"20 207 LINE",
"120 275 LINE",
"120 0 LINE",
"288 0 LINE",
"288 388 LINE",
"388 456 LINE",
"388 592 LINE",
"288 525 LINE",
"288 736 LINE",
"120 736 LINE"
);
}
);
width = 408;
}
);
leftKerningGroup = l;
leftMetricsKey = n;
rightKerningGroup = l;
rightMetricsKey = n;
unicode = 0142;
},
{
glyphname = m;
lastChange = "2023-08-30 00:27:53 +0000";
layers = (
{
anchors = (
{
name = Bottom;
position = "{494, 0}";
}
);
hints = (
{
horizontal = 1;
origin = "{0, 35}";
target = up;
type = BottomGhost;
}
);
layerId = "FD4D3FDD-DE85-408F-A52A-FF600B1C6101";
paths = (
{
closed = 1;
nodes = (
"88 293 LINE SMOOTH",
"88 411 OFFCURVE",
"169 490 OFFCURVE",
"290 490 CURVE SMOOTH",
"398 490 OFFCURVE",
"470 421 OFFCURVE",
"470 318 CURVE SMOOTH",
"470 0 LINE",
"518 0 LINE",
"518 323 LINE SMOOTH",
"518 423 OFFCURVE",
"598 490 OFFCURVE",
"717 490 CURVE SMOOTH",
"827 490 OFFCURVE",
"900 421 OFFCURVE",
"900 318 CURVE SMOOTH",
"900 0 LINE",
"948 0 LINE",
"948 323 LINE SMOOTH",
"948 448 OFFCURVE",
"858 532 OFFCURVE",
"722 532 CURVE SMOOTH",
"612 532 OFFCURVE",
"521 484 OFFCURVE",
"495 413 CURVE",
"493 413 LINE",
"462 484 OFFCURVE",
"383 532 OFFCURVE",
"295 532 CURVE SMOOTH",
"190 532 OFFCURVE",
"106 490 OFFCURVE",
"85 427 CURVE",
"83 427 LINE",
"93 520 LINE",
"40 520 LINE",
"40 0 LINE",
"88 0 LINE"
);
}
);
width = 988;
},
{
anchors = (
{
name = Bottom;
position = "{535, 0}";
}
);
layerId = m002;
paths = (
{
closed = 1;
nodes = (
"218 276 LINE SMOOTH",
"218 332 OFFCURVE",
"262 370 OFFCURVE",
"327 370 CURVE SMOOTH",
"392 370 OFFCURVE",
"436 335 OFFCURVE",
"436 283 CURVE SMOOTH",
"436 0 LINE",
"634 0 LINE",
"634 276 LINE SMOOTH",
"634 332 OFFCURVE",
"678 370 OFFCURVE",
"743 370 CURVE SMOOTH",
"808 370 OFFCURVE",
"852 335 OFFCURVE",
"852 283 CURVE SMOOTH",
"852 0 LINE",
"1050 0 LINE",
"1050 313 LINE SMOOTH",
"1050 444 OFFCURVE",
"949 532 OFFCURVE",
"797 532 CURVE SMOOTH",
"707 532 OFFCURVE",
"624 506 OFFCURVE",
"589 467 CURVE",
"587 467 LINE",
"553 506 OFFCURVE",
"472 532 OFFCURVE",
"385 532 CURVE SMOOTH",
"311 532 OFFCURVE",
"235 506 OFFCURVE",
"195 467 CURVE",
"191 467 LINE",
"206 520 LINE",
"20 520 LINE",
"20 0 LINE",
"218 0 LINE"
);
}
);
width = 1070;
}
);
leftKerningGroup = n;
leftMetricsKey = n;
rightKerningGroup = n;
rightMetricsKey = n;
unicode = 006D;
},
{
glyphname = n;
lastChange = "2023-08-30 01:36:43 +0000";
layers = (
{
anchors = (
{
name = Bottom;
position = "{295, 0}";
},
{
name = Top;
position = "{310, 532}";
}
);
layerId = "FD4D3FDD-DE85-408F-A52A-FF600B1C6101";
paths = (
{
closed = 1;
nodes = (
"88 285 LINE SMOOTH",
"88 414 OFFCURVE",
"169 490 OFFCURVE",
"305 490 CURVE SMOOTH",
"428 490 OFFCURVE",
"501 430 OFFCURVE",
"501 328 CURVE SMOOTH",
"501 0 LINE",
"549 0 LINE",
"549 333 LINE SMOOTH",
"549 458 OFFCURVE",
"460 532 OFFCURVE",
"310 532 CURVE SMOOTH",
"201 532 OFFCURVE",
"117 491 OFFCURVE",
"85 422 CURVE",
"83 422 LINE",
"93 520 LINE",
"40 520 LINE",
"40 0 LINE",
"88 0 LINE"
);
}
);
width = 589;
},
{
anchors = (
{
name = Bottom;
position = "{342, 0}";
},
{
name = Top;
position = "{316, 532}";
}
);
layerId = m002;
paths = (
{
closed = 1;
nodes = (
"218 258 LINE SMOOTH",
"218 325 OFFCURVE",
"268 370 OFFCURVE",
"342 370 CURVE SMOOTH",
"416 370 OFFCURVE",
"465 325 OFFCURVE",
"465 258 CURVE SMOOTH",
"465 0 LINE",
"663 0 LINE",
"663 333 LINE SMOOTH",
"663 452 OFFCURVE",
"557 532 OFFCURVE",
"398 532 CURVE SMOOTH",
"305 532 OFFCURVE",
"227 510 OFFCURVE",
"202 477 CURVE",
"198 477 LINE",
"218 520 LINE",
"20 520 LINE",
"20 0 LINE",
"218 0 LINE"
);
}
);
width = 683;
}
);
leftKerningGroup = n;
rightKerningGroup = n;
unicode = 006E;
},
{
color = 10;
glyphname = eng;
lastChange = "2023-08-30 01:33:13 +0000";
layers = (
{
layerId = "FD4D3FDD-DE85-408F-A52A-FF600B1C6101";
paths = (
{
closed = 1;
nodes = (
"88 285 LINE SMOOTH",
"88 414 OFFCURVE",
"169 490 OFFCURVE",
"305 490 CURVE SMOOTH",
"428 490 OFFCURVE",
"501 430 OFFCURVE",
"501 328 CURVE SMOOTH",
"501 -70 LINE SMOOTH",
"501 -147 OFFCURVE",
"457 -192 OFFCURVE",
"382 -192 CURVE SMOOTH",
"363 -192 OFFCURVE",
"345 -191 OFFCURVE",
"333 -188 CURVE",
"333 -230 LINE",
"348 -232 OFFCURVE",
"366 -233 OFFCURVE",
"381 -233 CURVE SMOOTH",
"487 -233 OFFCURVE",
"549 -172 OFFCURVE",
"549 -70 CURVE SMOOTH",
"549 333 LINE SMOOTH",
"549 458 OFFCURVE",
"460 532 OFFCURVE",
"310 532 CURVE SMOOTH",
"201 532 OFFCURVE",
"117 491 OFFCURVE",
"85 422 CURVE",
"83 422 LINE",
"93 520 LINE",
"40 520 LINE",
"40 0 LINE",
"88 0 LINE"
);
}
);
width = 589;
},
{
layerId = m002;
paths = (
{
closed = 1;
nodes = (
"218 258 LINE SMOOTH",
"218 325 OFFCURVE",
"268 370 OFFCURVE",
"342 370 CURVE SMOOTH",
"416 370 OFFCURVE",
"465 325 OFFCURVE",
"465 258 CURVE SMOOTH",
"465 -12 LINE SMOOTH",
"465 -51 OFFCURVE",
"449 -74 OFFCURVE",
"421 -74 CURVE SMOOTH",
"403 -74 OFFCURVE",
"385 -73 OFFCURVE",
"372 -70 CURVE",
"372 -230 LINE",
"383 -232 OFFCURVE",
"401 -233 OFFCURVE",
"420 -233 CURVE SMOOTH",
"573 -233 OFFCURVE",
"663 -150 OFFCURVE",
"663 -10 CURVE SMOOTH",
"663 333 LINE SMOOTH",
"663 452 OFFCURVE",
"557 532 OFFCURVE",
"398 532 CURVE SMOOTH",
"305 532 OFFCURVE",
"227 510 OFFCURVE",
"202 477 CURVE",
"198 477 LINE",
"218 520 LINE",
"20 520 LINE",
"20 0 LINE",
"218 0 LINE"
);
}
);
width = 683;
}
);
leftKerningGroup = n;
leftMetricsKey = n;
rightKerningGroup = n;
rightMetricsKey = n;
unicode = 014B;
},
{
glyphname = o;
lastChange = "2023-09-05 19:32:19 +0000";
layers = (
{
anchors = (
{
name = Bottom;
position = "{322, 0}";
},
{
name = Top;
position = "{322, 532}";
}
);
layerId = "FD4D3FDD-DE85-408F-A52A-FF600B1C6101";
paths = (
{
closed = 1;
nodes = (
"147 532 OFFCURVE",
"30 423 OFFCURVE",
"30 259 CURVE SMOOTH",
"30 96 OFFCURVE",
"147 -13 OFFCURVE",
"322 -13 CURVE SMOOTH",
"498 -13 OFFCURVE",
"615 96 OFFCURVE",
"615 259 CURVE SMOOTH",
"615 423 OFFCURVE",
"498 532 OFFCURVE",
"322 532 CURVE SMOOTH"
);
},
{
closed = 1;
nodes = (
"78 398 OFFCURVE",
"176 490 OFFCURVE",
"322 490 CURVE SMOOTH",
"469 490 OFFCURVE",
"567 398 OFFCURVE",
"567 259 CURVE SMOOTH",
"567 121 OFFCURVE",
"469 29 OFFCURVE",
"322 29 CURVE SMOOTH",
"176 29 OFFCURVE",
"78 121 OFFCURVE",
"78 259 CURVE SMOOTH"
);
}
);
width = 645;
},
{
anchors = (
{
name = Bottom;
position = "{360, 0}";
},
{
name = Top;
position = "{356, 532}";
}
);
layerId = m002;
paths = (
{
closed = 1;
nodes = (
"138 532 OFFCURVE",
"10 431 OFFCURVE",
"10 259 CURVE SMOOTH",
"10 88 OFFCURVE",
"138 -13 OFFCURVE",
"355 -13 CURVE SMOOTH",
"572 -13 OFFCURVE",
"701 88 OFFCURVE",
"701 259 CURVE SMOOTH",
"701 431 OFFCURVE",
"572 532 OFFCURVE",
"355 532 CURVE SMOOTH"
);
},
{
closed = 1;
nodes = (
"218 335 OFFCURVE",
"269 380 OFFCURVE",
"355 380 CURVE SMOOTH",
"442 380 OFFCURVE",
"493 335 OFFCURVE",
"493 259 CURVE SMOOTH",
"493 184 OFFCURVE",
"442 139 OFFCURVE",
"355 139 CURVE SMOOTH",
"269 139 OFFCURVE",
"218 184 OFFCURVE",
"218 259 CURVE SMOOTH"
);
}
);
width = 711;
}
);
leftKerningGroup = o;
rightKerningGroup = o;
unicode = 006F;
},
{
color = 10;
glyphname = oopen;
lastChange = "2023-08-30 01:38:06 +0000";
layers = (
{
layerId = "FD4D3FDD-DE85-408F-A52A-FF600B1C6101";
paths = (
{
closed = 1;
nodes = (
"30 437 LINE",
"64 469 OFFCURVE",
"139 490 OFFCURVE",
"218 490 CURVE SMOOTH",
"346 490 OFFCURVE",
"431 398 OFFCURVE",
"431 260 CURVE SMOOTH",
"431 121 OFFCURVE",
"344 29 OFFCURVE",
"214 29 CURVE SMOOTH",
"137 29 OFFCURVE",
"63 50 OFFCURVE",
"30 81 CURVE",
"30 33 LINE",
"61 5 OFFCURVE",
"134 -13 OFFCURVE",
"214 -13 CURVE SMOOTH",
"373 -13 OFFCURVE",
"479 96 OFFCURVE",
"479 260 CURVE SMOOTH",
"479 423 OFFCURVE",
"375 532 OFFCURVE",
"218 532 CURVE SMOOTH",
"140 532 OFFCURVE",
"65 514 OFFCURVE",
"30 488 CURVE"
);
}
);
width = 509;
},
{
layerId = m002;
paths = (
{
closed = 1;
nodes = (
"10 342 LINE",
"30 360 OFFCURVE",
"76 370 OFFCURVE",
"136 370 CURVE SMOOTH",
"239 370 OFFCURVE",
"300 329 OFFCURVE",
"300 260 CURVE SMOOTH",
"300 190 OFFCURVE",
"244 149 OFFCURVE",
"148 149 CURVE SMOOTH",
"87 149 OFFCURVE",
"36 156 OFFCURVE",
"10 167 CURVE",
"10 2 LINE",
"52 -7 OFFCURVE",
"111 -13 OFFCURVE",
"168 -13 CURVE SMOOTH",
"382 -13 OFFCURVE",
"508 88 OFFCURVE",
"508 260 CURVE SMOOTH",
"508 431 OFFCURVE",
"379 532 OFFCURVE",
"161 532 CURVE SMOOTH",
"105 532 OFFCURVE",
"49 526 OFFCURVE",
"10 515 CURVE"
);
}
);
width = 518;
}
);
leftKerningGroup = o;
leftMetricsKey = o;
rightKerningGroup = o;
rightMetricsKey = o;
unicode = 0254;
},
{
color = 10;
glyphname = oslash;
lastChange = "2023-08-30 01:17:39 +0000";
layers = (
{
anchors = (
{
name = Top;
position = "{322, 532}";
}
);
layerId = "FD4D3FDD-DE85-408F-A52A-FF600B1C6101";
paths = (
{
closed = 1;
nodes = (
"147 532 OFFCURVE",
"30 423 OFFCURVE",
"30 259 CURVE SMOOTH",
"30 136 OFFCURVE",
"97 43 OFFCURVE",
"205 6 CURVE",
"185 -50 LINE",
"238 -50 LINE",
"254 -7 LINE",
"275 -11 OFFCURVE",
"298 -13 OFFCURVE",
"322 -13 CURVE SMOOTH",
"498 -13 OFFCURVE",
"615 96 OFFCURVE",
"615 259 CURVE SMOOTH",
"615 382 OFFCURVE",
"550 473 OFFCURVE",
"443 512 CURVE",
"460 558 LINE",
"407 558 LINE",
"395 525 LINE",
"372 530 OFFCURVE",
"348 532 OFFCURVE",
"322 532 CURVE SMOOTH"
);
},
{
closed = 1;
nodes = (
"78 398 OFFCURVE",
"176 490 OFFCURVE",
"322 490 CURVE SMOOTH",
"342 490 OFFCURVE",
"362 488 OFFCURVE",
"380 485 CURVE",
"220 46 LINE",
"132 79 OFFCURVE",
"78 156 OFFCURVE",
"78 259 CURVE SMOOTH"
);
},
{
closed = 1;
nodes = (
"428 471 LINE",
"514 438 OFFCURVE",
"567 361 OFFCURVE",
"567 259 CURVE SMOOTH",
"567 121 OFFCURVE",
"469 29 OFFCURVE",
"322 29 CURVE SMOOTH",
"303 29 OFFCURVE",
"285 31 OFFCURVE",
"268 33 CURVE"
);
}
);
width = 645;
},
{
anchors = (
{
name = Top;
position = "{355, 532}";
}
);
layerId = m002;
paths = (
{
closed = 1;
nodes = (
"138 532 OFFCURVE",
"10 431 OFFCURVE",
"10 259 CURVE SMOOTH",
"10 127 OFFCURVE",
"86 37 OFFCURVE",
"220 3 CURVE",
"201 -50 LINE",
"288 -50 LINE",
"302 -11 LINE",
"319 -12 OFFCURVE",
"337 -13 OFFCURVE",
"355 -13 CURVE SMOOTH",
"572 -13 OFFCURVE",
"701 88 OFFCURVE",
"701 259 CURVE SMOOTH",
"701 390 OFFCURVE",
"626 480 OFFCURVE",
"494 515 CURVE",
"510 558 LINE",
"423 558 LINE",
"413 529 LINE",
"394 531 OFFCURVE",
"375 532 OFFCURVE",
"355 532 CURVE SMOOTH"
);
},
{
closed = 1;
nodes = (
"218 335 OFFCURVE",
"268 380 OFFCURVE",
"354 380 CURVE SMOOTH",
"355 380 OFFCURVE",
"357 380 OFFCURVE",
"358 380 CURVE",
"276 156 LINE",
"239 175 OFFCURVE",
"218 211 OFFCURVE",
"218 259 CURVE SMOOTH"
);
},
{
closed = 1;
nodes = (
"438 361 LINE",
"474 341 OFFCURVE",
"493 306 OFFCURVE",
"493 259 CURVE SMOOTH",
"493 186 OFFCURVE",
"444 141 OFFCURVE",
"359 139 CURVE SMOOTH",
"358 139 OFFCURVE",
"358 139 OFFCURVE",
"357 139 CURVE"
);
}
);
width = 711;
}
);
leftKerningGroup = o;
leftMetricsKey = o;
rightKerningGroup = o;
rightMetricsKey = o;
unicode = 00F8;
},
{
color = 10;
glyphname = oe;
lastChange = "2023-08-30 01:18:54 +0000";
layers = (
{
layerId = "FD4D3FDD-DE85-408F-A52A-FF600B1C6101";
paths = (
{
closed = 1;
nodes = (
"147 532 OFFCURVE",
"30 423 OFFCURVE",
"30 259 CURVE SMOOTH",
"30 96 OFFCURVE",
"147 -13 OFFCURVE",
"322 -13 CURVE SMOOTH",
"451 -13 OFFCURVE",
"549 46 OFFCURVE",
"591 142 CURVE",
"634 46 OFFCURVE",
"731 -13 OFFCURVE",
"859 -13 CURVE SMOOTH",
"1004 -13 OFFCURVE",
"1114 56 OFFCURVE",
"1133 159 CURVE",
"1085 159 LINE",
"1069 81 OFFCURVE",
"979 29 OFFCURVE",
"860 29 CURVE SMOOTH",
"715 29 OFFCURVE",
"618 120 OFFCURVE",
"615 256 CURVE",
"1138 256 LINE",
"1138 298 LINE SMOOTH",
"1138 438 OFFCURVE",
"1024 532 OFFCURVE",
"852 532 CURVE SMOOTH",
"727 532 OFFCURVE",
"632 474 OFFCURVE",
"590 379 CURVE",
"547 474 OFFCURVE",
"450 532 OFFCURVE",
"322 532 CURVE SMOOTH"
);
},
{
closed = 1;
nodes = (
"78 398 OFFCURVE",
"176 490 OFFCURVE",
"322 490 CURVE SMOOTH",
"469 490 OFFCURVE",
"567 398 OFFCURVE",
"567 259 CURVE SMOOTH",
"567 121 OFFCURVE",
"469 29 OFFCURVE",
"322 29 CURVE SMOOTH",
"176 29 OFFCURVE",
"78 121 OFFCURVE",
"78 259 CURVE SMOOTH"
);
},
{
closed = 1;
nodes = (
"634 414 OFFCURVE",
"724 490 OFFCURVE",
"853 490 CURVE SMOOTH",
"995 490 OFFCURVE",
"1090 413 OFFCURVE",
"1090 298 CURVE",
"618 298 LINE"
);
}
);
width = 1168;
},
{
layerId = m002;
paths = (
{
closed = 1;
nodes = (
"138 532 OFFCURVE",
"10 431 OFFCURVE",
"10 259 CURVE SMOOTH",
"10 88 OFFCURVE",
"138 -13 OFFCURVE",
"355 -13 CURVE SMOOTH",
"492 -13 OFFCURVE",
"595 27 OFFCURVE",
"651 101 CURVE",
"708 27 OFFCURVE",
"813 -13 OFFCURVE",
"954 -13 CURVE SMOOTH",
"1139 -13 OFFCURVE",
"1263 57 OFFCURVE",
"1287 175 CURVE",
"1089 175 LINE",
"1081 143 OFFCURVE",
"1032 124 OFFCURVE",
"957 124 CURVE SMOOTH",
"883 124 OFFCURVE",
"835 157 OFFCURVE",
"819 214 CURVE",
"1282 214 LINE",
"1282 263 LINE SMOOTH",
"1282 432 OFFCURVE",
"1158 532 OFFCURVE",
"949 532 CURVE SMOOTH",
"811 532 OFFCURVE",
"708 492 OFFCURVE",
"651 418 CURVE",
"594 492 OFFCURVE",
"492 532 OFFCURVE",
"355 532 CURVE SMOOTH"
);
},
{
closed = 1;
nodes = (
"218 335 OFFCURVE",
"269 380 OFFCURVE",
"355 380 CURVE SMOOTH",
"442 380 OFFCURVE",
"493 335 OFFCURVE",
"493 259 CURVE SMOOTH",
"493 184 OFFCURVE",
"442 139 OFFCURVE",
"355 139 CURVE SMOOTH",
"269 139 OFFCURVE",
"218 184 OFFCURVE",
"218 259 CURVE SMOOTH"
);
},
{
closed = 1;
nodes = (
"839 366 OFFCURVE",
"884 395 OFFCURVE",
"949 395 CURVE SMOOTH",
"1015 395 OFFCURVE",
"1058 366 OFFCURVE",
"1070 315 CURVE",
"822 314 LINE"
);
}
);
width = 1297;
}
);
leftKerningGroup = o;
leftMetricsKey = o;
rightKerningGroup = o;
rightMetricsKey = e;
unicode = 0153;
},
{
glyphname = p;
lastChange = "2023-08-30 00:27:53 +0000";
layers = (
{
anchors = (
{
name = Top;
position = "{323, 532}";
}
);
layerId = "FD4D3FDD-DE85-408F-A52A-FF600B1C6101";
paths = (
{
closed = 1;
nodes = (
"229 532 OFFCURVE",
"136 489 OFFCURVE",
"90 422 CURVE",
"88 422 LINE",
"103 520 LINE",
"40 520 LINE",
"40 -216 LINE",
"88 -216 LINE",
"88 0 LINE",
"83 108 LINE",
"85 108 LINE",
"129 36 OFFCURVE",
"230 -13 OFFCURVE",
"338 -13 CURVE SMOOTH",
"506 -13 OFFCURVE",
"618 95 OFFCURVE",
"618 258 CURVE SMOOTH",
"618 422 OFFCURVE",
"500 532 OFFCURVE",
"323 532 CURVE SMOOTH"
);
},
{
closed = 1;
nodes = (
"88 398 OFFCURVE",
"182 490 OFFCURVE",
"323 490 CURVE SMOOTH",
"471 490 OFFCURVE",
"570 397 OFFCURVE",
"570 258 CURVE SMOOTH",
"570 121 OFFCURVE",
"475 29 OFFCURVE",
"332 29 CURVE SMOOTH",
"186 29 OFFCURVE",
"88 122 OFFCURVE",
"88 259 CURVE SMOOTH"
);
}
);
width = 648;
},
{
anchors = (
{
name = Top;
position = "{363, 532}";
}
);
layerId = m002;
paths = (
{
closed = 1;
nodes = (
"307 532 OFFCURVE",
"240 514 OFFCURVE",
"210 483 CURVE",
"206 483 LINE",
"226 520 LINE",
"20 520 LINE",
"20 -216 LINE",
"218 -216 LINE",
"218 -29 LINE",
"213 23 LINE",
"215 23 LINE",
"253 1 OFFCURVE",
"316 -13 OFFCURVE",
"385 -13 CURVE SMOOTH",
"584 -13 OFFCURVE",
"702 88 OFFCURVE",
"702 258 CURVE SMOOTH",
"702 430 OFFCURVE",
"586 532 OFFCURVE",
"389 532 CURVE SMOOTH"
);
},
{
closed = 1;
nodes = (
"218 347 OFFCURVE",
"269 398 OFFCURVE",
"356 398 CURVE SMOOTH",
"443 398 OFFCURVE",
"494 346 OFFCURVE",
"494 258 CURVE SMOOTH",
"494 171 OFFCURVE",
"443 119 OFFCURVE",
"356 119 CURVE SMOOTH",
"269 119 OFFCURVE",
"218 172 OFFCURVE",
"218 259 CURVE SMOOTH"
);
}
);
width = 712;
}
);
leftKerningGroup = n;
leftMetricsKey = n;
rightKerningGroup = o;
rightMetricsKey = o;
unicode = 0070;
},
{
color = 10;
glyphname = thorn;
lastChange = "2023-09-06 01:33:43 +0000";
layers = (
{
layerId = "FD4D3FDD-DE85-408F-A52A-FF600B1C6101";
paths = (
{
closed = 1;
nodes = (
"229 532 OFFCURVE",
"131 489 OFFCURVE",
"85 422 CURVE",
"83 422 LINE",
"88 520 LINE",
"88 736 LINE",
"40 736 LINE",
"40 -216 LINE",
"88 -216 LINE",
"88 0 LINE",
"83 108 LINE",
"85 108 LINE",
"129 36 OFFCURVE",
"230 -13 OFFCURVE",
"338 -13 CURVE SMOOTH",
"506 -13 OFFCURVE",
"618 95 OFFCURVE",
"618 258 CURVE SMOOTH",
"618 422 OFFCURVE",
"500 532 OFFCURVE",
"323 532 CURVE SMOOTH"
);
},
{
closed = 1;
nodes = (
"88 398 OFFCURVE",
"182 490 OFFCURVE",
"323 490 CURVE SMOOTH",
"471 490 OFFCURVE",
"570 397 OFFCURVE",
"570 258 CURVE SMOOTH",
"570 121 OFFCURVE",
"475 29 OFFCURVE",
"332 29 CURVE SMOOTH",
"186 29 OFFCURVE",
"88 122 OFFCURVE",
"88 259 CURVE SMOOTH"
);
}
);
width = 648;
},
{
layerId = m002;
paths = (
{
closed = 1;
nodes = (
"307 532 OFFCURVE",
"240 514 OFFCURVE",
"210 483 CURVE",
"206 483 LINE",
"226 520 LINE",
"226 736 LINE",
"20 736 LINE",
"20 -216 LINE",
"218 -216 LINE",
"218 -29 LINE",
"213 23 LINE",
"215 23 LINE",
"253 1 OFFCURVE",
"316 -13 OFFCURVE",
"385 -13 CURVE SMOOTH",
"584 -13 OFFCURVE",
"702 88 OFFCURVE",
"702 258 CURVE SMOOTH",
"702 430 OFFCURVE",
"586 532 OFFCURVE",
"389 532 CURVE SMOOTH"
);
},
{
closed = 1;
nodes = (
"218 347 OFFCURVE",
"269 398 OFFCURVE",
"356 398 CURVE SMOOTH",
"443 398 OFFCURVE",
"494 346 OFFCURVE",
"494 258 CURVE SMOOTH",
"494 171 OFFCURVE",
"443 119 OFFCURVE",
"356 119 CURVE SMOOTH",
"269 119 OFFCURVE",
"218 172 OFFCURVE",
"218 259 CURVE SMOOTH"
);
}
);
width = 712;
}
);
leftKerningGroup = n;
leftMetricsKey = p;
rightKerningGroup = o;
rightMetricsKey = p;
unicode = 00FE;
},
{
glyphname = q;
lastChange = "2023-08-30 00:27:53 +0000";
layers = (
{
anchors = (
{
name = Top;
position = "{337, 532}";
}
);
layerId = "FD4D3FDD-DE85-408F-A52A-FF600B1C6101";
paths = (
{
closed = 1;
nodes = (
"148 532 OFFCURVE",
"30 422 OFFCURVE",
"30 258 CURVE SMOOTH",
"30 95 OFFCURVE",
"142 -13 OFFCURVE",
"310 -13 CURVE SMOOTH",
"418 -13 OFFCURVE",
"519 36 OFFCURVE",
"563 108 CURVE",
"565 108 LINE",
"560 0 LINE",
"560 -216 LINE",
"608 -216 LINE",
"608 520 LINE",
"545 520 LINE",
"560 422 LINE",
"558 422 LINE",
"512 489 OFFCURVE",
"419 532 OFFCURVE",
"325 532 CURVE SMOOTH"
);
},
{
closed = 1;
nodes = (
"78 397 OFFCURVE",
"177 490 OFFCURVE",
"325 490 CURVE SMOOTH",
"466 490 OFFCURVE",
"560 398 OFFCURVE",
"560 259 CURVE SMOOTH",
"560 122 OFFCURVE",
"462 29 OFFCURVE",
"316 29 CURVE SMOOTH",
"173 29 OFFCURVE",
"78 121 OFFCURVE",
"78 258 CURVE SMOOTH"
);
}
);
width = 648;
},
{
anchors = (
{
name = Top;
position = "{359, 532}";
}
);
layerId = m002;
paths = (
{
closed = 1;
nodes = (
"126 532 OFFCURVE",
"10 430 OFFCURVE",
"10 258 CURVE SMOOTH",
"10 88 OFFCURVE",
"128 -13 OFFCURVE",
"327 -13 CURVE SMOOTH",
"396 -13 OFFCURVE",
"459 1 OFFCURVE",
"497 23 CURVE",
"499 23 LINE",
"494 -29 LINE",
"494 -216 LINE",
"692 -216 LINE",
"692 520 LINE",
"486 520 LINE",
"506 483 LINE",
"502 483 LINE",
"472 514 OFFCURVE",
"405 532 OFFCURVE",
"323 532 CURVE SMOOTH"
);
},
{
closed = 1;
nodes = (
"218 346 OFFCURVE",
"269 398 OFFCURVE",
"356 398 CURVE SMOOTH",
"443 398 OFFCURVE",
"494 347 OFFCURVE",
"494 259 CURVE SMOOTH",
"494 172 OFFCURVE",
"443 119 OFFCURVE",
"356 119 CURVE SMOOTH",
"269 119 OFFCURVE",
"218 171 OFFCURVE",
"218 258 CURVE SMOOTH"
);
}
);
width = 712;
}
);
leftKerningGroup = o;
leftMetricsKey = o;
rightKerningGroup = n;
rightMetricsKey = n;
unicode = 0071;
},
{
glyphname = r;
lastChange = "2023-08-30 00:27:53 +0000";
layers = (
{
anchors = (
{
name = Bottom;
position = "{64, 0}";
},
{
name = Top;
position = "{193, 532}";
}
);
layerId = "FD4D3FDD-DE85-408F-A52A-FF600B1C6101";
paths = (
{
closed = 1;
nodes = (
"88 280 LINE SMOOTH",
"88 406 OFFCURVE",
"163 490 OFFCURVE",
"275 490 CURVE SMOOTH",
"305 490 OFFCURVE",
"336 485 OFFCURVE",
"352 478 CURVE",
"359 521 LINE",
"342 528 OFFCURVE",
"309 532 OFFCURVE",
"277 532 CURVE SMOOTH",
"193 532 OFFCURVE",
"119 494 OFFCURVE",
"90 437 CURVE",
"88 437 LINE",
"98 520 LINE",
"40 520 LINE",
"40 0 LINE",
"88 0 LINE"
);
}
);
width = 379;
},
{
anchors = (
{
name = Bottom;
position = "{134, 0}";
},
{
name = Top;
position = "{238, 532}";
}
);
layerId = m002;
paths = (
{
closed = 1;
nodes = (
"218 237 LINE SMOOTH",
"218 317 OFFCURVE",
"277 371 OFFCURVE",
"366 371 CURVE SMOOTH",
"393 371 OFFCURVE",
"423 366 OFFCURVE",
"443 358 CURVE",
"469 521 LINE",
"447 528 OFFCURVE",
"406 533 OFFCURVE",
"366 533 CURVE SMOOTH",
"299 533 OFFCURVE",
"241 514 OFFCURVE",
"210 480 CURVE",
"206 480 LINE",
"228 520 LINE",
"20 520 LINE",
"20 0 LINE",
"218 0 LINE"
);
}
);
width = 479;
}
);
leftKerningGroup = n;
leftMetricsKey = n;
rightKerningGroup = r;
rightMetricsKey = k;
unicode = 0072;
},
{
glyphname = s;
lastChange = "2023-08-30 00:27:53 +0000";
layers = (
{
anchors = (
{
name = Bottom;
position = "{279, 0}";
},
{
name = Top;
position = "{276, 532}";
}
);
layerId = "FD4D3FDD-DE85-408F-A52A-FF600B1C6101";
paths = (
{
closed = 1;
nodes = (
"133 532 OFFCURVE",
"48 478 OFFCURVE",
"48 386 CURVE SMOOTH",
"48 183 OFFCURVE",
"464 290 OFFCURVE",
"464 136 CURVE SMOOTH",
"464 69 OFFCURVE",
"398 29 OFFCURVE",
"285 29 CURVE SMOOTH",
"155 29 OFFCURVE",
"78 80 OFFCURVE",
"78 167 CURVE",
"30 167 LINE",
"30 54 OFFCURVE",
"124 -13 OFFCURVE",
"282 -13 CURVE SMOOTH",
"427 -13 OFFCURVE",
"512 44 OFFCURVE",
"512 140 CURVE SMOOTH",
"512 334 OFFCURVE",
"96 236 OFFCURVE",
"96 389 CURVE SMOOTH",
"96 452 OFFCURVE",
"160 490 OFFCURVE",
"267 490 CURVE SMOOTH",
"383 490 OFFCURVE",
"451 445 OFFCURVE",
"451 369 CURVE",
"499 369 LINE",
"499 471 OFFCURVE",
"416 532 OFFCURVE",
"276 532 CURVE SMOOTH"
);
}
);
width = 542;
},
{
anchors = (
{
name = Bottom;
position = "{326, 0}";
},
{
name = Top;
position = "{320, 532}";
}
);
layerId = m002;
paths = (
{
closed = 1;
nodes = (
"142 532 OFFCURVE",
"37 468 OFFCURVE",
"37 360 CURVE SMOOTH",
"37 142 OFFCURVE",
"423 227 OFFCURVE",
"423 165 CURVE SMOOTH",
"423 146 OFFCURVE",
"387 134 OFFCURVE",
"327 134 CURVE SMOOTH",
"258 134 OFFCURVE",
"218 152 OFFCURVE",
"218 182 CURVE",
"20 182 LINE",
"20 59 OFFCURVE",
"134 -13 OFFCURVE",
"326 -13 CURVE SMOOTH",
"511 -13 OFFCURVE",
"621 50 OFFCURVE",
"621 157 CURVE SMOOTH",
"621 362 OFFCURVE",
"235 280 OFFCURVE",
"235 352 CURVE SMOOTH",
"235 373 OFFCURVE",
"269 385 OFFCURVE",
"326 385 CURVE SMOOTH",
"384 385 OFFCURVE",
"419 370 OFFCURVE",
"419 344 CURVE",
"617 344 LINE",
"617 462 OFFCURVE",
"507 532 OFFCURVE",
"320 532 CURVE SMOOTH"
);
}
);
width = 641;
}
);
leftKerningGroup = s;
rightKerningGroup = s;
unicode = 0073;
},
{
color = 10;
glyphname = saltillo;
lastChange = "2023-08-30 01:31:22 +0000";
layers = (
{
layerId = "FD4D3FDD-DE85-408F-A52A-FF600B1C6101";
paths = (
{
closed = 1;
nodes = (
"40 520 LINE",
"45 409 LINE",
"75 409 LINE",
"80 520 LINE",
"80 730 LINE",
"40 730 LINE"
);
}
);
width = 120;
},
{
layerId = m002;
paths = (
{
closed = 1;
nodes = (
"20 520 LINE",
"25 409 LINE",
"165 409 LINE",
"170 520 LINE",
"170 730 LINE",
"20 730 LINE"
);
}
);
width = 190;
}
);
leftKerningGroup = n;
leftMetricsKey = n;
rightKerningGroup = n;
rightMetricsKey = n;
unicode = A78C;
},
{
color = 10;
glyphname = germandbls;
lastChange = "2023-08-30 01:18:59 +0000";
layers = (
{
layerId = "FD4D3FDD-DE85-408F-A52A-FF600B1C6101";
paths = (
{
closed = 1;
nodes = (
"40 0 LINE",
"88 0 LINE",
"88 583 LINE SMOOTH",
"88 650 OFFCURVE",
"146 695 OFFCURVE",
"233 695 CURVE SMOOTH",
"300 695 OFFCURVE",
"348 667 OFFCURVE",
"383 624 CURVE SMOOTH",
"471 518 LINE",
"376 507 OFFCURVE",
"315 462 OFFCURVE",
"315 394 CURVE SMOOTH",
"315 242 OFFCURVE",
"571 259 OFFCURVE",
"571 113 CURVE SMOOTH",
"571 63 OFFCURVE",
"525 29 OFFCURVE",
"455 29 CURVE SMOOTH",
"425 29 OFFCURVE",
"374 38 OFFCURVE",
"341 52 CURVE",
"341 10 LINE",
"366 -4 OFFCURVE",
"417 -13 OFFCURVE",
"454 -13 CURVE SMOOTH",
"553 -13 OFFCURVE",
"619 39 OFFCURVE",
"619 117 CURVE SMOOTH",
"619 299 OFFCURVE",
"363 289 OFFCURVE",
"363 397 CURVE SMOOTH",
"363 443 OFFCURVE",
"419 473 OFFCURVE",
"504 478 CURVE",
"535 520 LINE",
"418 657 LINE SMOOTH",
"377 704 OFFCURVE",
"316 736 OFFCURVE",
"235 736 CURVE SMOOTH",
"118 736 OFFCURVE",
"40 670 OFFCURVE",
"40 571 CURVE SMOOTH"
);
}
);
width = 649;
},
{
layerId = m002;
paths = (
{
closed = 1;
nodes = (
"20 0 LINE",
"218 0 LINE",
"218 503 LINE SMOOTH",
"218 546 OFFCURVE",
"254 575 OFFCURVE",
"309 575 CURVE SMOOTH",
"367 575 OFFCURVE",
"395 551 OFFCURVE",
"426 513 CURVE SMOOTH",
"435 502 LINE",
"360 475 OFFCURVE",
"315 424 OFFCURVE",
"315 363 CURVE SMOOTH",
"315 243 OFFCURVE",
"491 209 OFFCURVE",
"491 169 CURVE SMOOTH",
"491 157 OFFCURVE",
"473 149 OFFCURVE",
"445 149 CURVE SMOOTH",
"422 149 OFFCURVE",
"385 158 OFFCURVE",
"351 172 CURVE",
"351 10 LINE",
"377 -4 OFFCURVE",
"426 -13 OFFCURVE",
"474 -13 CURVE SMOOTH",
"603 -13 OFFCURVE",
"689 49 OFFCURVE",
"689 143 CURVE SMOOTH",
"689 284 OFFCURVE",
"513 295 OFFCURVE",
"513 342 CURVE SMOOTH",
"513 361 OFFCURVE",
"529 368 OFFCURVE",
"554 358 CURVE",
"688 503 LINE",
"580 625 LINE SMOOTH",
"518 695 OFFCURVE",
"416 736 OFFCURVE",
"306 736 CURVE SMOOTH",
"139 736 OFFCURVE",
"20 646 OFFCURVE",
"20 511 CURVE SMOOTH"
);
}
);
width = 699;
}
);
leftKerningGroup = n;
leftMetricsKey = n;
rightKerningGroup = germandbls;
rightMetricsKey = o;
unicode = 00DF;
},
{
glyphname = t;
lastChange = "2023-08-30 00:27:53 +0000";
layers = (
{
anchors = (
{
name = Bottom;
position = "{253, 0}";
},
{
name = Top;
position = "{283, 532}";
},
{
name = Top_EC;
position = "{234, 532}";
}
);
hints = (
{
place = "{149, 0}";
type = Stem;
}
);
layerId = "FD4D3FDD-DE85-408F-A52A-FF600B1C6101";
paths = (
{
closed = 1;
nodes = (
"133 159 LINE SMOOTH",
"133 56 OFFCURVE",
"207 -13 OFFCURVE",
"317 -13 CURVE SMOOTH",
"335 -13 OFFCURVE",
"357 -9 OFFCURVE",
"372 -3 CURVE",
"372 39 LINE",
"362 32 OFFCURVE",
"340 28 OFFCURVE",
"316 28 CURVE SMOOTH",
"235 28 OFFCURVE",
"181 80 OFFCURVE",
"181 159 CURVE SMOOTH",
"181 478 LINE",
"315 478 LINE",
"315 520 LINE",
"181 520 LINE",
"181 629 LINE",
"133 629 LINE",
"133 518 LINE",
"40 523 LINE",
"40 478 LINE",
"133 478 LINE"
);
}
);
width = 412;
},
{
anchors = (
{
name = Bottom;
position = "{295, 0}";
},
{
name = Top;
position = "{375, 520}";
},
{
name = Top_EC;
position = "{366, 520}";
}
);
hints = (
{
place = "{149, 0}";
type = Stem;
}
);
layerId = m002;
paths = (
{
closed = 1;
nodes = (
"83 191 LINE SMOOTH",
"83 69 OFFCURVE",
"188 -13 OFFCURVE",
"346 -13 CURVE SMOOTH",
"387 -13 OFFCURVE",
"426 -8 OFFCURVE",
"444 0 CURVE",
"444 160 LINE",
"422 152 OFFCURVE",
"386 146 OFFCURVE",
"355 146 CURVE SMOOTH",
"311 146 OFFCURVE",
"281 172 OFFCURVE",
"281 211 CURVE SMOOTH",
"281 370 LINE",
"385 370 LINE",
"385 520 LINE",
"281 520 LINE",
"281 629 LINE",
"83 629 LINE",
"83 518 LINE",
"10 523 LINE",
"10 370 LINE",
"83 370 LINE"
);
}
);
width = 464;
}
);
leftKerningGroup = t;
rightKerningGroup = t;
unicode = 0074;
},
{
color = 10;
glyphname = tbar;
lastChange = "2023-08-30 01:45:33 +0000";
layers = (
{
layerId = "FD4D3FDD-DE85-408F-A52A-FF600B1C6101";
paths = (
{
closed = 1;
nodes = (
"133 368 LINE",
"40 373 LINE",
"40 328 LINE",
"133 328 LINE",
"133 159 LINE SMOOTH",
"133 56 OFFCURVE",
"207 -13 OFFCURVE",
"317 -13 CURVE SMOOTH",
"335 -13 OFFCURVE",
"357 -9 OFFCURVE",
"372 -3 CURVE",
"372 39 LINE",
"362 32 OFFCURVE",
"340 28 OFFCURVE",
"316 28 CURVE SMOOTH",
"235 28 OFFCURVE",
"181 80 OFFCURVE",
"181 159 CURVE SMOOTH",
"181 328 LINE",
"315 328 LINE",
"315 370 LINE",
"181 370 LINE",
"181 478 LINE",
"315 478 LINE",
"315 520 LINE",
"181 520 LINE",
"181 629 LINE",
"133 629 LINE",
"133 518 LINE",
"40 523 LINE",
"40 478 LINE",
"133 478 LINE"
);
}
);
width = 412;
},
{
layerId = m002;
paths = (
{
closed = 1;
nodes = (
"83 328 LINE",
"10 333 LINE",
"10 230 LINE",
"83 230 LINE",
"83 191 LINE SMOOTH",
"83 69 OFFCURVE",
"188 -13 OFFCURVE",
"346 -13 CURVE SMOOTH",
"387 -13 OFFCURVE",
"426 -8 OFFCURVE",
"444 0 CURVE",
"444 160 LINE",
"422 152 OFFCURVE",
"386 146 OFFCURVE",
"355 146 CURVE SMOOTH",
"311 146 OFFCURVE",
"281 172 OFFCURVE",
"281 211 CURVE SMOOTH",
"281 230 LINE",
"385 230 LINE",
"385 330 LINE",
"281 330 LINE",
"281 370 LINE",
"385 370 LINE",
"385 520 LINE",
"281 520 LINE",
"281 629 LINE",
"83 629 LINE",
"83 518 LINE",
"10 523 LINE",
"10 370 LINE",
"83 370 LINE"
);
}
);
width = 464;
}
);
leftKerningGroup = t;
leftMetricsKey = t;
rightKerningGroup = t;
rightMetricsKey = t;
unicode = 0167;
},
{
color = 10;
glyphname = tdiagonalstroke;
lastChange = "2023-08-30 18:53:21 +0000";
layers = (
{
layerId = "FD4D3FDD-DE85-408F-A52A-FF600B1C6101";
paths = (
{
closed = 1;
nodes = (
"133 159 LINE SMOOTH",
"133 150 OFFCURVE",
"134 141 OFFCURVE",
"135 133 CURVE",
"68 -50 LINE",
"109 -50 LINE",
"154 73 LINE",
"183 19 OFFCURVE",
"242 -13 OFFCURVE",
"317 -13 CURVE SMOOTH",
"335 -13 OFFCURVE",
"357 -9 OFFCURVE",
"372 -3 CURVE",
"372 39 LINE",
"362 32 OFFCURVE",
"340 28 OFFCURVE",
"316 28 CURVE SMOOTH",
"239 28 OFFCURVE",
"186 75 OFFCURVE",
"181 148 CURVE",
"302 478 LINE",
"315 478 LINE",
"315 514 LINE",
"331 558 LINE",
"290 558 LINE",
"276 520 LINE",
"181 520 LINE",
"181 629 LINE",
"133 629 LINE",
"133 518 LINE",
"40 523 LINE",
"40 478 LINE",
"133 478 LINE"
);
},
{
closed = 1;
nodes = (
"181 478 LINE",
"261 478 LINE",
"181 259 LINE"
);
}
);
width = 412;
},
{
layerId = m002;
paths = (
{
closed = 1;
nodes = (
"83 191 LINE SMOOTH",
"83 117 OFFCURVE",
"122 58 OFFCURVE",
"187 22 CURVE",
"161 -50 LINE",
"212 -50 LINE",
"232 4 LINE",
"265 -7 OFFCURVE",
"304 -13 OFFCURVE",
"346 -13 CURVE SMOOTH",
"387 -13 OFFCURVE",
"426 -8 OFFCURVE",
"444 0 CURVE",
"444 160 LINE",
"422 152 OFFCURVE",
"386 146 OFFCURVE",
"355 146 CURVE SMOOTH",
"328 146 OFFCURVE",
"306 156 OFFCURVE",
"293 173 CURVE",
"365 370 LINE",
"385 370 LINE",
"385 424 LINE",
"434 558 LINE",
"383 558 LINE",
"369 520 LINE",
"281 520 LINE",
"281 629 LINE",
"83 629 LINE",
"83 518 LINE",
"10 523 LINE",
"10 370 LINE",
"83 370 LINE"
);
},
{
closed = 1;
nodes = (
"281 370 LINE",
"314 370 LINE",
"281 279 LINE"
);
}
);
width = 464;
}
);
leftKerningGroup = t;
leftMetricsKey = t;
rightKerningGroup = t;
rightMetricsKey = t;
unicode = 2C66;
},
{
glyphname = u;
lastChange = "2023-09-05 19:39:41 +0000";
layers = (
{
anchors = (
{
name = Bottom;
position = "{291, 0}";
},
{
name = Top;
position = "{290, 520}";
}
);
layerId = "FD4D3FDD-DE85-408F-A52A-FF600B1C6101";
paths = (
{
closed = 1;
nodes = (
"367 -13 OFFCURVE",
"451 25 OFFCURVE",
"489 83 CURVE",
"491 83 LINE",
"481 0 LINE",
"539 0 LINE",
"539 520 LINE",
"491 520 LINE",
"491 207 LINE SMOOTH",
"491 100 OFFCURVE",
"406 29 OFFCURVE",
"279 29 CURVE SMOOTH",
"164 29 OFFCURVE",
"88 89 OFFCURVE",
"88 179 CURVE SMOOTH",
"88 520 LINE",
"40 520 LINE",
"40 167 LINE SMOOTH",
"40 59 OFFCURVE",
"136 -13 OFFCURVE",
"279 -13 CURVE SMOOTH"
);
}
);
width = 579;
},
{
anchors = (
{
name = Bottom;
position = "{315, 0}";
},
{
name = Top;
position = "{337, 520}";
}
);
layerId = m002;
paths = (
{
closed = 1;
nodes = (
"368 -13 OFFCURVE",
"443 9 OFFCURVE",
"468 43 CURVE",
"472 43 LINE",
"455 0 LINE",
"653 0 LINE",
"653 520 LINE",
"455 520 LINE",
"455 242 LINE SMOOTH",
"455 186 OFFCURVE",
"407 149 OFFCURVE",
"336 149 CURVE SMOOTH",
"265 149 OFFCURVE",
"218 186 OFFCURVE",
"218 242 CURVE SMOOTH",
"218 520 LINE",
"20 520 LINE",
"20 190 LINE SMOOTH",
"20 68 OFFCURVE",
"124 -13 OFFCURVE",
"281 -13 CURVE SMOOTH"
);
}
);
width = 673;
}
);
leftKerningGroup = u;
leftMetricsKey = n;
rightKerningGroup = u;
unicode = 0075;
},
{
color = 10;
glyphname = "upsilon-latin";
lastChange = "2023-08-30 01:34:11 +0000";
layers = (
{
layerId = "FD4D3FDD-DE85-408F-A52A-FF600B1C6101";
paths = (
{
closed = 1;
nodes = (
"483 -13 OFFCURVE",
"584 77 OFFCURVE",
"584 229 CURVE SMOOTH",
"584 351 OFFCURVE",
"526 440 OFFCURVE",
"426 477 CURVE",
"584 477 LINE",
"584 520 LINE",
"362 520 LINE",
"362 477 LINE",
"471 448 OFFCURVE",
"536 356 OFFCURVE",
"536 229 CURVE SMOOTH",
"536 103 OFFCURVE",
"453 29 OFFCURVE",
"312 29 CURVE SMOOTH",
"171 29 OFFCURVE",
"88 103 OFFCURVE",
"88 229 CURVE SMOOTH",
"88 356 OFFCURVE",
"153 448 OFFCURVE",
"262 477 CURVE",
"262 520 LINE",
"40 520 LINE",
"40 477 LINE",
"198 477 LINE",
"98 440 OFFCURVE",
"40 351 OFFCURVE",
"40 229 CURVE SMOOTH",
"40 77 OFFCURVE",
"141 -13 OFFCURVE",
"312 -13 CURVE SMOOTH"
);
}
);
width = 624;
},
{
layerId = m002;
paths = (
{
closed = 1;
nodes = (
"564 -13 OFFCURVE",
"687 65 OFFCURVE",
"687 197 CURVE SMOOTH",
"687 276 OFFCURVE",
"641 337 OFFCURVE",
"559 370 CURVE",
"694 370 LINE",
"694 520 LINE",
"407 520 LINE",
"407 370 LINE",
"452 352 OFFCURVE",
"479 309 OFFCURVE",
"479 254 CURVE SMOOTH",
"479 182 OFFCURVE",
"434 139 OFFCURVE",
"357 139 CURVE SMOOTH",
"280 139 OFFCURVE",
"235 182 OFFCURVE",
"235 254 CURVE SMOOTH",
"235 309 OFFCURVE",
"262 352 OFFCURVE",
"307 370 CURVE",
"307 520 LINE",
"20 520 LINE",
"20 370 LINE",
"155 370 LINE",
"73 337 OFFCURVE",
"27 276 OFFCURVE",
"27 197 CURVE SMOOTH",
"27 65 OFFCURVE",
"150 -13 OFFCURVE",
"357 -13 CURVE SMOOTH"
);
}
);
width = 714;
}
);
leftKerningGroup = u;
leftMetricsKey = u;
rightKerningGroup = u;
rightMetricsKey = u;
unicode = 028A;
},
{
glyphname = v;
lastChange = "2023-09-02 20:51:50 +0000";
layers = (
{
anchors = (
{
name = Top;
position = "{309, 520}";
}
);
layerId = "FD4D3FDD-DE85-408F-A52A-FF600B1C6101";
paths = (
{
closed = 1;
nodes = (
"287 0 LINE",
"331 0 LINE",
"598 520 LINE",
"548 520 LINE",
"310 68 LINE",
"308 68 LINE",
"70 520 LINE",
"20 520 LINE"
);
}
);
width = 618;
},
{
anchors = (
{
name = Top;
position = "{364, 520}";
}
);
layerId = m002;
paths = (
{
closed = 1;
nodes = (
"272 0 LINE",
"456 0 LINE",
"719 520 LINE",
"514 520 LINE",
"365 237 LINE",
"363 237 LINE",
"215 520 LINE",
"10 520 LINE"
);
}
);
width = 729;
}
);
leftKerningGroup = v;
leftMetricsKey = "=|k";
rightKerningGroup = v;
rightMetricsKey = k;
unicode = 0076;
},
{
glyphname = w;
lastChange = "2023-08-30 00:27:53 +0000";
layers = (
{
anchors = (
{
name = Top;
position = "{451, 520}";
}
);
layerId = "FD4D3FDD-DE85-408F-A52A-FF600B1C6101";
paths = (
{
closed = 1;
nodes = (
"246 0 LINE",
"296 0 LINE",
"449 447 LINE",
"451 447 LINE",
"603 0 LINE",
"653 0 LINE",
"880 520 LINE",
"830 520 LINE",
"632 64 LINE",
"630 64 LINE",
"475 520 LINE",
"425 520 LINE",
"269 65 LINE",
"267 65 LINE",
"70 520 LINE",
"20 520 LINE"
);
}
);
width = 900;
},
{
anchors = (
{
name = Top;
position = "{503, 520}";
}
);
layerId = m002;
paths = (
{
closed = 1;
nodes = (
"230 0 LINE",
"418 0 LINE",
"503 280 LINE",
"505 280 LINE",
"590 0 LINE",
"778 0 LINE",
"998 520 LINE",
"800 520 LINE",
"687 238 LINE",
"685 238 LINE",
"578 520 LINE",
"430 520 LINE",
"323 238 LINE",
"321 238 LINE",
"208 520 LINE",
"10 520 LINE"
);
}
);
width = 1008;
}
);
leftKerningGroup = v;
leftMetricsKey = "=|k";
rightKerningGroup = v;
rightMetricsKey = k;
unicode = 0077;
},
{
glyphname = x;
lastChange = "2023-09-01 22:24:31 +0000";
layers = (
{
anchors = (
{
name = Top;
position = "{275, 520}";
}
);
layerId = "FD4D3FDD-DE85-408F-A52A-FF600B1C6101";
paths = (
{
closed = 1;
nodes = (
"253 260 LINE",
"21 0 LINE",
"76 0 LINE",
"275 224 LINE",
"475 0 LINE",
"530 0 LINE",
"297 260 LINE",
"529 520 LINE",
"474 520 LINE",
"275 296 LINE",
"75 520 LINE",
"20 520 LINE"
);
}
);
width = 550;
},
{
anchors = (
{
name = Top;
position = "{365, 520}";
}
);
layerId = m002;
paths = (
{
closed = 1;
nodes = (
"243 260 LINE",
"11 0 LINE",
"267 0 LINE",
"366 111 LINE",
"465 0 LINE",
"721 0 LINE",
"489 260 LINE",
"720 520 LINE",
"464 520 LINE",
"365 409 LINE",
"266 520 LINE",
"10 520 LINE"
);
}
);
width = 731;
}
);
leftKerningGroup = x;
leftMetricsKey = "=|k";
rightKerningGroup = x;
rightMetricsKey = k;
unicode = 0078;
},
{
glyphname = y;
lastChange = "2023-09-01 23:38:41 +0000";
layers = (
{
anchors = (
{
name = Bottom;
position = "{405, 0}";
},
{
name = Top;
position = "{314, 520}";
}
);
layerId = "FD4D3FDD-DE85-408F-A52A-FF600B1C6101";
paths = (
{
closed = 1;
nodes = (
"607 520 LINE",
"557 520 LINE",
"335 58 LINE",
"333 58 LINE",
"70 520 LINE",
"20 520 LINE",
"310 8 LINE",
"273 -70 LINE SMOOTH",
"244 -130 OFFCURVE",
"211 -161 OFFCURVE",
"163 -161 CURVE SMOOTH",
"144 -161 OFFCURVE",
"122 -158 OFFCURVE",
"111 -152 CURVE",
"111 -200 LINE",
"125 -205 OFFCURVE",
"143 -208 OFFCURVE",
"159 -208 CURVE SMOOTH",
"234 -208 OFFCURVE",
"279 -162 OFFCURVE",
"323 -70 CURVE SMOOTH"
);
}
);
width = 627;
},
{
anchors = (
{
name = Bottom;
position = "{543, 0}";
},
{
name = Top;
position = "{356, 520}";
}
);
layerId = m002;
paths = (
{
closed = 1;
nodes = (
"698 520 LINE",
"500 520 LINE",
"366 239 LINE",
"363 239 LINE",
"208 520 LINE",
"10 520 LINE",
"272 41 LINE",
"247 -12 LINE SMOOTH",
"236 -35 OFFCURVE",
"215 -48 OFFCURVE",
"187 -48 CURVE SMOOTH",
"152 -48 OFFCURVE",
"124 -45 OFFCURVE",
"111 -39 CURVE",
"111 -199 LINE",
"127 -204 OFFCURVE",
"151 -207 OFFCURVE",
"176 -207 CURVE SMOOTH",
"296 -207 OFFCURVE",
"364 -195 OFFCURVE",
"433 -48 CURVE SMOOTH"
);
}
);
width = 708;
}
);
leftKerningGroup = y;
leftMetricsKey = "=|k";
rightKerningGroup = y;
rightMetricsKey = k;
unicode = 0079;
},
{
glyphname = z;
lastChange = "2023-08-30 00:27:53 +0000";
layers = (
{
anchors = (
{
name = Bottom;
position = "{310, 0}";
},
{
name = Top;
position = "{301, 520}";
}
);
layerId = "FD4D3FDD-DE85-408F-A52A-FF600B1C6101";
paths = (
{
closed = 1;
nodes = (
"550 520 LINE",
"63 520 LINE",
"63 480 LINE",
"492 480 LINE",
"40 40 LINE",
"40 0 LINE",
"551 0 LINE",
"551 40 LINE",
"98 40 LINE",
"550 480 LINE"
);
}
);
width = 591;
},
{
anchors = (
{
name = Bottom;
position = "{341, 0}";
},
{
name = Top;
position = "{341, 520}";
}
);
layerId = m002;
paths = (
{
closed = 1;
nodes = (
"660 520 LINE",
"30 520 LINE",
"30 370 LINE",
"387 370 LINE",
"20 150 LINE",
"20 0 LINE",
"661 0 LINE",
"661 150 LINE",
"301 150 LINE",
"660 370 LINE"
);
}
);
width = 681;
}
);
leftKerningGroup = z;
leftMetricsKey = n;
rightKerningGroup = z;
unicode = 007A;
},
{
color = 10;
glyphname = a.ss01;
lastChange = "2023-08-30 18:54:00 +0000";
layers = (
{
anchors = (
{
name = Bottom;
position = "{325, 0}";
},
{
name = Ogonek;
position = "{573, 0}";
},
{
name = Top;
position = "{322, 532}";
}
);
layerId = "FD4D3FDD-DE85-408F-A52A-FF600B1C6101";
paths = (
{
closed = 1;
nodes = (
"419 -13 OFFCURVE",
"512 31 OFFCURVE",
"558 98 CURVE",
"560 98 LINE",
"545 0 LINE",
"608 0 LINE",
"608 520 LINE",
"560 520 LINE",
"565 412 LINE",
"563 412 LINE",
"519 484 OFFCURVE",
"418 532 OFFCURVE",
"310 532 CURVE SMOOTH",
"142 532 OFFCURVE",
"30 424 OFFCURVE",
"30 261 CURVE SMOOTH",
"30 97 OFFCURVE",
"148 -13 OFFCURVE",
"325 -13 CURVE SMOOTH"
);
},
{
closed = 1;
nodes = (
"78 398 OFFCURVE",
"173 490 OFFCURVE",
"316 490 CURVE SMOOTH",
"462 490 OFFCURVE",
"560 398 OFFCURVE",
"560 261 CURVE SMOOTH",
"560 122 OFFCURVE",
"466 29 OFFCURVE",
"325 29 CURVE SMOOTH",
"177 29 OFFCURVE",
"78 122 OFFCURVE",
"78 261 CURVE SMOOTH"
);
}
);
width = 648;
},
{
anchors = (
{
name = Bottom;
position = "{325, 0}";
},
{
name = Ogonek;
position = "{620, 0}";
},
{
name = Top;
position = "{351, 532}";
}
);
layerId = m002;
paths = (
{
closed = 1;
nodes = (
"401 -13 OFFCURVE",
"473 7 OFFCURVE",
"502 37 CURVE",
"506 37 LINE",
"486 0 LINE",
"692 0 LINE",
"692 520 LINE",
"494 520 LINE",
"499 487 LINE",
"497 487 LINE",
"460 514 OFFCURVE",
"395 532 OFFCURVE",
"334 532 CURVE SMOOTH",
"140 532 OFFCURVE",
"10 424 OFFCURVE",
"10 261 CURVE SMOOTH",
"10 97 OFFCURVE",
"135 -13 OFFCURVE",
"323 -13 CURVE SMOOTH"
);
},
{
closed = 1;
nodes = (
"218 344 OFFCURVE",
"273 400 OFFCURVE",
"356 400 CURVE SMOOTH",
"439 400 OFFCURVE",
"494 344 OFFCURVE",
"494 261 CURVE SMOOTH",
"494 177 OFFCURVE",
"439 121 OFFCURVE",
"356 121 CURVE SMOOTH",
"273 121 OFFCURVE",
"218 177 OFFCURVE",
"218 261 CURVE SMOOTH"
);
}
);
width = 712;
}
);
leftKerningGroup = o;
leftMetricsKey = a;
rightKerningGroup = n;
rightMetricsKey = n;
},
{
color = 10;
glyphname = astroke.ss01;
lastChange = "2023-08-30 18:54:00 +0000";
layers = (
{
layerId = "FD4D3FDD-DE85-408F-A52A-FF600B1C6101";
paths = (
{
closed = 1;
nodes = (
"419 -13 OFFCURVE",
"512 31 OFFCURVE",
"558 98 CURVE",
"560 98 LINE",
"545 0 LINE",
"608 0 LINE",
"608 520 LINE",
"560 520 LINE",
"565 412 LINE",
"563 412 LINE",
"536 456 OFFCURVE",
"489 491 OFFCURVE",
"431 511 CURVE",
"448 558 LINE",
"407 558 LINE",
"394 522 LINE",
"367 529 OFFCURVE",
"339 532 OFFCURVE",
"310 532 CURVE SMOOTH",
"142 532 OFFCURVE",
"30 424 OFFCURVE",
"30 261 CURVE SMOOTH",
"30 138 OFFCURVE",
"97 45 OFFCURVE",
"206 6 CURVE",
"185 -50 LINE",
"226 -50 LINE",
"243 -4 LINE",
"268 -10 OFFCURVE",
"296 -13 OFFCURVE",
"325 -13 CURVE SMOOTH"
);
},
{
closed = 1;
nodes = (
"78 398 OFFCURVE",
"173 490 OFFCURVE",
"316 490 CURVE SMOOTH",
"338 490 OFFCURVE",
"360 488 OFFCURVE",
"380 484 CURVE",
"220 47 LINE",
"132 80 OFFCURVE",
"78 158 OFFCURVE",
"78 261 CURVE SMOOTH"
);
},
{
closed = 1;
nodes = (
"417 473 LINE",
"505 440 OFFCURVE",
"560 363 OFFCURVE",
"560 261 CURVE SMOOTH",
"560 122 OFFCURVE",
"466 29 OFFCURVE",
"325 29 CURVE SMOOTH",
"301 29 OFFCURVE",
"279 31 OFFCURVE",
"257 36 CURVE"
);
}
);
width = 648;
},
{
layerId = m002;
paths = (
{
closed = 1;
nodes = (
"401 -13 OFFCURVE",
"473 7 OFFCURVE",
"502 37 CURVE",
"506 37 LINE",
"486 0 LINE",
"692 0 LINE",
"692 520 LINE",
"494 520 LINE",
"499 487 LINE",
"497 487 LINE",
"489 493 OFFCURVE",
"480 498 OFFCURVE",
"470 503 CURVE",
"490 558 LINE",
"439 558 LINE",
"425 520 LINE",
"396 527 OFFCURVE",
"365 532 OFFCURVE",
"334 532 CURVE SMOOTH",
"140 532 OFFCURVE",
"10 424 OFFCURVE",
"10 261 CURVE SMOOTH",
"10 125 OFFCURVE",
"97 26 OFFCURVE",
"234 -4 CURVE",
"217 -50 LINE",
"268 -50 LINE",
"282 -11 LINE",
"295 -12 OFFCURVE",
"309 -13 OFFCURVE",
"323 -13 CURVE SMOOTH"
);
},
{
closed = 1;
nodes = (
"218 344 OFFCURVE",
"273 400 OFFCURVE",
"356 400 CURVE SMOOTH",
"365 400 OFFCURVE",
"373 399 OFFCURVE",
"381 398 CURVE",
"285 137 LINE",
"243 160 OFFCURVE",
"218 204 OFFCURVE",
"218 261 CURVE SMOOTH"
);
},
{
closed = 1;
nodes = (
"426 384 LINE",
"469 361 OFFCURVE",
"494 317 OFFCURVE",
"494 261 CURVE SMOOTH",
"494 177 OFFCURVE",
"439 121 OFFCURVE",
"356 121 CURVE SMOOTH",
"347 121 OFFCURVE",
"339 122 OFFCURVE",
"331 123 CURVE"
);
}
);
width = 712;
}
);
leftKerningGroup = o;
leftMetricsKey = a;
rightKerningGroup = n;
rightMetricsKey = a;
},
{
color = 10;
glyphname = germandbls.ss01;
lastChange = "2023-08-30 18:54:09 +0000";
layers = (
{
layerId = "FD4D3FDD-DE85-408F-A52A-FF600B1C6101";
paths = (
{
closed = 1;
nodes = (
"88 0 LINE",
"88 583 LINE SMOOTH",
"88 650 OFFCURVE",
"130 694 OFFCURVE",
"193 694 CURVE SMOOTH",
"250 694 LINE",
"208 663 OFFCURVE",
"184 616 OFFCURVE",
"184 558 CURVE SMOOTH",
"184 373 OFFCURVE",
"476 340 OFFCURVE",
"476 171 CURVE SMOOTH",
"476 86 OFFCURVE",
"412 29 OFFCURVE",
"315 29 CURVE SMOOTH",
"276 29 OFFCURVE",
"224 38 OFFCURVE",
"187 52 CURVE",
"187 10 LINE",
"212 -4 OFFCURVE",
"262 -13 OFFCURVE",
"314 -13 CURVE SMOOTH",
"440 -13 OFFCURVE",
"524 63 OFFCURVE",
"524 177 CURVE SMOOTH",
"524 368 OFFCURVE",
"232 410 OFFCURVE",
"232 562 CURVE SMOOTH",
"232 641 OFFCURVE",
"296 694 OFFCURVE",
"392 694 CURVE",
"392 736 LINE",
"195 736 LINE SMOOTH",
"102 736 OFFCURVE",
"40 670 OFFCURVE",
"40 571 CURVE SMOOTH",
"40 0 LINE"
);
}
);
width = 554;
},
{
layerId = m002;
paths = (
{
closed = 1;
nodes = (
"218 0 LINE",
"218 523 LINE SMOOTH",
"218 554 OFFCURVE",
"236 574 OFFCURVE",
"263 574 CURVE SMOOTH",
"341 574 LINE",
"336 556 OFFCURVE",
"334 538 OFFCURVE",
"334 518 CURVE SMOOTH",
"334 375 OFFCURVE",
"456 297 OFFCURVE",
"456 201 CURVE SMOOTH",
"456 170 OFFCURVE",
"434 149 OFFCURVE",
"401 149 CURVE SMOOTH",
"373 149 OFFCURVE",
"332 158 OFFCURVE",
"297 172 CURVE",
"297 10 LINE",
"322 -4 OFFCURVE",
"372 -13 OFFCURVE",
"424 -13 CURVE SMOOTH",
"568 -13 OFFCURVE",
"664 71 OFFCURVE",
"664 197 CURVE SMOOTH",
"664 375 OFFCURVE",
"542 442 OFFCURVE",
"542 522 CURVE SMOOTH",
"542 553 OFFCURVE",
"558 574 OFFCURVE",
"582 574 CURVE",
"582 736 LINE",
"245 736 LINE SMOOTH",
"108 736 OFFCURVE",
"20 670 OFFCURVE",
"20 571 CURVE SMOOTH",
"20 0 LINE"
);
}
);
width = 674;
}
);
leftKerningGroup = n;
leftMetricsKey = n;
rightKerningGroup = germandbls;
rightMetricsKey = o;
},
{
color = 10;
glyphname = f_f;
lastChange = "2023-09-06 01:30:23 +0000";
layers = (
{
layerId = "FD4D3FDD-DE85-408F-A52A-FF600B1C6101";
paths = (
{
closed = 1;
nodes = (
"133 518 LINE",
"40 523 LINE",
"40 478 LINE",
"133 478 LINE",
"133 0 LINE",
"181 0 LINE",
"181 478 LINE",
"418 478 LINE",
"418 0 LINE",
"466 0 LINE",
"466 478 LINE",
"610 478 LINE",
"610 520 LINE",
"466 520 LINE",
"466 565 LINE SMOOTH",
"466 647 OFFCURVE",
"516 695 OFFCURVE",
"600 695 CURVE SMOOTH",
"622 695 OFFCURVE",
"645 690 OFFCURVE",
"664 681 CURVE",
"664 723 LINE",
"646 731 OFFCURVE",
"621 736 OFFCURVE",
"597 736 CURVE SMOOTH",
"484 736 OFFCURVE",
"418 671 OFFCURVE",
"418 562 CURVE SMOOTH",
"418 518 LINE",
"325 520 LINE",
"181 520 LINE",
"181 565 LINE SMOOTH",
"181 647 OFFCURVE",
"231 695 OFFCURVE",
"315 695 CURVE SMOOTH",
"337 695 OFFCURVE",
"360 690 OFFCURVE",
"379 681 CURVE",
"379 723 LINE",
"361 731 OFFCURVE",
"336 736 OFFCURVE",
"312 736 CURVE SMOOTH",
"199 736 OFFCURVE",
"133 671 OFFCURVE",
"133 562 CURVE SMOOTH"
);
}
);
width = 674;
},
{
layerId = m002;
paths = (
{
closed = 1;
nodes = (
"93 518 LINE",
"20 523 LINE",
"20 370 LINE",
"93 370 LINE",
"93 0 LINE",
"291 0 LINE",
"291 370 LINE",
"498 370 LINE",
"498 0 LINE",
"696 0 LINE",
"696 370 LINE",
"830 370 LINE",
"830 520 LINE",
"696 520 LINE",
"696 535 LINE SMOOTH",
"696 560 OFFCURVE",
"724 577 OFFCURVE",
"765 577 CURVE SMOOTH",
"789 577 OFFCURVE",
"821 571 OFFCURVE",
"844 563 CURVE",
"844 723 LINE",
"827 731 OFFCURVE",
"790 736 OFFCURVE",
"750 736 CURVE SMOOTH",
"599 736 OFFCURVE",
"498 664 OFFCURVE",
"498 557 CURVE SMOOTH",
"498 518 LINE",
"425 520 LINE",
"291 520 LINE",
"291 535 LINE SMOOTH",
"291 560 OFFCURVE",
"319 577 OFFCURVE",
"360 577 CURVE SMOOTH",
"384 577 OFFCURVE",
"416 571 OFFCURVE",
"439 563 CURVE",
"439 723 LINE",
"422 731 OFFCURVE",
"385 736 OFFCURVE",
"345 736 CURVE SMOOTH",
"194 736 OFFCURVE",
"93 664 OFFCURVE",
"93 557 CURVE SMOOTH"
);
}
);
width = 854;
}
);
leftKerningGroup = f;
leftMetricsKey = f;
rightKerningGroup = f;
rightMetricsKey = f;
unicode = FB00;
},
{
color = 10;
glyphname = f_f_i;
lastChange = "2023-09-06 01:30:34 +0000";
layers = (
{
layerId = "FD4D3FDD-DE85-408F-A52A-FF600B1C6101";
paths = (
{
closed = 1;
nodes = (
"133 518 LINE",
"40 523 LINE",
"40 478 LINE",
"133 478 LINE",
"133 0 LINE",
"181 0 LINE",
"181 478 LINE",
"418 478 LINE",
"418 0 LINE",
"466 0 LINE",
"466 478 LINE",
"704 478 LINE",
"704 0 LINE",
"752 0 LINE",
"752 520 LINE",
"466 520 LINE",
"466 565 LINE SMOOTH",
"466 647 OFFCURVE",
"516 695 OFFCURVE",
"600 695 CURVE SMOOTH",
"622 695 OFFCURVE",
"645 690 OFFCURVE",
"664 681 CURVE",
"664 723 LINE",
"646 731 OFFCURVE",
"621 736 OFFCURVE",
"597 736 CURVE SMOOTH",
"484 736 OFFCURVE",
"418 671 OFFCURVE",
"418 562 CURVE SMOOTH",
"418 518 LINE",
"325 520 LINE",
"181 520 LINE",
"181 565 LINE SMOOTH",
"181 647 OFFCURVE",
"231 695 OFFCURVE",
"315 695 CURVE SMOOTH",
"337 695 OFFCURVE",
"360 690 OFFCURVE",
"379 681 CURVE",
"379 723 LINE",
"361 731 OFFCURVE",
"336 736 OFFCURVE",
"312 736 CURVE SMOOTH",
"199 736 OFFCURVE",
"133 671 OFFCURVE",
"133 562 CURVE SMOOTH"
);
},
{
closed = 1;
nodes = (
"752 654 LINE",
"752 723 LINE",
"704 723 LINE",
"704 654 LINE"
);
}
);
width = 792;
},
{
layerId = m002;
paths = (
{
closed = 1;
nodes = (
"93 518 LINE",
"20 523 LINE",
"20 370 LINE",
"93 370 LINE",
"93 0 LINE",
"291 0 LINE",
"291 370 LINE",
"498 370 LINE",
"498 0 LINE",
"696 0 LINE",
"696 370 LINE",
"870 370 LINE",
"870 0 LINE",
"1038 0 LINE",
"1038 520 LINE",
"696 520 LINE",
"696 535 LINE SMOOTH",
"696 560 OFFCURVE",
"724 577 OFFCURVE",
"765 577 CURVE SMOOTH",
"789 577 OFFCURVE",
"821 571 OFFCURVE",
"844 563 CURVE",
"844 723 LINE",
"827 731 OFFCURVE",
"790 736 OFFCURVE",
"750 736 CURVE SMOOTH",
"599 736 OFFCURVE",
"498 664 OFFCURVE",
"498 557 CURVE SMOOTH",
"498 518 LINE",
"425 520 LINE",
"291 520 LINE",
"291 535 LINE SMOOTH",
"291 560 OFFCURVE",
"319 577 OFFCURVE",
"360 577 CURVE SMOOTH",
"384 577 OFFCURVE",
"416 571 OFFCURVE",
"439 563 CURVE",
"439 723 LINE",
"422 731 OFFCURVE",
"385 736 OFFCURVE",
"345 736 CURVE SMOOTH",
"194 736 OFFCURVE",
"93 664 OFFCURVE",
"93 557 CURVE SMOOTH"
);
},
{
closed = 1;
nodes = (
"1038 553 LINE",
"1038 723 LINE",
"870 723 LINE",
"870 553 LINE"
);
}
);
width = 1058;
}
);
leftKerningGroup = f;
leftMetricsKey = f;
rightKerningGroup = i;
rightMetricsKey = i;
unicode = FB03;
},
{
color = 10;
glyphname = f_t;
lastChange = "2023-09-06 01:30:39 +0000";
layers = (
{
layerId = "FD4D3FDD-DE85-408F-A52A-FF600B1C6101";
paths = (
{
closed = 1;
nodes = (
"133 518 LINE",
"40 520 LINE",
"40 478 LINE",
"133 478 LINE",
"133 0 LINE",
"181 0 LINE",
"181 478 LINE",
"418 478 LINE",
"418 139 LINE SMOOTH",
"418 30 OFFCURVE",
"459 -13 OFFCURVE",
"562 -13 CURVE SMOOTH",
"585 -13 OFFCURVE",
"600 -10 OFFCURVE",
"617 -3 CURVE",
"617 39 LINE",
"605 31 OFFCURVE",
"589 28 OFFCURVE",
"561 28 CURVE SMOOTH",
"493 28 OFFCURVE",
"466 60 OFFCURVE",
"466 139 CURVE SMOOTH",
"466 478 LINE",
"600 478 LINE",
"600 520 LINE",
"466 520 LINE",
"466 629 LINE",
"418 629 LINE",
"418 518 LINE",
"310 520 LINE",
"181 520 LINE",
"181 565 LINE SMOOTH",
"181 647 OFFCURVE",
"231 695 OFFCURVE",
"315 695 CURVE SMOOTH",
"337 695 OFFCURVE",
"360 690 OFFCURVE",
"379 681 CURVE",
"379 723 LINE",
"361 731 OFFCURVE",
"336 736 OFFCURVE",
"312 736 CURVE SMOOTH",
"199 736 OFFCURVE",
"133 671 OFFCURVE",
"133 562 CURVE SMOOTH"
);
}
);
width = 657;
},
{
layerId = m002;
paths = (
{
closed = 1;
nodes = (
"93 518 LINE",
"20 520 LINE",
"20 370 LINE",
"93 370 LINE",
"93 0 LINE",
"291 0 LINE",
"291 370 LINE",
"465 370 LINE",
"465 171 LINE SMOOTH",
"465 55 OFFCURVE",
"552 -13 OFFCURVE",
"698 -13 CURVE SMOOTH",
"735 -13 OFFCURVE",
"768 -8 OFFCURVE",
"786 0 CURVE",
"786 160 LINE",
"763 151 OFFCURVE",
"733 146 OFFCURVE",
"707 146 CURVE SMOOTH",
"679 146 OFFCURVE",
"663 163 OFFCURVE",
"663 191 CURVE SMOOTH",
"663 370 LINE",
"767 370 LINE",
"767 520 LINE",
"663 520 LINE",
"663 629 LINE",
"465 629 LINE",
"465 518 LINE",
"392 520 LINE",
"291 520 LINE",
"291 535 LINE SMOOTH",
"291 560 OFFCURVE",
"319 577 OFFCURVE",
"360 577 CURVE SMOOTH",
"384 577 OFFCURVE",
"416 571 OFFCURVE",
"439 563 CURVE",
"439 723 LINE",
"422 731 OFFCURVE",
"385 736 OFFCURVE",
"345 736 CURVE SMOOTH",
"194 736 OFFCURVE",
"93 664 OFFCURVE",
"93 557 CURVE SMOOTH"
);
}
);
width = 806;
}
);
leftKerningGroup = f;
leftMetricsKey = f;
rightKerningGroup = t;
rightMetricsKey = t;
unicode = FB05;
},
{
color = 10;
glyphname = fi;
lastChange = "2023-08-30 18:54:28 +0000";
layers = (
{
layerId = "FD4D3FDD-DE85-408F-A52A-FF600B1C6101";
paths = (
{
closed = 1;
nodes = (
"133 518 LINE",
"40 520 LINE",
"40 478 LINE",
"133 478 LINE",
"133 0 LINE",
"181 0 LINE",
"181 478 LINE",
"409 478 LINE",
"409 0 LINE",
"457 0 LINE",
"457 520 LINE",
"181 520 LINE",
"181 565 LINE SMOOTH",
"181 647 OFFCURVE",
"231 695 OFFCURVE",
"315 695 CURVE SMOOTH",
"337 695 OFFCURVE",
"360 690 OFFCURVE",
"379 681 CURVE",
"379 723 LINE",
"361 731 OFFCURVE",
"336 736 OFFCURVE",
"312 736 CURVE SMOOTH",
"199 736 OFFCURVE",
"133 671 OFFCURVE",
"133 562 CURVE SMOOTH"
);
},
{
closed = 1;
nodes = (
"457 654 LINE",
"457 723 LINE",
"409 723 LINE",
"409 654 LINE"
);
}
);
width = 497;
},
{
layerId = m002;
paths = (
{
closed = 1;
nodes = (
"93 518 LINE",
"20 520 LINE",
"20 370 LINE",
"93 370 LINE",
"93 0 LINE",
"291 0 LINE",
"291 370 LINE",
"469 370 LINE",
"469 0 LINE",
"667 0 LINE",
"667 520 LINE",
"291 520 LINE",
"291 535 LINE SMOOTH",
"291 560 OFFCURVE",
"319 577 OFFCURVE",
"360 577 CURVE SMOOTH",
"384 577 OFFCURVE",
"416 571 OFFCURVE",
"439 563 CURVE",
"439 723 LINE",
"422 731 OFFCURVE",
"385 736 OFFCURVE",
"345 736 CURVE SMOOTH",
"194 736 OFFCURVE",
"93 664 OFFCURVE",
"93 557 CURVE SMOOTH"
);
},
{
closed = 1;
nodes = (
"667 553 LINE",
"667 723 LINE",
"469 723 LINE",
"469 553 LINE"
);
}
);
width = 687;
}
);
leftKerningGroup = f;
leftMetricsKey = f;
rightKerningGroup = i;
rightMetricsKey = i;
unicode = FB01;
},
{
color = 10;
glyphname = fl;
lastChange = "2023-08-30 18:54:28 +0000";
layers = (
{
layerId = "FD4D3FDD-DE85-408F-A52A-FF600B1C6101";
paths = (
{
closed = 1;
nodes = (
"399 520 LINE",
"181 520 LINE",
"181 565 LINE SMOOTH",
"181 647 OFFCURVE",
"231 695 OFFCURVE",
"315 695 CURVE SMOOTH",
"337 695 OFFCURVE",
"360 690 OFFCURVE",
"379 681 CURVE",
"379 723 LINE",
"361 731 OFFCURVE",
"336 736 OFFCURVE",
"312 736 CURVE SMOOTH",
"199 736 OFFCURVE",
"133 671 OFFCURVE",
"133 562 CURVE SMOOTH",
"133 518 LINE",
"40 520 LINE",
"40 478 LINE",
"133 478 LINE",
"133 0 LINE",
"181 0 LINE",
"181 478 LINE",
"399 478 LINE",
"399 0 LINE",
"447 0 LINE",
"447 704 LINE",
"399 723 LINE"
);
}
);
width = 487;
},
{
layerId = m002;
paths = (
{
closed = 1;
nodes = (
"469 520 LINE",
"291 520 LINE",
"291 535 LINE SMOOTH",
"291 560 OFFCURVE",
"319 577 OFFCURVE",
"360 577 CURVE SMOOTH",
"384 577 OFFCURVE",
"416 571 OFFCURVE",
"439 563 CURVE",
"439 723 LINE",
"422 731 OFFCURVE",
"385 736 OFFCURVE",
"345 736 CURVE SMOOTH",
"194 736 OFFCURVE",
"93 664 OFFCURVE",
"93 557 CURVE SMOOTH",
"93 518 LINE",
"20 520 LINE",
"20 370 LINE",
"93 370 LINE",
"93 0 LINE",
"291 0 LINE",
"291 370 LINE",
"469 370 LINE",
"469 0 LINE",
"637 0 LINE",
"637 669 LINE",
"469 723 LINE"
);
}
);
width = 657;
}
);
leftKerningGroup = f;
leftMetricsKey = f;
rightKerningGroup = l;
rightMetricsKey = l;
unicode = FB02;
},
{
color = 10;
glyphname = t_t;
lastChange = "2023-08-30 18:54:28 +0000";
layers = (
{
hints = (
{
place = "{149, 0}";
type = Stem;
},
{
place = "{461, 0}";
type = Stem;
}
);
layerId = "FD4D3FDD-DE85-408F-A52A-FF600B1C6101";
paths = (
{
closed = 1;
nodes = (
"133 30 OFFCURVE",
"174 -13 OFFCURVE",
"277 -13 CURVE SMOOTH",
"300 -13 OFFCURVE",
"315 -10 OFFCURVE",
"332 -3 CURVE",
"332 39 LINE",
"320 31 OFFCURVE",
"304 28 OFFCURVE",
"276 28 CURVE SMOOTH",
"208 28 OFFCURVE",
"181 60 OFFCURVE",
"181 139 CURVE SMOOTH",
"181 478 LINE",
"408 478 LINE",
"408 139 LINE SMOOTH",
"408 30 OFFCURVE",
"449 -13 OFFCURVE",
"552 -13 CURVE SMOOTH",
"575 -13 OFFCURVE",
"590 -10 OFFCURVE",
"607 -3 CURVE",
"607 39 LINE",
"595 31 OFFCURVE",
"579 28 OFFCURVE",
"551 28 CURVE SMOOTH",
"483 28 OFFCURVE",
"456 60 OFFCURVE",
"456 139 CURVE SMOOTH",
"456 478 LINE",
"590 478 LINE",
"590 520 LINE",
"456 520 LINE",
"456 629 LINE",
"408 629 LINE",
"408 518 LINE",
"315 520 LINE",
"181 520 LINE",
"181 629 LINE",
"133 629 LINE",
"133 518 LINE",
"40 523 LINE",
"40 478 LINE",
"133 478 LINE",
"133 139 LINE SMOOTH"
);
}
);
width = 647;
},
{
hints = (
{
place = "{149, 0}";
type = Stem;
},
{
place = "{504, 0}";
type = Stem;
}
);
layerId = m002;
paths = (
{
closed = 1;
nodes = (
"83 55 OFFCURVE",
"170 -13 OFFCURVE",
"316 -13 CURVE SMOOTH",
"353 -13 OFFCURVE",
"386 -8 OFFCURVE",
"404 0 CURVE",
"404 160 LINE",
"381 151 OFFCURVE",
"351 146 OFFCURVE",
"325 146 CURVE SMOOTH",
"297 146 OFFCURVE",
"281 163 OFFCURVE",
"281 191 CURVE SMOOTH",
"281 370 LINE",
"458 370 LINE",
"458 171 LINE SMOOTH",
"458 55 OFFCURVE",
"545 -13 OFFCURVE",
"691 -13 CURVE SMOOTH",
"728 -13 OFFCURVE",
"761 -8 OFFCURVE",
"779 0 CURVE",
"779 160 LINE",
"756 151 OFFCURVE",
"726 146 OFFCURVE",
"700 146 CURVE SMOOTH",
"672 146 OFFCURVE",
"656 163 OFFCURVE",
"656 191 CURVE SMOOTH",
"656 370 LINE",
"760 370 LINE",
"760 520 LINE",
"656 520 LINE",
"656 629 LINE",
"458 629 LINE",
"458 518 LINE",
"385 520 LINE",
"281 520 LINE",
"281 629 LINE",
"83 629 LINE",
"83 518 LINE",
"10 523 LINE",
"10 370 LINE",
"83 370 LINE",
"83 171 LINE SMOOTH"
);
}
);
width = 799;
}
);
leftKerningGroup = t;
leftMetricsKey = t;
rightKerningGroup = t;
rightMetricsKey = t;
},
{
color = 10;
glyphname = clickalveolar;
lastChange = "2023-08-30 02:03:03 +0000";
layers = (
{
layerId = "FD4D3FDD-DE85-408F-A52A-FF600B1C6101";
paths = (
{
closed = 1;
nodes = (
"180 518 LINE",
"40 523 LINE",
"40 478 LINE",
"180 478 LINE",
"180 369 LINE",
"40 374 LINE",
"40 329 LINE",
"180 329 LINE",
"180 -182 LINE",
"230 -182 LINE",
"230 329 LINE",
"365 329 LINE",
"365 371 LINE",
"230 371 LINE",
"230 478 LINE",
"365 478 LINE",
"365 520 LINE",
"230 520 LINE",
"230 714 LINE",
"180 714 LINE"
);
}
);
width = 405;
},
{
layerId = m002;
paths = (
{
closed = 1;
nodes = (
"148 523 LINE",
"10 528 LINE",
"10 375 LINE",
"148 375 LINE",
"148 283 LINE",
"10 288 LINE",
"10 135 LINE",
"148 135 LINE",
"148 -182 LINE",
"298 -182 LINE",
"298 135 LINE",
"435 135 LINE",
"435 285 LINE",
"298 285 LINE",
"298 375 LINE",
"435 375 LINE",
"435 525 LINE",
"298 525 LINE",
"298 714 LINE",
"148 714 LINE"
);
}
);
width = 455;
}
);
leftKerningGroup = t;
leftMetricsKey = t;
rightKerningGroup = t;
rightMetricsKey = t;
unicode = 01C2;
},
{
color = 10;
glyphname = ordfeminine;
lastChange = "2023-08-30 18:54:51 +0000";
layers = (
{
layerId = "FD4D3FDD-DE85-408F-A52A-FF600B1C6101";
paths = (
{
closed = 1;
nodes = (
"228 433 OFFCURVE",
"276 454 OFFCURVE",
"291 486 CURVE",
"292 486 LINE",
"290 439 LINE",
"329 439 LINE",
"329 707 LINE",
"291 707 LINE",
"292 660 LINE",
"291 660 LINE",
"271 692 OFFCURVE",
"224 714 OFFCURVE",
"174 714 CURVE SMOOTH",
"88 714 OFFCURVE",
"30 658 OFFCURVE",
"30 574 CURVE SMOOTH",
"30 489 OFFCURVE",
"87 433 OFFCURVE",
"172 433 CURVE SMOOTH"
);
},
{
closed = 1;
nodes = (
"68 639 OFFCURVE",
"113 682 OFFCURVE",
"180 682 CURVE SMOOTH",
"247 682 OFFCURVE",
"291 639 OFFCURVE",
"291 574 CURVE SMOOTH",
"291 508 OFFCURVE",
"246 464 OFFCURVE",
"178 464 CURVE SMOOTH",
"112 464 OFFCURVE",
"68 508 OFFCURVE",
"68 574 CURVE SMOOTH"
);
}
);
width = 369;
},
{
layerId = m002;
paths = (
{
closed = 1;
nodes = (
"190 433 OFFCURVE",
"225 443 OFFCURVE",
"245 459 CURVE",
"247 459 LINE",
"245 439 LINE",
"346 439 LINE",
"346 707 LINE",
"245 707 LINE",
"247 690 LINE",
"245 690 LINE",
"227 704 OFFCURVE",
"194 713 OFFCURVE",
"162 713 CURVE SMOOTH",
"71 713 OFFCURVE",
"10 657 OFFCURVE",
"10 573 CURVE SMOOTH",
"10 489 OFFCURVE",
"68 433 OFFCURVE",
"155 433 CURVE SMOOTH"
);
},
{
closed = 1;
nodes = (
"121 604 OFFCURVE",
"146 624 OFFCURVE",
"183 624 CURVE SMOOTH",
"220 624 OFFCURVE",
"245 604 OFFCURVE",
"245 573 CURVE SMOOTH",
"245 542 OFFCURVE",
"220 522 OFFCURVE",
"183 522 CURVE SMOOTH",
"146 522 OFFCURVE",
"121 542 OFFCURVE",
"121 573 CURVE SMOOTH"
);
}
);
width = 366;
}
);
leftKerningGroup = o;
leftMetricsKey = a;
rightKerningGroup = n;
rightMetricsKey = a;
unicode = 00AA;
},
{
color = 10;
glyphname = ordmasculine;
lastChange = "2023-08-30 18:54:41 +0000";
layers = (
{
layerId = "FD4D3FDD-DE85-408F-A52A-FF600B1C6101";
paths = (
{
closed = 1;
nodes = (
"90 714 OFFCURVE",
"30 658 OFFCURVE",
"30 573 CURVE SMOOTH",
"30 489 OFFCURVE",
"90 433 OFFCURVE",
"179 433 CURVE SMOOTH",
"269 433 OFFCURVE",
"329 489 OFFCURVE",
"329 573 CURVE SMOOTH",
"329 658 OFFCURVE",
"269 714 OFFCURVE",
"179 714 CURVE SMOOTH"
);
},
{
closed = 1;
nodes = (
"68 638 OFFCURVE",
"112 682 OFFCURVE",
"179 682 CURVE SMOOTH",
"246 682 OFFCURVE",
"291 638 OFFCURVE",
"291 573 CURVE SMOOTH",
"291 508 OFFCURVE",
"246 465 OFFCURVE",
"179 465 CURVE SMOOTH",
"112 465 OFFCURVE",
"68 508 OFFCURVE",
"68 573 CURVE SMOOTH"
);
}
);
width = 359;
},
{
layerId = m002;
paths = (
{
closed = 1;
nodes = (
"76 713 OFFCURVE",
"10 661 OFFCURVE",
"10 572 CURVE SMOOTH",
"10 484 OFFCURVE",
"76 432 OFFCURVE",
"188 432 CURVE SMOOTH",
"301 432 OFFCURVE",
"367 484 OFFCURVE",
"367 572 CURVE SMOOTH",
"367 661 OFFCURVE",
"301 713 OFFCURVE",
"188 713 CURVE SMOOTH"
);
},
{
closed = 1;
nodes = (
"121 605 OFFCURVE",
"146 624 OFFCURVE",
"188 624 CURVE SMOOTH",
"231 624 OFFCURVE",
"256 605 OFFCURVE",
"256 572 CURVE SMOOTH",
"256 540 OFFCURVE",
"231 521 OFFCURVE",
"188 521 CURVE SMOOTH",
"146 521 OFFCURVE",
"121 540 OFFCURVE",
"121 572 CURVE SMOOTH"
);
}
);
width = 377;
}
);
leftKerningGroup = o;
leftMetricsKey = o;
rightKerningGroup = o;
rightMetricsKey = o;
unicode = 00BA;
},
{
color = 10;
glyphname = "Be-cy";
lastChange = "2023-08-30 02:12:09 +0000";
layers = (
{
layerId = "FD4D3FDD-DE85-408F-A52A-FF600B1C6101";
paths = (
{
closed = 1;
nodes = (
"452 0 LINE SMOOTH",
"585 0 OFFCURVE",
"664 74 OFFCURVE",
"664 198 CURVE SMOOTH",
"664 324 OFFCURVE",
"581 398 OFFCURVE",
"440 398 CURVE SMOOTH",
"90 398 LINE",
"90 666 LINE",
"644 666 LINE",
"644 714 LINE",
"40 714 LINE",
"40 0 LINE"
);
},
{
closed = 1;
nodes = (
"90 351 LINE",
"440 351 LINE SMOOTH",
"549 351 OFFCURVE",
"614 293 OFFCURVE",
"614 196 CURVE SMOOTH",
"614 103 OFFCURVE",
"553 48 OFFCURVE",
"450 48 CURVE SMOOTH",
"90 48 LINE"
);
}
);
width = 704;
},
{
layerId = m002;
paths = (
{
closed = 1;
nodes = (
"520 0 LINE SMOOTH",
"685 0 OFFCURVE",
"782 84 OFFCURVE",
"782 225 CURVE SMOOTH",
"782 366 OFFCURVE",
"680 449 OFFCURVE",
"508 449 CURVE SMOOTH",
"230 449 LINE",
"230 546 LINE",
"752 546 LINE",
"752 714 LINE",
"20 714 LINE",
"20 0 LINE"
);
},
{
closed = 1;
nodes = (
"230 281 LINE",
"508 281 LINE SMOOTH",
"542 281 OFFCURVE",
"562 260 OFFCURVE",
"562 225 CURVE SMOOTH",
"562 189 OFFCURVE",
"546 168 OFFCURVE",
"518 168 CURVE SMOOTH",
"230 168 LINE"
);
}
);
width = 802;
}
);
leftKerningGroup = H;
leftMetricsKey = H;
rightKerningGroup = E;
rightMetricsKey = E;
unicode = 0411;
},
{
color = 10;
glyphname = "Ge-cy";
lastChange = "2023-08-30 02:12:36 +0000";
layers = (
{
anchors = (
{
name = Bottom;
position = "{284, 0}";
},
{
name = Top;
position = "{289, 714}";
}
);
layerId = "FD4D3FDD-DE85-408F-A52A-FF600B1C6101";
paths = (
{
closed = 1;
nodes = (
"90 666 LINE",
"602 666 LINE",
"602 714 LINE",
"40 714 LINE",
"40 0 LINE",
"90 0 LINE"
);
}
);
width = 622;
},
{
anchors = (
{
name = Bottom;
position = "{314, 0}";
},
{
name = Top;
position = "{369, 714}";
}
);
layerId = m002;
paths = (
{
closed = 1;
nodes = (
"230 546 LINE",
"742 546 LINE",
"742 714 LINE",
"20 714 LINE",
"20 0 LINE",
"230 0 LINE"
);
}
);
width = 752;
}
);
leftKerningGroup = H;
leftMetricsKey = H;
rightKerningGroup = "Ge-cy";
rightMetricsKey = T;
unicode = 0413;
},
{
color = 10;
glyphname = "Geupturn-cy";
lastChange = "2023-08-30 16:18:00 +0000";
layers = (
{
layerId = "FD4D3FDD-DE85-408F-A52A-FF600B1C6101";
paths = (
{
closed = 1;
nodes = (
"90 666 LINE",
"626 666 LINE",
"626 752 LINE",
"576 752 LINE",
"576 714 LINE",
"40 714 LINE",
"40 0 LINE",
"90 0 LINE"
);
}
);
width = 646;
},
{
layerId = m002;
paths = (
{
closed = 1;
nodes = (
"230 546 LINE",
"848 546 LINE",
"848 772 LINE",
"638 772 LINE",
"638 714 LINE",
"20 714 LINE",
"20 0 LINE",
"230 0 LINE"
);
}
);
width = 858;
}
);
leftKerningGroup = H;
leftMetricsKey = "Ge-cy";
rightKerningGroup = "Ge-cy";
rightMetricsKey = "Ge-cy";
unicode = 0490;
},
{
color = 10;
glyphname = "Gedescender-cy";
lastChange = "2023-08-30 18:19:34 +0000";
layers = (
{
layerId = "FD4D3FDD-DE85-408F-A52A-FF600B1C6101";
paths = (
{
closed = 1;
nodes = (
"90 -100 LINE",
"140 -100 LINE",
"140 48 LINE",
"90 48 LINE",
"90 666 LINE",
"602 666 LINE",
"602 714 LINE",
"40 714 LINE",
"40 0 LINE",
"90 0 LINE"
);
}
);
width = 622;
},
{
layerId = m002;
paths = (
{
closed = 1;
nodes = (
"230 -100 LINE",
"440 -100 LINE",
"440 168 LINE",
"230 168 LINE",
"230 546 LINE",
"742 546 LINE",
"742 714 LINE",
"20 714 LINE",
"20 0 LINE",
"230 0 LINE"
);
}
);
width = 752;
}
);
leftKerningGroup = H;
leftMetricsKey = "Ge-cy";
rightKerningGroup = "Ge-cy";
rightMetricsKey = "Ge-cy";
unicode = 04F6;
},
{
color = 10;
glyphname = "Gestroke-cy";
lastChange = "2023-08-30 18:05:47 +0000";
layers = (
{
layerId = "FD4D3FDD-DE85-408F-A52A-FF600B1C6101";
paths = (
{
closed = 1;
nodes = (
"150 344 LINE",
"570 344 LINE",
"570 384 LINE",
"150 384 LINE",
"150 666 LINE",
"662 666 LINE",
"662 714 LINE",
"100 714 LINE",
"100 384 LINE",
"40 384 LINE",
"40 344 LINE",
"100 344 LINE",
"100 0 LINE",
"150 0 LINE"
);
}
);
width = 682;
},
{
layerId = m002;
paths = (
{
closed = 1;
nodes = (
"290 233 LINE",
"755 233 LINE",
"755 383 LINE",
"290 383 LINE",
"290 546 LINE",
"802 546 LINE",
"802 714 LINE",
"80 714 LINE",
"80 383 LINE",
"20 383 LINE",
"20 233 LINE",
"80 233 LINE",
"80 0 LINE",
"290 0 LINE"
);
}
);
width = 812;
}
);
leftKerningGroup = "Ge-cy";
leftMetricsKey = "Ge-cy";
rightKerningGroup = "Ge-cy";
rightMetricsKey = "Ge-cy";
unicode = 0492;
},
{
color = 10;
glyphname = "Gemiddlehook-cy";
lastChange = "2023-08-30 18:19:44 +0000";
layers = (
{
layerId = "FD4D3FDD-DE85-408F-A52A-FF600B1C6101";
paths = (
{
closed = 1;
nodes = (
"600 334 OFFCURVE",
"490 432 OFFCURVE",
"325 432 CURVE SMOOTH",
"227 432 OFFCURVE",
"132 400 OFFCURVE",
"88 353 CURVE",
"86 353 LINE",
"95 420 LINE",
"95 666 LINE",
"602 666 LINE",
"602 714 LINE",
"40 714 LINE",
"40 0 LINE",
"90 0 LINE",
"90 290 LINE",
"137 345 OFFCURVE",
"230 382 OFFCURVE",
"323 382 CURVE SMOOTH",
"461 382 OFFCURVE",
"553 304 OFFCURVE",
"553 188 CURVE SMOOTH",
"553 87 OFFCURVE",
"505 -16 OFFCURVE",
"432 -69 CURVE",
"463 -105 LINE",
"545 -46 OFFCURVE",
"600 71 OFFCURVE",
"600 188 CURVE SMOOTH"
);
}
);
width = 632;
},
{
layerId = m002;
paths = (
{
closed = 1;
nodes = (
"768 318 OFFCURVE",
"631 432 OFFCURVE",
"425 432 CURVE SMOOTH",
"343 432 OFFCURVE",
"262 412 OFFCURVE",
"223 382 CURVE",
"221 382 LINE",
"230 439 LINE",
"230 546 LINE",
"742 546 LINE",
"742 714 LINE",
"20 714 LINE",
"20 0 LINE",
"230 0 LINE",
"230 189 LINE",
"268 234 OFFCURVE",
"342 264 OFFCURVE",
"415 264 CURVE SMOOTH",
"495 264 OFFCURVE",
"548 218 OFFCURVE",
"548 148 CURVE SMOOTH",
"548 57 OFFCURVE",
"487 -16 OFFCURVE",
"395 -35 CURVE",
"591 -166 LINE",
"697 -97 OFFCURVE",
"768 29 OFFCURVE",
"768 148 CURVE SMOOTH"
);
}
);
width = 778;
}
);
leftKerningGroup = H;
leftMetricsKey = H;
rightKerningGroup = "Dje-cy";
rightMetricsKey = b;
unicode = 0494;
},
{
color = 10;
glyphname = "De-cy";
lastChange = "2023-08-30 02:12:54 +0000";
layers = (
{
layerId = "FD4D3FDD-DE85-408F-A52A-FF600B1C6101";
paths = (
{
closed = 1;
nodes = (
"218 714 LINE",
"178 163 LINE SMOOTH",
"172 87 OFFCURVE",
"129 48 OFFCURVE",
"52 48 CURVE SMOOTH",
"30 48 LINE",
"30 -100 LINE",
"80 -100 LINE",
"80 0 LINE",
"730 0 LINE",
"730 -100 LINE",
"780 -100 LINE",
"780 48 LINE",
"730 48 LINE",
"730 714 LINE"
);
},
{
closed = 1;
nodes = (
"209 75 OFFCURVE",
"224 114 OFFCURVE",
"228 163 CURVE SMOOTH",
"265 666 LINE",
"680 666 LINE",
"680 48 LINE",
"183 48 LINE"
);
}
);
width = 800;
},
{
layerId = m002;
paths = (
{
closed = 1;
nodes = (
"282 714 LINE",
"242 291 LINE SMOOTH",
"234 210 OFFCURVE",
"194 168 OFFCURVE",
"124 168 CURVE SMOOTH",
"20 168 LINE",
"20 -100 LINE",
"230 -100 LINE",
"230 0 LINE",
"817 0 LINE",
"817 -100 LINE",
"1027 -100 LINE",
"1027 168 LINE",
"922 168 LINE",
"922 714 LINE"
);
},
{
closed = 1;
nodes = (
"438 204 OFFCURVE",
"448 246 OFFCURVE",
"452 293 CURVE SMOOTH",
"476 546 LINE",
"712 546 LINE",
"712 168 LINE",
"424 168 LINE"
);
}
);
width = 1047;
}
);
leftKerningGroup = "De-cy";
leftMetricsKey = J;
rightKerningGroup = "De-cy";
rightMetricsKey = L;
unicode = 0414;
},
{
color = 10;
glyphname = "Zhe-cy";
lastChange = "2023-08-30 02:13:13 +0000";
layers = (
{
anchors = (
{
name = Bottom;
position = "{415, 0}";
},
{
name = Top;
position = "{415, 714}";
}
);
layerId = "FD4D3FDD-DE85-408F-A52A-FF600B1C6101";
paths = (
{
closed = 1;
nodes = (
"440 334 LINE",
"442 334 LINE",
"751 0 LINE",
"810 0 LINE",
"487 357 LINE",
"810 714 LINE",
"751 714 LINE",
"442 382 LINE",
"440 382 LINE",
"440 714 LINE",
"390 714 LINE",
"390 382 LINE",
"388 382 LINE",
"79 714 LINE",
"20 714 LINE",
"343 357 LINE",
"20 0 LINE",
"79 0 LINE",
"388 334 LINE",
"390 334 LINE",
"390 0 LINE",
"440 0 LINE"
);
}
);
width = 830;
},
{
anchors = (
{
name = Bottom;
position = "{617, 0}";
},
{
name = Top;
position = "{617, 714}";
}
);
layerId = m002;
paths = (
{
closed = 1;
nodes = (
"722 299 LINE",
"724 299 LINE",
"985 0 LINE",
"1214 0 LINE",
"917 357 LINE",
"1214 714 LINE",
"985 714 LINE",
"724 414 LINE",
"722 414 LINE",
"722 714 LINE",
"512 714 LINE",
"512 414 LINE",
"510 414 LINE",
"249 714 LINE",
"20 714 LINE",
"317 357 LINE",
"20 0 LINE",
"249 0 LINE",
"509 299 LINE",
"511 299 LINE",
"512 0 LINE",
"722 0 LINE"
);
}
);
width = 1234;
}
);
leftKerningGroup = "Zhe-cy";
leftMetricsKey = A;
rightKerningGroup = "Zhe-cy";
rightMetricsKey = A;
unicode = 0416;
},
{
color = 10;
glyphname = "Ze-cy";
lastChange = "2023-08-30 02:13:22 +0000";
layers = (
{
anchors = (
{
name = Bottom;
position = "{325, 0}";
},
{
name = Top;
position = "{325, 714}";
}
);
layerId = "FD4D3FDD-DE85-408F-A52A-FF600B1C6101";
paths = (
{
closed = 1;
nodes = (
"576 100 OFFCURVE",
"477 35 OFFCURVE",
"328 35 CURVE SMOOTH",
"179 35 OFFCURVE",
"80 98 OFFCURVE",
"80 193 CURVE",
"30 193 LINE",
"30 69 OFFCURVE",
"149 -13 OFFCURVE",
"328 -13 CURVE SMOOTH",
"507 -13 OFFCURVE",
"626 71 OFFCURVE",
"626 197 CURVE SMOOTH",
"626 285 OFFCURVE",
"568 355 OFFCURVE",
"481 371 CURVE",
"481 373 LINE",
"554 399 OFFCURVE",
"603 462 OFFCURVE",
"603 530 CURVE SMOOTH",
"603 647 OFFCURVE",
"492 725 OFFCURVE",
"325 725 CURVE SMOOTH",
"152 725 OFFCURVE",
"37 647 OFFCURVE",
"37 529 CURVE",
"87 529 LINE",
"87 618 OFFCURVE",
"182 677 OFFCURVE",
"325 677 CURVE SMOOTH",
"462 677 OFFCURVE",
"553 618 OFFCURVE",
"553 530 CURVE SMOOTH",
"553 450 OFFCURVE",
"462 396 OFFCURVE",
"325 396 CURVE SMOOTH",
"278 396 LINE",
"278 348 LINE",
"325 348 LINE SMOOTH",
"476 348 OFFCURVE",
"576 288 OFFCURVE",
"576 197 CURVE SMOOTH"
);
}
);
width = 656;
},
{
anchors = (
{
name = Bottom;
position = "{379, 0}";
},
{
name = Top;
position = "{379, 714}";
}
);
layerId = m002;
paths = (
{
closed = 1;
nodes = (
"545 186 OFFCURVE",
"477 155 OFFCURVE",
"374 155 CURVE SMOOTH",
"277 155 OFFCURVE",
"213 186 OFFCURVE",
"213 233 CURVE",
"13 233 LINE",
"13 85 OFFCURVE",
"157 -13 OFFCURVE",
"374 -13 CURVE SMOOTH",
"597 -13 OFFCURVE",
"745 79 OFFCURVE",
"745 217 CURVE SMOOTH",
"745 286 OFFCURVE",
"701 347 OFFCURVE",
"634 371 CURVE",
"634 373 LINE",
"687 398 OFFCURVE",
"722 453 OFFCURVE",
"722 511 CURVE SMOOTH",
"722 640 OFFCURVE",
"582 726 OFFCURVE",
"372 726 CURVE SMOOTH",
"155 726 OFFCURVE",
"10 628 OFFCURVE",
"10 480 CURVE",
"210 480 LINE",
"210 527 OFFCURVE",
"275 558 OFFCURVE",
"372 558 CURVE SMOOTH",
"462 558 OFFCURVE",
"522 534 OFFCURVE",
"522 497 CURVE SMOOTH",
"522 461 OFFCURVE",
"464 437 OFFCURVE",
"378 437 CURVE SMOOTH",
"326 437 LINE",
"326 307 LINE",
"378 307 LINE SMOOTH",
"478 307 OFFCURVE",
"545 277 OFFCURVE",
"545 232 CURVE SMOOTH"
);
}
);
width = 755;
}
);
leftKerningGroup = "Ze-cy";
leftMetricsKey = O;
rightKerningGroup = "Ze-cy";
rightMetricsKey = O;
unicode = 0417;
},
{
color = 10;
glyphname = "Ii-cy";
lastChange = "2023-08-30 02:13:29 +0000";
layers = (
{
anchors = (
{
name = Bottom;
position = "{352, 0}";
},
{
name = Top;
position = "{352, 714}";
}
);
layerId = "FD4D3FDD-DE85-408F-A52A-FF600B1C6101";
paths = (
{
closed = 1;
nodes = (
"92 83 LINE",
"90 83 LINE",
"90 714 LINE",
"40 714 LINE",
"40 0 LINE",
"90 0 LINE",
"612 631 LINE",
"614 631 LINE",
"614 0 LINE",
"664 0 LINE",
"664 714 LINE",
"614 714 LINE"
);
}
);
width = 704;
},
{
anchors = (
{
name = Bottom;
position = "{402, 0}";
},
{
name = Top;
position = "{402, 714}";
}
);
layerId = m002;
paths = (
{
closed = 1;
nodes = (
"232 310 LINE",
"230 310 LINE",
"230 714 LINE",
"20 714 LINE",
"20 0 LINE",
"230 0 LINE",
"572 404 LINE",
"574 404 LINE",
"574 0 LINE",
"784 0 LINE",
"784 714 LINE",
"574 714 LINE"
);
}
);
width = 804;
}
);
leftKerningGroup = H;
leftMetricsKey = N;
rightKerningGroup = H;
rightMetricsKey = N;
unicode = 0418;
},
{
color = 10;
glyphname = "Ka-cy";
lastChange = "2023-08-30 02:13:49 +0000";
layers = (
{
anchors = (
{
name = Bottom;
position = "{284, 0}";
},
{
name = Top;
position = "{309, 714}";
}
);
layerId = "FD4D3FDD-DE85-408F-A52A-FF600B1C6101";
paths = (
{
closed = 1;
nodes = (
"40 0 LINE",
"90 0 LINE",
"90 260 LINE",
"246 381 LINE",
"591 0 LINE",
"663 0 LINE",
"285 412 LINE",
"671 714 LINE",
"597 714 LINE",
"92 322 LINE",
"90 322 LINE",
"90 714 LINE",
"40 714 LINE"
);
}
);
width = 691;
},
{
anchors = (
{
name = Bottom;
position = "{358, 0}";
},
{
name = Top;
position = "{383, 714}";
}
);
layerId = m002;
paths = (
{
closed = 1;
nodes = (
"20 0 LINE",
"230 0 LINE",
"230 191 LINE",
"342 285 LINE",
"581 0 LINE",
"837 0 LINE",
"492 412 LINE",
"851 714 LINE",
"564 714 LINE",
"232 434 LINE",
"230 434 LINE",
"230 714 LINE",
"20 714 LINE"
);
}
);
width = 871;
}
);
leftKerningGroup = H;
leftMetricsKey = K;
rightKerningGroup = K;
rightMetricsKey = K;
unicode = 041A;
},
{
color = 10;
glyphname = "El-cy";
lastChange = "2023-08-30 02:35:56 +0000";
layers = (
{
layerId = "FD4D3FDD-DE85-408F-A52A-FF600B1C6101";
paths = (
{
closed = 1;
nodes = (
"177 714 LINE",
"177 163 LINE SMOOTH",
"177 90 OFFCURVE",
"141 47 OFFCURVE",
"79 47 CURVE SMOOTH",
"60 47 OFFCURVE",
"42 48 OFFCURVE",
"30 51 CURVE",
"30 3 LINE",
"45 1 OFFCURVE",
"63 0 OFFCURVE",
"78 0 CURVE SMOOTH",
"172 0 OFFCURVE",
"227 61 OFFCURVE",
"227 163 CURVE SMOOTH",
"227 666 LINE",
"751 666 LINE",
"751 0 LINE",
"801 0 LINE",
"801 714 LINE"
);
}
);
width = 841;
},
{
layerId = m002;
paths = (
{
closed = 1;
nodes = (
"107 714 LINE",
"107 219 LINE SMOOTH",
"107 186 OFFCURVE",
"89 167 OFFCURVE",
"59 167 CURVE SMOOTH",
"41 167 OFFCURVE",
"33 168 OFFCURVE",
"20 171 CURVE",
"20 3 LINE",
"31 1 OFFCURVE",
"57 0 OFFCURVE",
"88 0 CURVE SMOOTH",
"232 0 OFFCURVE",
"317 83 OFFCURVE",
"317 223 CURVE SMOOTH",
"317 546 LINE",
"661 546 LINE",
"661 0 LINE",
"871 0 LINE",
"871 714 LINE"
);
}
);
width = 891;
}
);
leftKerningGroup = "El-cy";
leftMetricsKey = J;
rightKerningGroup = N;
rightMetricsKey = N;
unicode = 041B;
},
{
color = 10;
glyphname = "Pe-cy";
lastChange = "2023-08-30 02:23:36 +0000";
layers = (
{
layerId = "FD4D3FDD-DE85-408F-A52A-FF600B1C6101";
paths = (
{
closed = 1;
nodes = (
"90 666 LINE",
"614 666 LINE",
"614 0 LINE",
"664 0 LINE",
"664 714 LINE",
"40 714 LINE",
"40 0 LINE",
"90 0 LINE"
);
}
);
width = 704;
},
{
layerId = m002;
paths = (
{
closed = 1;
nodes = (
"230 546 LINE",
"574 546 LINE",
"574 0 LINE",
"784 0 LINE",
"784 714 LINE",
"20 714 LINE",
"20 0 LINE",
"230 0 LINE"
);
}
);
width = 804;
}
);
leftKerningGroup = H;
leftMetricsKey = H;
rightKerningGroup = H;
rightMetricsKey = H;
unicode = 041F;
},
{
color = 10;
glyphname = "U-cy";
lastChange = "2023-08-30 02:23:58 +0000";
layers = (
{
anchors = (
{
name = Top;
position = "{344, 714}";
}
);
layerId = "FD4D3FDD-DE85-408F-A52A-FF600B1C6101";
paths = (
{
closed = 1;
nodes = (
"667 714 LINE",
"614 714 LINE",
"367 251 LINE",
"365 251 LINE",
"73 714 LINE",
"20 714 LINE",
"341 203 LINE",
"300 125 LINE SMOOTH",
"268 65 OFFCURVE",
"241 37 OFFCURVE",
"193 37 CURVE SMOOTH",
"174 37 OFFCURVE",
"152 40 OFFCURVE",
"141 46 CURVE",
"141 -5 LINE",
"155 -10 OFFCURVE",
"173 -13 OFFCURVE",
"189 -13 CURVE SMOOTH",
"264 -13 OFFCURVE",
"305 35 OFFCURVE",
"353 125 CURVE SMOOTH"
);
}
);
width = 687;
},
{
anchors = (
{
name = Top;
position = "{435, 714}";
}
);
layerId = m002;
paths = (
{
closed = 1;
nodes = (
"849 714 LINE",
"641 714 LINE",
"449 401 LINE",
"447 401 LINE",
"228 714 LINE",
"20 714 LINE",
"347 234 LINE",
"332 210 LINE SMOOTH",
"310 175 OFFCURVE",
"281 154 OFFCURVE",
"230 154 CURVE SMOOTH",
"218 154 OFFCURVE",
"204 157 OFFCURVE",
"189 163 CURVE",
"189 -5 LINE",
"205 -10 OFFCURVE",
"230 -13 OFFCURVE",
"266 -13 CURVE SMOOTH",
"392 -13 OFFCURVE",
"456 72 OFFCURVE",
"547 221 CURVE SMOOTH"
);
}
);
width = 869;
}
);
leftKerningGroup = "U-cy";
leftMetricsKey = Y;
rightKerningGroup = "U-cy";
rightMetricsKey = Y;
unicode = 0423;
},
